<svg width="39" height="39" viewBox="0 0 39 39" fill="none" xmlns="http://www.w3.org/2000/svg">
<circle cx="19.4137" cy="19.4137" r="18.9137" fill="#F1F1F1" stroke="white"/>
<path d="M19.4137 34.28C27.6241 34.28 34.28 27.6241 34.28 19.4137C34.28 11.2032 27.6241 4.54736 19.4137 4.54736C11.2032 4.54736 4.54736 11.2032 4.54736 19.4137C4.54736 27.6241 11.2032 34.28 19.4137 34.28Z" fill="#F1F1F1"/>
<path fill-rule="evenodd" clip-rule="evenodd" d="M19.4139 7.45508C26.0179 7.45508 31.3715 12.8087 31.3715 19.4127C31.3715 26.0167 26.0179 31.3703 19.4139 31.3703C12.8099 31.3703 7.4563 26.0167 7.4563 19.4127C7.4563 12.8087 12.8099 7.45508 19.4139 7.45508Z" fill="black"/>
<path d="M20.9667 31.2696V22.0334H23.5706L23.9158 18.7827H20.9667L20.9711 17.1555C20.9711 16.3077 21.0517 15.8536 22.2695 15.8536H23.8975V12.6023H21.293C18.1646 12.6023 17.0637 14.1792 17.0637 16.8314V18.7829H15.1135V22.0339H17.0637V31.1387C17.8234 31.2901 18.6089 31.37 19.4131 31.37C19.9326 31.37 20.4515 31.3365 20.9667 31.2696Z" fill="#F1F1F1"/>
</svg>
