<svg width="40" height="39" viewBox="0 0 40 39" fill="none" xmlns="http://www.w3.org/2000/svg">
<circle cx="20.0001" cy="19.4137" r="18.9137" fill="#F1F1F1" stroke="white"/>
<path d="M10.5146 27.3567H10.5C9.82891 27.3489 9.28784 26.803 9.28784 26.13V16.0466L13.7103 19.3635V27.3567H10.5146Z" fill="black" stroke="#F1F1F1" stroke-width="0.5"/>
<path d="M29.2207 27.3567H26.0249V19.3635L30.4474 16.0466V26.13C30.4474 26.8078 29.8985 27.3567 29.2207 27.3567Z" fill="black" stroke="#F1F1F1" stroke-width="0.5"/>
<path d="M30.4474 15.4222L26.0249 18.7391V12.9648L27.3032 12.0062C27.3032 12.0062 27.3032 12.0061 27.3032 12.0061C28.5992 11.0345 30.4474 11.9592 30.4474 13.5782V15.4222Z" fill="black" stroke="#F1F1F1" stroke-width="0.5"/>
<path d="M14.2117 19.1133V13.3391L19.7186 17.4694L19.8686 17.5819L20.0186 17.4694L25.5256 13.3391V19.1133L19.8686 23.3561L14.2117 19.1133Z" fill="black" stroke="#F1F1F1" stroke-width="0.5"/>
<path d="M13.7098 18.7386L9.28735 15.4217V13.5777V13.5777C9.28735 11.9587 11.1356 11.034 12.4315 12.0057C12.4316 12.0057 12.4316 12.0057 12.4316 12.0057L13.7098 12.9644V18.7386Z" fill="black" stroke="#F1F1F1" stroke-width="0.5"/>
</svg>
