<svg width="98" height="41" viewBox="0 0 98 41" fill="none" xmlns="http://www.w3.org/2000/svg">
<path d="M8.23943 0.00594558C8.29506 0.00594558 9.08115 0.0825487 9.12401 0.0916681C9.3064 0.12997 9.43499 0.250346 9.56813 0.365251C9.94111 0.678047 10.2421 1.04282 10.3889 1.52068C10.4445 1.70307 10.5421 1.86448 10.6087 2.04049C10.6403 2.12838 10.6578 2.22071 10.6606 2.31407C10.6688 2.55482 10.6606 2.79558 10.667 3.03633C10.6728 3.19013 10.6352 3.34244 10.5585 3.47589C10.4099 3.73305 10.2986 4.00846 10.087 4.23371C9.87545 4.45896 9.70583 4.72707 9.51524 4.97421C9.48021 5.02108 9.43912 5.06309 9.39304 5.09914C9.36851 5.12407 9.33927 5.14387 9.30702 5.15738C9.27476 5.17089 9.24014 5.17785 9.20517 5.17785C9.17021 5.17785 9.13559 5.17089 9.10333 5.15738C9.07108 5.14387 9.04184 5.12407 9.01732 5.09914C8.95348 5.05081 8.90059 4.9888 8.83493 4.93864C8.70452 4.83559 8.57046 4.7371 8.43823 4.63588C8.23773 4.48003 8.01106 4.36114 7.76887 4.28478C7.71995 4.26914 7.67489 4.24335 7.63663 4.20909C7.48799 4.0723 7.29648 4.01849 7.11774 3.94098C6.98459 3.88261 6.85145 3.82334 6.71375 3.775C6.64557 3.7506 6.57367 3.73826 6.50127 3.73853C6.1146 3.73853 5.72794 3.73853 5.34127 3.73853C5.22551 3.74198 5.11228 3.77326 5.01115 3.82972C4.79046 3.93733 4.55518 4.02488 4.32993 4.11333C4.05473 4.21574 3.82255 4.40869 3.67151 4.6605C3.56846 4.82739 3.45538 4.98789 3.34594 5.15021C3.17482 5.38336 3.02785 5.6333 2.9073 5.89618C2.77856 6.22909 2.6072 6.5439 2.39752 6.83275C2.35734 6.90838 2.32846 6.98949 2.3118 7.0735C2.27806 7.19055 2.23475 7.30462 2.18231 7.41457C2.11665 7.53403 2.05463 7.54406 1.92605 7.49573C1.82391 7.45743 1.72177 7.4173 1.62237 7.37353C1.49744 7.31699 1.48467 7.28233 1.51932 7.15375C1.68024 6.62041 1.87612 6.09826 2.1057 5.59068C2.20875 5.35084 2.29356 5.10188 2.40482 4.86113C2.4735 4.7425 2.54996 4.62856 2.63372 4.52006C2.71214 4.39877 2.78054 4.2711 2.85988 4.14981C2.99849 3.94918 3.1289 3.75312 3.26569 3.55614C3.30308 3.50233 3.36327 3.46494 3.39063 3.40475C3.58852 2.98344 3.9378 2.66973 4.19496 2.29219C4.39924 1.9958 4.67647 1.74502 4.93911 1.49424C5.24278 1.2015 5.56196 0.926096 5.88023 0.649777C6.20631 0.35509 6.61444 0.166768 7.05025 0.109907C7.14327 0.0989637 7.70868 -0.0287082 8.23943 0.00594558Z" fill="white"/>
<path d="M61.868 37.5615C60.2994 37.5615 58.7309 37.5615 57.1623 37.5615C56.5057 37.5615 55.85 37.5432 55.1934 37.5423C55.0421 37.5423 54.8907 37.5852 54.7375 37.5925C54.5058 37.6034 54.0827 37.6399 53.8602 37.5925C53.581 37.5404 53.2961 37.5253 53.013 37.5478C52.8096 37.5605 52.6054 37.5824 52.402 37.5852C52.3108 37.5852 52.2196 37.5405 52.1284 37.5368C51.9095 37.5295 51.6907 37.5268 51.4727 37.5368C51.3213 37.5441 51.2767 37.6217 51.2903 37.7977C51.304 38.001 51.3177 38.2044 51.325 38.4077C51.3282 38.5099 51.3104 38.6117 51.2727 38.7067C51.2351 38.8018 51.1784 38.8881 51.1061 38.9604C50.9624 39.115 50.8342 39.2833 50.7231 39.4629C50.5987 39.6526 50.4197 39.8002 50.2097 39.886C50.0617 39.9622 49.9095 40.0298 49.7537 40.0885C49.5734 40.1645 49.3829 40.2133 49.1883 40.2335C48.9147 40.2417 47.7985 40.228 47.5888 40.1304C47.2568 39.9781 47.1328 39.7884 46.9021 39.492C46.8629 39.4401 46.8218 39.3899 46.7808 39.3379C46.6241 39.1524 46.5373 38.9178 46.5355 38.6749C46.5355 38.4634 46.53 38.2518 46.5263 38.0366C46.5263 37.9782 46.5263 37.9199 46.5191 37.8624C46.489 37.5596 46.4279 37.5186 46.1278 37.5441C45.7795 37.5751 45.2478 37.6071 44.8985 37.6144C44.6729 37.616 44.4477 37.597 44.2255 37.5578C43.9071 37.5203 43.5858 37.5142 43.2662 37.5396C42.9242 37.5523 42.5813 37.5496 42.2393 37.5396C42.0362 37.5338 41.8331 37.551 41.6338 37.5906C41.3197 37.6549 41.0004 37.6906 40.6799 37.6973C40.0889 37.7119 39.4944 37.7028 38.9071 37.6973C37.054 37.6803 35.2015 37.6609 33.3497 37.639C33.0433 37.639 32.7369 37.6198 32.4314 37.6098C32.4008 37.6125 32.3699 37.61 32.3402 37.6025C32.0228 37.4812 31.6918 37.5295 31.3662 37.5286C30.4178 37.5286 29.4694 37.5286 28.521 37.5387C27.4129 37.5551 26.3049 37.5906 25.1969 37.6153C24.5586 37.6299 24.2011 37.6253 23.5673 37.6554C20.4038 37.8059 17.2384 37.7201 14.074 37.7466C13.3663 37.7521 12.6586 37.7466 11.951 37.7511C11.5579 37.7566 11.1649 37.7849 10.7727 37.804C10.3569 37.825 9.94195 37.846 9.52884 37.7694C9.42813 37.7536 9.32611 37.7478 9.22425 37.7521C7.59735 37.7739 5.97105 37.7967 4.34536 37.8205C4.29415 37.8181 4.24283 37.8209 4.19216 37.8287C3.65867 37.9463 3.11698 37.8861 2.57893 37.9116C2.39654 37.9208 2.21415 37.9509 2.03724 37.9691C1.75545 37.9974 1.47092 38.0484 1.20646 37.8916C1.14018 37.8574 1.08371 37.8069 1.04238 37.7448C1.00105 37.6828 0.976233 37.6112 0.970264 37.5368C0.932094 37.2643 0.935784 36.9875 0.981207 36.7161C0.987446 36.658 0.973954 36.5996 0.942905 36.5501C0.910563 36.4933 0.890377 36.4305 0.883626 36.3655C0.876876 36.3005 0.883709 36.2348 0.903692 36.1726C0.950201 35.9364 0.982119 35.6975 1.01312 35.4594C1.01288 35.4124 1.02877 35.3668 1.05816 35.3301C1.08754 35.2934 1.12862 35.2679 1.17454 35.2579C1.43627 35.1749 1.68887 35.0646 1.94969 34.9779C2.06574 34.9381 2.18726 34.9166 2.30991 34.9141C3.50546 34.9068 4.70193 34.9086 5.8984 34.9004C6.06493 34.8901 6.23082 34.8713 6.39541 34.8439C6.48189 34.8317 6.56895 34.8241 6.65622 34.8211C6.99911 34.8211 7.34201 34.8302 7.6849 34.8211C7.99678 34.8101 8.30866 34.7773 8.62055 34.7518C9.44859 34.6815 10.2785 34.6031 11.1102 34.6542C11.8032 34.6971 12.4936 34.6825 13.1857 34.667C13.9372 34.6496 14.6886 34.6615 15.4401 34.6606C15.7684 34.6606 16.0967 34.6606 16.425 34.6606L19.138 34.687C20.3265 34.6998 21.5151 34.7126 22.7037 34.7253C23.2131 34.729 23.7229 34.729 24.233 34.7253C24.6488 34.7253 24.7911 34.7144 25.206 34.7007C25.9438 34.677 26.6788 34.7162 27.4139 34.7636C27.5734 34.7746 27.7349 34.7764 27.8954 34.7755C28.8575 34.7673 29.8205 34.7536 30.7835 34.7481C31.0525 34.7481 31.3224 34.7691 31.5915 34.77C31.7948 34.77 31.9982 34.7463 32.2016 34.7472C32.5709 34.7472 32.943 34.698 33.3077 34.8101C33.3862 34.8268 33.4667 34.832 33.5467 34.8256C34.8672 34.8256 36.1877 34.8241 37.5081 34.8211C37.646 34.8139 37.7833 34.799 37.9194 34.7764C38.0418 34.7579 38.1651 34.7457 38.2888 34.7399C41.1413 34.7399 43.993 34.7326 46.8455 34.7399C47.5383 34.7307 48.2309 34.7654 48.9193 34.8439C49.6124 34.9351 50.3009 34.9059 50.9912 34.9187C51.8229 34.9339 52.6543 34.9408 53.4854 34.9396C55.4479 34.9342 57.4101 34.9241 59.372 34.9095C59.568 34.9095 59.7641 34.8831 59.9611 34.8731C60.3104 34.8548 60.6596 34.8329 61.0089 34.8265C61.4539 34.8183 61.899 34.8265 62.344 34.8265C62.6358 34.8134 62.9281 34.837 63.214 34.8968C63.3 34.9121 63.3876 34.9173 63.4748 34.9123C68.5379 34.9123 73.6007 34.9123 78.6632 34.9123C78.8675 34.9123 79.0717 34.9223 79.276 34.9123C79.4201 34.9059 79.5633 34.874 79.7074 34.8576C79.8148 34.8407 79.9233 34.8307 80.032 34.8275C80.7178 34.822 81.3999 34.8275 82.0894 34.8174C82.5627 34.8092 83.036 34.7764 83.5093 34.7554C83.5457 34.7554 83.5822 34.7554 83.6187 34.7554C84.6328 34.7554 85.6469 34.7454 86.6609 34.7554C87.0694 34.7555 87.4774 34.7835 87.882 34.8393C88.8347 34.9697 89.796 35.0271 90.7574 35.0108C92.0195 35.0053 93.2816 35.0016 94.5438 35.0108C95.0453 35.0162 95.5469 35.0518 96.0485 35.0974C96.3558 35.1257 96.6595 35.1986 96.9659 35.2506C97.016 35.2588 97.0671 35.2606 97.1173 35.2679C97.3471 35.3008 97.5732 35.3336 97.8049 35.3692C97.9225 35.3874 97.9508 35.4759 97.9572 35.5771C97.9672 35.7449 97.9836 35.9127 97.9854 36.0796C97.9927 36.7653 97.9976 37.4511 98 38.1369C98 38.3704 97.9334 38.447 97.7064 38.4442C97.5404 38.4442 97.3753 38.4096 97.2094 38.3968C97.006 38.3804 96.8017 38.3649 96.5984 38.3612C96.3014 38.3446 96.0073 38.2938 95.722 38.2099C95.5059 38.1551 95.2824 38.1296 95.0617 38.0886C94.8411 38.0475 94.635 38.0083 94.4234 37.9673C94.3255 37.942 94.2258 37.9246 94.1252 37.9153C93.651 37.9025 93.1768 37.9153 92.7035 37.8861C92.3122 37.8642 91.9238 37.7949 91.5344 37.7557C91.3979 37.7325 91.2596 37.7227 91.1212 37.7265C89.8108 37.8387 88.4976 37.804 87.1844 37.7958C86.4995 37.7913 85.8165 37.7393 85.1298 37.7666C84.3546 37.7977 83.5859 37.6809 82.8125 37.7201C82.611 37.7311 82.4095 37.7657 82.2079 37.7894C82.1578 37.7949 82.1067 37.8031 82.0556 37.804C81.6398 37.804 81.2239 37.804 80.809 37.804C80.7296 37.7974 80.6509 37.784 80.5737 37.7639C80.4959 37.7451 80.417 37.7308 80.3375 37.7211C79.7776 37.6855 79.2177 37.6536 78.6577 37.6189C78.5849 37.614 78.5124 37.6046 78.4407 37.5906C78.1534 37.539 77.8603 37.5273 77.5698 37.556C77.1849 37.5894 76.7992 37.6104 76.4125 37.6189C75.465 37.6408 74.5166 37.6527 73.5682 37.6682C72.8104 37.6809 72.0525 37.7046 71.2938 37.701C70.7621 37.701 70.2305 37.6727 69.6997 37.6326C68.9009 37.5724 68.1029 37.5159 67.3004 37.5305C66.5271 37.5441 65.7501 37.5378 64.9804 37.545C63.9444 37.5551 62.9085 37.5706 61.8734 37.5833L61.868 37.5615ZM10.7554 35.5442L10.7034 35.578C10.6934 35.599 10.6697 35.6254 10.6752 35.64C10.6809 35.6512 10.6893 35.6608 10.6997 35.6679C10.71 35.6751 10.7219 35.6796 10.7344 35.681C10.7499 35.681 10.7736 35.6464 10.7755 35.6263C10.7735 35.598 10.7667 35.5703 10.7554 35.5442Z" fill="white"/>
<path d="M91.5699 26.8388C91.0082 26.8388 90.4464 26.8388 89.8856 26.8388C89.7552 26.8305 89.6254 26.814 89.4971 26.7896C89.4615 26.7841 89.426 26.7695 89.3904 26.7677C88.9472 26.7367 88.5049 26.6956 88.0617 26.6847C87.8664 26.6934 87.6724 26.7215 87.4826 26.7686C87.4619 26.7741 87.4425 26.7838 87.4256 26.7969C87.4087 26.8101 87.3946 26.8265 87.3841 26.8452C87.323 26.9847 87.271 27.127 87.22 27.2702C87.2026 27.3176 87.22 27.3805 87.189 27.417C86.9847 27.6906 86.9555 28.0298 86.8853 28.3453C86.7442 28.9202 86.5011 29.465 86.1676 29.954C86.0016 30.2112 85.8338 30.4674 85.6688 30.7246C85.5292 30.9425 85.3368 30.9781 85.1362 30.8213C85.0897 30.7848 85.045 30.751 84.9948 30.7173C84.796 30.5732 84.7541 30.4072 84.8781 30.1893C84.9857 29.9996 85.1088 29.8181 85.2228 29.6312C85.6267 28.9534 85.9169 28.2141 86.0819 27.4425C86.1867 26.9802 86.3217 26.5251 86.4357 26.0646C86.5269 25.7107 86.5944 25.3532 86.681 24.9994C86.7676 24.6456 86.8753 24.2972 86.9546 23.9416C87.0102 23.6862 87.0266 23.4218 87.0704 23.1637C87.0969 23.0077 87.1424 22.8554 87.1798 22.7013C87.2172 22.5472 87.2491 22.4195 87.2829 22.2782C87.4024 21.7775 87.4945 21.2677 87.6477 20.7771C87.7717 20.3795 87.8301 19.9701 87.9404 19.5724C88.0316 19.2496 88.1356 18.9341 88.2277 18.6103C88.2795 18.4373 88.3224 18.2616 88.3562 18.0842C88.4903 17.3437 88.7912 16.667 89.1369 16.0067C89.2582 15.7742 89.3858 15.5444 89.5016 15.31C89.6211 15.094 89.7571 14.8876 89.9084 14.6926C90.0971 14.4254 90.2613 14.1455 90.4282 13.8591C90.5039 13.7305 90.461 13.6466 90.3105 13.633C90.1886 13.6285 90.0665 13.6353 89.9458 13.653C89.8252 13.6772 89.7034 13.6951 89.581 13.7068C89.0639 13.7132 88.545 13.7123 88.0307 13.7068C87.9225 13.7025 87.8154 13.6835 87.7124 13.6503C87.3604 13.5482 87.0139 13.5026 86.6673 13.6731C86.6002 13.7002 86.528 13.7123 86.4558 13.7087C85.2812 13.7087 84.1066 13.7087 82.932 13.7087C82.7065 13.7087 82.4812 13.7105 82.2563 13.7141C82.2054 13.7141 82.1546 13.7196 82.1049 13.7305C81.9006 13.778 81.8514 13.8591 81.9015 14.0607L82.2189 15.3292C82.3192 15.7304 82.4198 16.1317 82.5207 16.5329C82.5326 16.5749 82.5472 16.616 82.5645 16.6561C82.6493 16.8658 82.6812 16.8886 82.8901 16.8284C83.3132 16.7071 83.8932 16.8777 84.1394 17.2844C84.2735 17.5087 84.4376 17.7185 84.5452 17.9547C84.6513 18.1559 84.6999 18.3824 84.6857 18.6094C84.6644 18.7449 84.6358 18.8792 84.6 19.0116C84.5274 19.3865 84.3197 19.7217 84.0163 19.9536C83.7858 20.1416 83.5388 20.3085 83.2786 20.4525C83.2077 20.4814 83.1482 20.5327 83.1092 20.5985C83.0702 20.6644 83.0538 20.7412 83.0624 20.8172C83.0734 21.306 83.0743 21.7948 83.0715 22.2836C83.0808 22.6482 83.0502 23.0127 82.9803 23.3707C82.932 23.5905 82.9165 23.8184 82.8891 24.0419C82.8005 24.7209 82.6497 25.3903 82.4387 26.0418C82.3475 26.3153 82.2371 26.5889 82.1715 26.8707C82.0128 27.5492 81.7301 28.1784 81.4246 28.7995C81.2686 29.1187 81.11 29.4378 80.8437 29.6923C80.7525 29.7762 80.6978 29.8929 80.6148 29.9841C80.4114 30.2112 80.2071 30.4401 79.991 30.6525C79.9111 30.7253 79.8183 30.7826 79.7174 30.8213C79.3526 30.9696 78.9879 31.1131 78.6231 31.2517C78.3608 31.3572 78.0895 31.4384 77.8124 31.4943C77.5971 31.5335 77.3737 31.5289 77.174 31.5855C76.9856 31.636 76.7908 31.6591 76.5958 31.6539C76.5523 31.6598 76.508 31.6558 76.4663 31.642C76.2739 31.5435 76.0669 31.5809 75.8645 31.5654C75.7504 31.5512 75.6372 31.5311 75.5252 31.5052C75.5042 31.5052 75.4842 31.4906 75.4623 31.4879C75.2042 31.4541 74.9452 31.424 74.6871 31.3857C74.5938 31.3685 74.5022 31.3429 74.4136 31.3091C74.1897 31.2457 73.9698 31.169 73.7551 31.0793C73.5463 30.9808 73.3593 30.8377 73.1587 30.7209C72.8769 30.5559 72.5888 30.4036 72.3097 30.2349C72.0282 30.0631 71.7809 29.8408 71.5802 29.5792C71.4643 29.4305 71.3586 29.2728 71.24 29.1232C71.0822 28.9271 70.9965 28.6973 70.8935 28.4712C70.7521 28.1611 70.6956 27.8328 70.6199 27.5082C70.5849 27.3827 70.5388 27.2607 70.4822 27.1434C70.3921 26.9428 70.3473 26.7249 70.3509 26.505C70.3509 26.2314 70.3509 25.9642 70.3509 25.6952C70.37 24.8982 70.2733 24.1084 70.215 23.316C70.1721 22.7424 70.1739 22.1642 70.1721 21.5887C70.1666 20.5236 70.1575 19.4575 70.1812 18.3969C70.1976 17.6537 70.2724 16.9123 70.3071 16.1691C70.3141 15.9002 70.3074 15.6311 70.287 15.3629C70.2496 14.6708 70.2195 13.9777 70.1603 13.2882C70.127 12.9038 70.0632 12.5227 69.9697 12.1483C69.9022 11.8839 69.7608 11.6385 69.6505 11.3859C69.5775 11.2191 69.4936 11.0567 69.5128 10.8643C69.5338 10.6454 69.6405 10.5351 69.8621 10.5287C70.059 10.5232 70.256 10.5287 70.453 10.5287C70.6126 10.5242 70.7731 10.4931 70.9318 10.5032C71.3671 10.5182 71.803 10.5054 72.2367 10.4649C72.5862 10.454 72.936 10.4622 73.2846 10.4895C73.4882 10.4991 73.6913 10.5192 73.8928 10.5497C73.9942 10.5703 74.0855 10.6248 74.1517 10.7042C74.218 10.7836 74.2554 10.8831 74.2576 10.9865C74.2631 11.0522 74.2576 11.1178 74.2576 11.1835C74.2576 12.1027 74.2631 13.0229 74.2576 13.9421C74.2576 14.2622 74.2175 14.5805 74.1974 14.9015C74.1874 15.0547 74.1783 15.207 74.1765 15.3574C74.1646 16.0286 74.1765 16.7007 74.1418 17.3701C74.0506 19.2524 74.0926 21.1346 74.0953 23.0159C74.0953 23.5841 74.1345 24.1531 74.1801 24.7204C74.2084 25.0651 74.2877 25.4061 74.337 25.749C74.3625 25.9314 74.3534 26.1138 74.4382 26.2816C74.4874 26.3783 74.523 26.4822 74.5668 26.5816C74.5948 26.6242 74.6192 26.669 74.6397 26.7157C74.7428 27.1005 75.01 27.3805 75.238 27.6915C75.4764 28.0036 75.7583 28.28 76.0751 28.5122C76.4483 28.7902 76.8584 29.0148 77.2935 29.1798C77.3848 29.2052 77.4796 29.2162 77.5744 29.2126C77.8789 29.2317 78.1844 29.2409 78.4863 29.2682C78.6545 29.2764 78.822 29.2419 78.9733 29.1679C79.2614 29.0463 79.5478 28.9195 79.8323 28.7876C80.237 28.6005 80.5637 28.2779 80.7561 27.8757C81.0771 27.2546 81.2814 26.599 81.4693 25.9314C81.5677 25.5831 81.6124 25.2201 81.6817 24.8635C81.7292 24.621 81.783 24.3802 81.8249 24.134C81.8669 23.8878 81.9161 23.6324 81.9343 23.3789C81.9674 22.8325 81.9368 22.284 81.8432 21.7447C81.7994 21.4438 81.7292 21.1455 81.6662 20.8464C81.6288 20.6695 81.5267 20.6048 81.3215 20.6412C81.0988 20.6797 80.871 20.6766 80.6494 20.6321C80.0922 20.5263 79.7284 19.9363 79.7046 19.5022C79.6907 19.092 79.7484 18.6825 79.8752 18.2921C79.8797 18.2707 79.8881 18.2503 79.8998 18.2319C80.1168 17.9702 80.3047 17.6802 80.6129 17.5023C80.7426 17.4368 80.8667 17.3608 80.9841 17.2753C81.1382 17.1531 81.1555 16.9771 81.1127 16.7965C81.0525 16.5411 80.9887 16.2858 80.923 16.0323C80.8063 15.5818 80.6868 15.1313 80.5683 14.6817C80.4296 14.1537 80.2792 13.6293 80.1561 13.0986C80.0061 12.475 79.8107 11.8633 79.5715 11.2683C79.4991 11.1028 79.4467 10.9292 79.4156 10.7512C79.3873 10.5415 79.4438 10.4776 79.6536 10.4776C80.1096 10.4776 80.5655 10.4193 81.0288 10.4849C81.5267 10.5629 82.0337 10.5629 82.5317 10.4849C82.5618 10.4798 82.5923 10.477 82.6229 10.4767C83.2065 10.4767 83.7929 10.4448 84.3729 10.4895C85.1535 10.5488 85.9323 10.5278 86.7129 10.5232C87.2519 10.5232 87.7918 10.4576 88.3289 10.4822C90.7711 10.5944 93.2151 10.5004 95.6573 10.536C95.8761 10.5453 96.0952 10.5432 96.3139 10.5296C96.5747 10.5068 96.8182 10.5834 97.0671 10.6272C97.2203 10.6536 97.2732 10.7321 97.2605 10.8944C97.2493 11.0254 97.2295 11.1555 97.2012 11.2838C97.1538 11.5109 97.0972 11.7398 97.0471 11.9641C97.0365 12.014 97.0301 12.0646 97.0279 12.1155C96.9112 14.1218 96.9522 16.1399 96.9595 18.1535C96.9668 20.167 96.9914 22.1943 96.9951 24.2151C96.9951 25.1772 96.9604 26.1384 96.955 27.1005C96.955 27.7051 96.9714 28.3107 96.9878 28.9153C96.9964 29.2986 97.1346 29.6676 97.3799 29.9622C97.445 30.0355 97.4938 30.1217 97.5232 30.2153C97.5526 30.3088 97.5619 30.4075 97.5504 30.5048C97.5441 30.5623 97.5504 30.6215 97.5504 30.6799C97.5504 30.907 97.5349 30.9188 97.3015 30.9416C97.2212 30.9498 97.141 30.9535 97.0607 30.9544L93.9784 30.9991C93.9346 30.9991 93.8908 30.9991 93.847 30.9991C93.599 30.9799 93.5479 30.9243 93.5488 30.6726C93.5488 30.3808 93.5488 30.089 93.5561 29.7971C93.5617 29.6811 93.5773 29.5658 93.6027 29.4524C93.6351 29.3473 93.6303 29.2343 93.589 29.1323C93.5662 29.0868 93.5549 29.0364 93.5561 28.9855C93.5634 28.6946 93.5744 28.4028 93.5871 28.1119C93.6026 27.7699 93.6273 27.4288 93.6364 27.0869C93.6364 26.878 93.6045 26.8461 93.3938 26.8443C93.0518 26.8443 92.708 26.8443 92.3651 26.8443H91.5772L91.5699 26.8388ZM92.4746 23.8896C92.74 23.8695 93.0309 23.8522 93.3209 23.8257C93.4786 23.8112 93.516 23.7637 93.5443 23.6087C93.5573 23.5301 93.5775 23.4529 93.6045 23.378C93.6576 23.2418 93.6746 23.0941 93.6537 22.9494C93.6452 22.8628 93.6467 22.7756 93.6583 22.6895C93.6729 22.5308 93.7057 22.373 93.7103 22.2143C93.7331 21.4501 93.7467 20.685 93.7686 19.9199C93.7759 19.6463 93.7841 19.3654 93.8115 19.09C93.9079 18.0287 93.9204 16.9615 93.8489 15.8982C93.8343 15.6584 93.8115 15.4185 93.7942 15.1787C93.7741 14.9051 93.7531 14.6315 93.7385 14.3507C93.7309 14.2574 93.7361 14.1635 93.754 14.0716C93.7996 13.8555 93.7121 13.6694 93.4996 13.6111C93.3375 13.5697 93.1721 13.5429 93.0053 13.5308C92.9249 13.5276 92.8449 13.5434 92.7717 13.5768C92.6986 13.6102 92.6342 13.6604 92.584 13.7232C92.498 13.8203 92.3952 13.901 92.2803 13.9613C92.0215 14.084 91.8009 14.2747 91.642 14.513C91.5216 14.6863 91.4113 14.8677 91.2836 15.0364C91.1408 15.2379 90.9841 15.4293 90.8148 15.6091C90.6329 15.7885 90.4863 16.0004 90.3826 16.2338C90.109 16.853 89.8354 17.4722 89.5618 18.0896C89.432 18.3815 89.3368 18.6876 89.2782 19.0016C89.2363 19.2232 89.1989 19.4466 89.146 19.6664C89.0229 20.1834 88.8989 20.7014 88.7621 21.2167C88.6006 21.8176 88.5797 22.4387 88.4885 23.0479C88.4786 23.135 88.4811 23.2231 88.4958 23.3096C88.5286 23.5531 88.6289 23.6598 88.8697 23.6962C89.0208 23.7179 89.173 23.731 89.3256 23.7355C89.8637 23.7573 90.4026 23.7701 90.9407 23.7957C91.4441 23.8294 91.9457 23.8613 92.4746 23.8932V23.8896Z" fill="white"/>
<path d="M44.4172 23.7183C44.4172 22.675 44.4263 21.6317 44.4126 20.5885C44.4062 20.1325 44.3515 19.6765 44.3214 19.2142C44.295 18.7773 44.295 18.3387 44.2494 17.9037C44.0816 16.2741 44.2065 14.638 44.1436 13.0066C44.1244 12.5123 44.0524 12.0208 44.005 11.5283C43.9875 11.3325 43.9814 11.1358 43.9867 10.9392C43.9922 10.7851 44.0679 10.7203 44.2229 10.7076C44.3095 10.6975 44.4007 10.6975 44.4919 10.6975C45.1996 10.6975 45.9073 10.6975 46.6149 10.6975C46.7374 10.6869 46.8592 10.6695 46.9797 10.6456C47.1163 10.6257 47.2539 10.6135 47.3919 10.6091C47.6327 10.6091 47.8734 10.62 48.1142 10.6237C48.3814 10.6282 48.4106 10.6565 48.396 10.9328C48.3859 11.1371 48.3695 11.3405 48.3577 11.5447C48.333 11.9661 48.3148 12.3892 48.2847 12.8105C48.2519 13.261 48.2345 13.7142 48.1625 14.1584C48.0549 14.8277 48.1005 15.4971 48.1014 16.1646C48.1014 16.5367 48.1315 16.9088 48.1251 17.2799C48.1187 17.6511 48.0841 18.0095 48.0613 18.3743C48.0476 18.5995 48.0321 18.8248 48.0184 19.0509C48.0102 19.2014 48.0841 19.2853 48.2218 19.3491C48.7689 19.6051 49.3128 19.8677 49.8532 20.1371C50.0704 20.2404 50.2782 20.3625 50.4743 20.5018C50.6568 20.6349 50.8206 20.7919 50.9613 20.9687C51.2713 21.3645 51.575 21.7676 51.8504 22.188C52.1411 22.6067 52.3973 23.0483 52.6164 23.5085C52.8326 23.9991 53.1454 24.4077 53.4846 24.8071C53.7016 25.0634 54.0035 25.1719 54.3108 25.274C54.4358 25.3142 54.5616 25.3525 54.6893 25.3798C54.8169 25.4072 54.8717 25.3689 54.8917 25.2284C54.8945 25.192 54.8945 25.1554 54.8917 25.119C54.8808 24.601 54.8799 24.083 54.8553 23.5687C54.8361 23.1693 54.7987 22.7689 54.7495 22.3722C54.6674 21.7019 54.703 21.0308 54.7093 20.3605C54.7148 19.8288 54.754 19.2972 54.7823 18.7655C54.8188 18.0961 54.8808 17.4268 54.8553 16.7592C54.827 16.016 54.7923 15.2728 54.7768 14.5295C54.7695 14.1875 54.8014 13.8456 54.8142 13.5036C54.8197 13.3659 54.8288 13.23 54.8224 13.0896C54.8087 12.7832 54.7887 12.4777 54.765 12.1776C54.7568 12.07 54.7267 11.9642 54.7084 11.8575C54.6943 11.7867 54.6843 11.7152 54.6783 11.6432C54.6828 11.4829 54.6785 11.3225 54.6656 11.1626C54.6163 10.8352 54.8361 10.6875 55.1033 10.6456C55.4834 10.5741 55.8692 10.5369 56.256 10.5343C56.9272 10.5489 57.5984 10.5343 58.2696 10.5343C58.6188 10.5343 58.7629 10.6638 58.7593 11.0195C58.7593 11.4937 58.7356 11.967 58.7192 12.4412C58.7119 12.6445 58.7018 12.8488 58.6854 13.0522C58.6653 13.3057 58.6343 13.5583 58.6115 13.8109C58.5988 13.9495 58.5887 14.0845 58.586 14.2258C58.586 14.4812 58.5906 14.7365 58.5805 14.9919C58.5732 15.1797 58.5441 15.3676 58.5258 15.5545C58.5149 15.6713 58.5003 15.7871 58.5003 15.9038C58.5003 17.4286 58.5003 18.9534 58.5003 20.4781C58.5098 20.6377 58.5284 20.7967 58.5559 20.9542C58.5659 21.0454 58.5787 21.1429 58.5805 21.2369C58.5805 21.5104 58.5742 21.7922 58.5878 22.0686C58.5997 22.3221 58.6343 22.5747 58.6581 22.8282C58.6653 22.9002 58.6708 22.9732 58.6717 23.0462C58.6799 23.856 58.6799 24.6658 58.6954 25.4756C58.7164 26.5325 58.7401 27.5904 58.7793 28.6473C58.8003 29.2145 58.8605 29.7799 58.8915 30.3472C58.8925 30.5219 58.8812 30.6965 58.8578 30.8697C58.8559 30.9144 58.8377 30.9568 58.8066 30.9889C58.7754 31.021 58.7336 31.0406 58.6891 31.0439C58.6095 31.0541 58.5294 31.0593 58.4492 31.0594C57.8008 31.0731 57.1515 31.084 56.5022 31.0986C56.4295 31.0933 56.3563 31.1007 56.2861 31.1205C56.0125 31.229 55.7243 31.1907 55.4416 31.1871C55.1389 31.1871 54.9857 31.0202 54.9574 30.7156C54.896 30.179 54.8783 29.6382 54.9045 29.0987C54.9164 28.9428 54.8653 28.7814 54.8726 28.6236C54.9018 27.998 54.9428 27.3724 54.8525 26.7468C54.8151 26.4878 54.7467 26.4222 54.4877 26.4213C54.4075 26.4213 54.3272 26.4349 54.2479 26.4285C54.1834 26.4306 54.1198 26.4132 54.0655 26.3784C53.9476 26.2802 53.8078 26.2117 53.6579 26.1787C53.2092 26.0574 52.8681 25.7829 52.5745 25.4364C52.4614 25.3032 52.3438 25.1728 52.2188 25.0506C52.1091 24.9338 52.0219 24.7978 51.9617 24.6493C51.7173 24.1368 51.471 23.6243 51.2093 23.1209C51.1164 22.9726 51.0085 22.8342 50.8874 22.7078C50.6567 22.426 50.4214 22.1479 50.1925 21.8643C50.1349 21.7984 50.0909 21.7219 50.063 21.639C50.0427 21.5649 50.0074 21.4957 49.9592 21.4358C49.911 21.3758 49.8511 21.3264 49.783 21.2907C49.5026 21.1217 49.2124 20.9694 48.9139 20.8347C48.7074 20.7679 48.4925 20.7301 48.2756 20.7225C48.1324 20.7079 48.0932 20.7535 48.085 20.8976C48.0613 21.2177 48.0403 21.536 48.0202 21.857C48.0202 21.8935 48.0202 21.9299 48.0202 21.9664C48.0403 22.3813 48.0759 22.7963 48.0768 23.2112C48.0823 25.2831 48.0823 27.3551 48.0768 29.427C48.0768 29.6003 48.0321 29.7736 48.0275 29.9468C48.0143 30.2009 48.017 30.4555 48.0357 30.7092C48.0604 30.9755 48.0275 31.0412 47.754 31.0457C47.4804 31.0503 47.2296 31.0822 46.9825 30.949C46.9136 30.9244 46.8399 30.916 46.7672 30.9244C46.1106 30.9244 45.454 30.9244 44.7974 30.9244C44.7108 30.9244 44.6242 30.9427 44.5375 30.9481C44.4726 30.9536 44.4073 30.9536 44.3424 30.9481C44.3166 30.9483 44.2912 30.943 44.2676 30.9326C44.2441 30.9222 44.223 30.9069 44.2058 30.8878C44.1885 30.8687 44.1756 30.8462 44.1677 30.8217C44.1598 30.7972 44.1572 30.7713 44.16 30.7457C44.16 30.68 44.1545 30.6144 44.1536 30.5487C44.1536 30.2861 44.1463 30.0234 44.1536 29.7608C44.1537 29.4773 44.1814 29.1944 44.2366 28.9163C44.3077 28.5999 44.2877 28.2634 44.3278 27.9387C44.4883 26.6748 44.4646 25.4063 44.4545 24.1377C44.4545 23.9991 44.44 23.8642 44.4327 23.7219L44.4172 23.7183Z" fill="white"/>
<path d="M31.8158 10.3429C32.0255 10.3502 32.2535 10.3812 32.466 10.2727C32.8892 10.2727 33.3114 10.2727 33.7336 10.2891C33.9297 10.2955 34.1248 10.3329 34.32 10.3557C34.3562 10.3569 34.3922 10.3615 34.4276 10.3694C35.0053 10.5403 35.5671 10.7612 36.1065 11.0296C36.5625 11.2704 37.023 11.5057 37.4744 11.7592C37.6852 11.8749 37.8825 12.0138 38.0626 12.1732C38.3772 12.4632 38.7347 12.7085 38.9928 13.0605C39.281 13.4536 39.5874 13.8338 39.8837 14.2205C39.9177 14.2588 39.9448 14.3026 39.964 14.35C40.1054 14.806 40.3607 15.2163 40.4783 15.6851C40.5555 15.9646 40.6164 16.2484 40.6607 16.535C40.6954 16.7922 40.7939 17.0402 40.8431 17.2956C40.9092 17.5922 40.96 17.892 40.9954 18.1938C41.0219 18.4474 41.0063 18.7045 41.0082 18.9599C41.0117 19.1723 41.0674 19.3806 41.1705 19.5663C41.1965 19.6229 41.2366 19.6719 41.2868 19.7086C41.3371 19.7453 41.396 19.7685 41.4578 19.7761C41.6149 19.7987 41.7702 19.8319 41.9229 19.8755C41.9914 19.8984 42.0528 19.9389 42.1007 19.9931C42.3191 20.2198 42.4924 20.4859 42.6114 20.7774C42.6603 20.9219 42.6761 21.0755 42.6579 21.227C42.6325 21.5924 42.5375 21.9496 42.3779 22.2793C42.3289 22.413 42.2445 22.5308 42.1336 22.6201C42.0228 22.7095 41.8897 22.7669 41.7487 22.7864C41.5277 22.8277 41.304 22.8527 41.0793 22.8612C40.8613 22.8612 40.7902 23.1758 40.8495 23.3819C40.8909 23.4972 40.9037 23.6208 40.8869 23.7421C40.8275 24.0354 40.8051 24.3351 40.8203 24.634C40.8267 24.9513 40.7291 25.2486 40.6753 25.555C40.6133 25.9034 40.4218 26.1879 40.2896 26.5007C40.2418 26.5909 40.1895 26.6786 40.1327 26.7634C40.0807 26.8546 40.0415 26.9585 39.9841 27.0479C39.8628 27.2376 39.7406 27.4282 39.6038 27.606C39.3302 27.958 39.0566 28.3018 38.7748 28.6493C38.7661 28.6607 38.7563 28.6714 38.7456 28.6812C38.3125 29.0906 37.9067 29.5302 37.4206 29.8831C37.2941 29.9798 37.1791 30.0905 37.0777 30.2132C36.9231 30.3883 36.7418 30.5379 36.5406 30.6564C36.3162 30.7923 36.1065 30.9556 35.8712 31.0677C35.5466 31.2218 35.2547 31.4617 34.8744 31.4836C34.8523 31.4849 34.8307 31.4915 34.8115 31.5027C34.4796 31.7143 34.1011 31.7763 33.7236 31.8456C33.6534 31.8584 33.5886 31.8994 33.5193 31.9186C33.3358 31.9704 33.1426 31.9776 32.9557 31.9395C32.5581 31.8648 32.1459 31.8684 31.741 31.8301C31.4236 31.7878 31.1187 31.6787 30.8464 31.51C30.6877 31.4188 30.5263 31.3377 30.3667 31.2519C30.3492 31.2388 30.3294 31.2289 30.3084 31.2228C29.8186 31.1936 29.4876 30.8388 29.09 30.6254C28.885 30.5317 28.689 30.4193 28.5045 30.2898C28.1038 29.9861 27.7251 29.6546 27.371 29.2976C27.0445 28.9493 26.6788 28.631 26.4207 28.2197C26.2894 28.01 26.1472 27.8103 26.0058 27.6051C25.8788 27.4369 25.7637 27.2602 25.6611 27.0762C25.4306 26.6143 25.2472 26.1303 25.1139 25.6316C24.9698 25.0215 24.8852 24.3987 24.8613 23.7722C24.8449 23.505 24.8048 23.0554 24.7601 22.7909C24.7398 22.7168 24.6939 22.6522 24.6306 22.6086C24.5601 22.5566 24.4756 22.527 24.388 22.5237C24.1445 22.5319 23.9366 22.4398 23.7223 22.3414C23.6222 22.3041 23.5326 22.2432 23.4611 22.1638C23.3897 22.0844 23.3385 21.9889 23.3119 21.8854C23.1879 21.3738 23.094 21.0391 23.1615 20.5083C23.1756 20.37 23.2249 20.2376 23.3047 20.1238C23.3845 20.01 23.4922 19.9185 23.6174 19.8581C23.9083 19.7077 24.2148 19.5845 24.4747 19.3794C24.5448 19.3435 24.623 19.3263 24.7017 19.3292C24.8704 19.3101 24.9297 19.2718 24.9352 19.1012C24.9498 18.6452 25.1094 18.2166 25.1805 17.7716C25.2443 17.3758 25.3155 16.9819 25.4878 16.6153C25.5049 16.5744 25.5109 16.5297 25.5052 16.4858C25.4632 16.1301 25.61 15.8146 25.7158 15.4918C25.807 15.2091 25.9283 14.9346 26.0131 14.65C26.0996 14.3943 26.2456 14.1627 26.439 13.9743C26.7974 13.5904 27.1394 13.2037 27.3236 12.6921C27.3847 12.5234 27.5579 12.3747 27.7139 12.2626C28.1698 11.9306 28.6477 11.6187 29.1219 11.3068C29.2208 11.2448 29.3312 11.2035 29.4466 11.1856C29.6905 11.1413 29.9257 11.0581 30.1433 10.9393C30.4616 10.7788 30.7817 10.622 31.0954 10.4514C31.3233 10.3329 31.565 10.3603 31.8158 10.3429ZM28.3085 23.5196H28.2975C28.3085 23.7166 28.3076 23.9145 28.334 24.1087C28.3814 24.4543 28.4434 24.7981 28.5027 25.1419C28.5118 25.1985 28.5355 25.2523 28.5501 25.3088C28.5709 25.3703 28.5847 25.4339 28.5912 25.4985C28.5976 25.8186 28.5912 26.1369 28.6778 26.4524C28.7644 26.7679 28.8173 27.1172 28.9696 27.4282C29.033 27.5819 29.086 27.7397 29.1283 27.9006C29.1839 28.0647 29.2396 28.2289 29.297 28.3912C29.3298 28.4869 29.3663 28.5809 29.4037 28.6748C29.4333 28.7639 29.4693 28.8507 29.5113 28.9347C29.7348 29.3194 30.0111 29.6708 30.3321 29.9789C30.3865 30.0374 30.4495 30.0872 30.519 30.1266C30.7525 30.2406 30.9367 30.4166 31.1346 30.5771C31.2259 30.6468 31.327 30.7027 31.4346 30.7431C31.5696 30.796 31.7127 30.8242 31.8486 30.8744C32.0428 30.9567 32.2499 31.0046 32.4605 31.0157C32.8974 31.023 33.3333 31.044 33.7692 31.0157C33.8626 31.0066 33.9545 30.9858 34.0428 30.9537C34.2251 30.8945 34.3948 30.8014 34.579 30.7713C34.7996 30.7217 35.0047 30.6187 35.1763 30.4713C35.304 30.3747 35.4307 30.2753 35.5502 30.1676C35.641 30.0946 35.7198 30.0079 35.7837 29.9105C35.9888 29.5512 36.1849 29.1873 36.3764 28.8161C36.4224 28.725 36.4491 28.6253 36.4548 28.5234C36.4726 28.3496 36.523 28.1806 36.6035 28.0255C36.6628 27.8923 36.7348 27.7656 36.7914 27.6324C36.8692 27.4597 36.9374 27.2829 36.9956 27.1026C37.0377 26.9486 37.0528 26.7885 37.0403 26.6293C37.034 26.3387 37.044 26.0479 37.0704 25.7584C37.0959 25.3726 37.1315 24.9878 37.1616 24.603C37.188 24.2765 37.2236 23.95 37.2373 23.6226C37.2501 23.3253 37.1206 22.8639 36.7394 22.8019C36.6956 22.7946 36.6527 22.7882 36.6099 22.78C36.4757 22.7636 36.348 22.7131 36.2389 22.6333C36.1299 22.5535 36.0431 22.447 35.987 22.324C35.935 22.2119 35.863 22.1079 35.8165 21.9939C35.7692 21.8811 35.7346 21.7633 35.7134 21.6428C35.6824 21.4413 35.6797 21.4185 35.6478 21.2169C35.6003 20.9777 35.6425 20.7294 35.7663 20.5193C35.936 20.2457 36.1311 19.9922 36.3226 19.7378C36.3729 19.6748 36.4414 19.629 36.5187 19.6064C36.7923 19.5344 37.0658 19.4751 37.3394 19.414C37.5027 19.3785 37.5647 19.3283 37.5455 19.1614C37.509 18.8596 37.4388 18.5623 37.4461 18.2495C37.4461 18.2103 37.4124 18.171 37.3951 18.1309C37.279 17.8318 37.2145 17.5151 37.2045 17.1943C37.1744 16.8186 37.1953 16.4383 37.1926 16.0608C37.1944 16.0025 37.1901 15.9441 37.1798 15.8866C37.1005 15.5218 37.0102 15.1571 36.9354 14.785C36.8567 14.4017 36.7199 14.0326 36.5296 13.6907C36.4198 13.4789 36.3406 13.2526 36.2943 13.0186C36.2851 12.9507 36.2573 12.8867 36.2141 12.8336C36.1708 12.7805 36.1137 12.7403 36.049 12.7176C35.9073 12.6592 35.7831 12.5649 35.6888 12.444C35.565 12.291 35.4332 12.1446 35.2939 12.0054C34.9593 11.6844 34.5845 11.4254 34.1148 11.3397C33.9507 11.3096 33.7865 11.2831 33.6269 11.2385C33.3042 11.1527 32.9701 11.1177 32.6365 11.1345C32.4186 11.1418 32.2006 11.1682 31.9818 11.1719C31.7913 11.1724 31.6072 11.2402 31.462 11.3634C31.3917 11.4269 31.312 11.4792 31.2258 11.5184C30.9093 11.6415 30.716 11.8978 30.5154 12.1486C30.4342 12.2498 30.3485 12.3474 30.2609 12.4431C30.2181 12.4915 30.1697 12.5343 30.1187 12.5781C29.7968 12.8754 29.6198 13.2721 29.4037 13.6405C29.3316 13.7663 29.2706 13.8981 29.2213 14.0345C29.0905 14.4134 29.0182 14.8101 29.007 15.2109C29.0109 15.3039 28.997 15.3967 28.966 15.4845C28.7861 15.8756 28.6913 16.3005 28.6878 16.7311C28.6878 16.8104 28.676 16.8907 28.6669 16.97C28.6468 17.1433 28.6121 17.3147 28.6058 17.488C28.5939 17.809 28.5976 18.1264 28.5966 18.451C28.5966 18.7136 28.5966 18.9763 28.5966 19.2389C28.5888 19.2965 28.6008 19.3551 28.6309 19.4049C28.6609 19.4546 28.7071 19.4926 28.7617 19.5125C28.955 19.5937 29.1429 19.6894 29.3298 19.7861C29.4885 19.8682 29.6855 19.9092 29.7539 20.1053C29.8656 20.3975 29.9615 20.6955 30.0412 20.9981C30.1077 21.2817 30.126 21.3929 30.0302 21.6811C29.982 21.8031 29.946 21.9296 29.9226 22.0587C29.8907 22.3103 29.7138 22.4298 29.5113 22.4882C29.1858 22.5794 28.8657 22.7107 28.5082 22.6788C28.3559 22.6642 28.3158 22.7171 28.3085 22.873C28.3012 23.029 28.3085 23.3664 28.3085 23.5196Z" fill="white"/>
<path d="M14.0966 21.0838C14.0966 21.7769 14.0966 22.47 14.0966 23.163C14.0968 24.0171 14.205 24.8677 14.4185 25.6946C14.4732 25.9052 14.5033 26.1223 14.5507 26.3329C14.5927 26.5245 14.6419 26.7141 14.6894 26.9047C14.7451 27.0834 14.7856 27.2664 14.8106 27.4519C14.8334 27.7966 14.9666 28.0976 15.118 28.3958C15.1636 28.487 15.232 28.5663 15.2776 28.6566C15.3135 28.717 15.3321 28.786 15.3314 28.8563C15.3253 28.8955 15.3307 28.9356 15.3468 28.9719C15.363 29.0081 15.3893 29.0389 15.4226 29.0606C15.7873 29.3296 16.1375 29.615 16.5169 29.8594C16.7094 29.9763 16.9239 30.0524 17.147 30.0829C17.5054 30.1367 17.8711 30.1467 18.2341 30.1658C18.5218 30.172 18.8051 30.0934 19.0484 29.9397C19.2614 29.7997 19.4893 29.6838 19.7278 29.5941C19.8374 29.5624 19.9391 29.5082 20.0266 29.4351C20.114 29.3619 20.1853 29.2713 20.2358 29.1691C20.4537 28.725 20.6589 28.2745 20.8623 27.824C20.8902 27.7346 20.9106 27.6431 20.9234 27.5504C20.9699 27.3607 21.0255 27.1728 21.0647 26.9813C21.0895 26.8679 21.0993 26.7517 21.0939 26.6357C21.0866 26.4834 21.0191 26.4469 20.8723 26.5044C20.7501 26.5518 20.6325 26.6111 20.5148 26.6685C20.1218 26.8619 19.7005 26.8692 19.2755 26.8564C19.085 26.8554 18.8979 26.8059 18.7318 26.7126C18.5657 26.6193 18.4261 26.4851 18.3262 26.3229C18.2218 26.1477 18.1402 25.9598 18.0836 25.7639C17.9277 25.2806 17.9851 24.7817 17.9979 24.2865C18.0924 24.0514 18.2027 23.8229 18.328 23.6026C18.4549 23.4349 18.6002 23.282 18.7612 23.1466C18.8655 23.0537 18.9999 23.0016 19.1396 22.9998C19.4223 22.9788 19.7041 22.9332 19.9877 22.9241C20.3635 22.9132 20.7319 22.9715 21.052 23.1886C21.2344 23.3117 21.4012 23.4512 21.569 23.5917C21.7061 23.7244 21.8061 23.8907 21.859 24.0741C21.9749 24.3878 22.0943 24.7015 22.2038 25.0179C22.2398 25.1206 22.2598 25.2283 22.263 25.3371C22.2819 25.6281 22.2798 25.9201 22.2567 26.2107C22.2065 26.6293 22.1235 27.0452 22.0341 27.4574C21.976 27.7055 21.9007 27.9492 21.8089 28.1869C21.7536 28.3445 21.6779 28.4941 21.5836 28.632C21.3803 28.9156 21.1559 29.1846 20.9407 29.4609C20.879 29.5327 20.8235 29.6096 20.7747 29.6907C20.6343 29.9597 20.41 30.1412 20.1701 30.3108C19.9285 30.4989 19.6771 30.6739 19.4169 30.8352C19.1627 30.9748 18.8966 31.0914 18.6217 31.1836C18.3535 31.2748 18.0635 31.2748 17.7845 31.3149C17.0796 31.4234 16.3755 31.4134 15.6688 31.3851C15.5455 31.3797 15.424 31.3535 15.3095 31.3076C15.0477 31.2036 14.7623 31.1325 14.5726 30.9C14.5414 30.8694 14.5037 30.8463 14.4623 30.8325C14.2452 30.7367 14.0227 30.6501 13.8102 30.5461C13.6817 30.4814 13.5731 30.3774 13.4455 30.3054C13.2329 30.1799 13.0141 30.0655 12.7898 29.9625C12.6154 29.8853 12.4701 29.7547 12.3748 29.5895C12.2779 29.4273 12.1658 29.2746 12.0402 29.1335C11.7214 28.7949 11.4204 28.44 11.1382 28.0702C10.9169 27.782 10.7449 27.459 10.6294 27.1145C10.5911 26.9914 10.5035 26.8838 10.4625 26.7616C10.3628 26.5039 10.2842 26.2385 10.2272 25.9682C10.1771 25.6773 10.0375 25.421 9.97644 25.1356C9.96276 25.0717 9.94269 25.0088 9.93175 24.945C9.8746 24.6003 9.81867 24.2558 9.76395 23.9117C9.75301 23.8397 9.75666 23.7658 9.74754 23.6938C9.72383 23.5114 9.69465 23.3345 9.66911 23.1548C9.65817 23.0764 9.6527 22.9961 9.63902 22.9168C9.6226 22.8174 9.59707 22.7189 9.58065 22.6195C9.5581 22.5058 9.54408 22.3906 9.5387 22.2748C9.53323 21.8298 9.5387 21.3847 9.53323 20.9397C9.5328 20.7504 9.52092 20.5613 9.49767 20.3734C9.41081 19.7377 9.41542 19.0928 9.51134 18.4583C9.52594 18.3671 9.52776 18.2696 9.5387 18.1756C9.5615 17.9732 9.58704 17.7707 9.60983 17.5683C9.62361 17.482 9.63153 17.3948 9.63355 17.3075C9.62534 16.9308 9.72474 16.5779 9.82961 16.2186C9.8787 16.0507 9.90928 15.8779 9.92081 15.7033C9.9513 15.4214 10.0303 15.1468 10.1543 14.8917C10.2819 14.6008 10.3522 14.2853 10.4643 13.9871C10.5838 13.6706 10.6631 13.3432 10.8364 13.0405C11.0377 12.6939 11.3062 12.3909 11.6261 12.1495C11.809 12.0045 11.9843 11.8502 12.1514 11.6872C12.3468 11.5 12.5796 11.3565 12.8345 11.2658C13.1128 11.1768 13.3746 11.0428 13.6096 10.8691C13.6504 10.8388 13.6974 10.8179 13.7473 10.808C13.9096 10.7734 14.0729 10.7433 14.237 10.7168C14.5377 10.6658 14.8274 10.5634 15.0933 10.4141C15.263 10.3229 15.4289 10.2417 15.6287 10.2609C15.6796 10.2673 15.7314 10.2636 15.7809 10.2499C16.1658 10.1232 16.5625 10.1952 16.9537 10.1797C17.0116 10.1831 17.0691 10.1923 17.1252 10.2071C17.2302 10.2334 17.3373 10.2505 17.4452 10.2581C17.8656 10.2536 18.255 10.3794 18.6517 10.4943C19.1077 10.6266 19.54 10.8126 19.9777 10.9859C20.4798 11.1698 20.9215 11.4885 21.2544 11.9069C21.4555 12.1918 21.631 12.4939 21.7788 12.8098C21.8916 13.0067 21.9656 13.2234 21.9967 13.4481C22.0037 13.4989 22.0204 13.5478 22.046 13.5922C22.2849 14.04 22.2676 14.5361 22.3123 15.0194C22.3798 15.7562 22.1718 16.4338 21.8454 17.0831C21.7633 17.2454 21.6858 17.4105 21.601 17.5719C21.5754 17.628 21.5375 17.6776 21.4901 17.7171C21.4428 17.7565 21.3872 17.7848 21.3274 17.7999C21.2371 17.827 21.154 17.8737 21.0839 17.9367C20.7902 18.1829 20.4246 18.2723 20.0808 18.4155C20.032 18.4289 19.9802 18.4264 19.933 18.4082C19.6971 18.3364 19.4619 18.261 19.2272 18.182C19.0059 18.1177 18.8054 17.9962 18.6461 17.8297C18.4868 17.6632 18.3742 17.4575 18.3198 17.2336C18.2256 16.9161 18.2253 16.5782 18.3189 16.2605C18.3246 16.247 18.3277 16.2324 18.328 16.2177C18.3061 15.8958 18.4703 15.6377 18.6454 15.3969C18.7506 15.2427 18.8897 15.1146 19.052 15.0223C19.2143 14.93 19.3956 14.876 19.5819 14.8644C20.0591 14.8326 20.5334 14.9589 20.9316 15.2237C20.9498 15.2355 20.969 15.2456 20.9881 15.2556C21.1623 15.3468 21.2371 15.3185 21.2407 15.1261C21.2471 14.7549 21.2927 14.3756 21.1614 14.0199C21.041 13.6934 20.8833 13.3815 20.7346 13.066C20.6763 12.9411 20.586 12.8307 20.5294 12.7012C20.3753 12.3611 20.0899 12.1696 19.778 11.999C19.6047 11.9067 19.4381 11.8025 19.2792 11.6872C19.0942 11.5433 18.8735 11.4528 18.6408 11.4254C18.3955 11.399 18.1511 11.3561 17.9067 11.316C17.6696 11.2717 17.4263 11.2736 17.1899 11.3215C17.0075 11.3616 16.8187 11.3889 16.6318 11.419C16.4527 11.4574 16.2873 11.5434 16.153 11.668C15.9706 11.8203 15.7773 11.9689 15.5967 12.124C15.5099 12.2012 15.4322 12.2881 15.3651 12.383C15.1627 12.6752 15.011 12.9996 14.9164 13.3423C14.822 13.6994 14.7571 14.0635 14.7222 14.4312C14.6802 14.7686 14.5991 15.1024 14.5243 15.4343C14.4128 15.8715 14.3237 16.3141 14.2571 16.7603C14.1566 17.6223 14.1097 18.4897 14.1167 19.3575C14.1167 19.9338 14.0975 20.5102 14.0856 21.0856L14.0966 21.0838Z" fill="white"/>
<path d="M6.11731 10.3118C5.93492 10.714 5.90756 11.1325 5.84373 11.552C5.77077 12.0481 5.69599 12.5442 5.62577 13.0412C5.60858 13.164 5.59823 13.2876 5.59477 13.4115C5.5592 14.577 5.53823 15.7433 5.48533 16.9088C5.4598 17.4788 5.47439 18.0451 5.50357 18.6132C5.51269 18.7298 5.51269 18.8468 5.50357 18.9634C5.49624 19.1607 5.53758 19.3567 5.62395 19.5343C5.64525 19.6131 5.69517 19.6812 5.76397 19.7252C5.83277 19.7692 5.91551 19.786 5.99602 19.7723C6.0941 19.757 6.19427 19.7619 6.29039 19.7867C6.38651 19.8115 6.47657 19.8556 6.55504 19.9164C6.62879 19.9633 6.70736 20.0021 6.78941 20.0322C7.25268 20.231 7.4834 20.5958 7.51897 21.0855C7.52852 21.2652 7.52487 21.4453 7.50802 21.6244C7.50319 21.8224 7.44318 22.0151 7.33475 22.1807C7.27166 22.2788 7.21995 22.3837 7.18063 22.4935C7.1168 22.6677 6.98183 22.7315 6.81586 22.7671C6.47388 22.8355 6.13281 22.9066 5.79175 22.9759C5.69234 22.9969 5.59294 23.0215 5.49263 23.037C5.46873 23.0372 5.44513 23.0423 5.42333 23.0521C5.40153 23.0619 5.38202 23.0761 5.36605 23.0939C5.35008 23.1117 5.338 23.1326 5.33059 23.1553C5.32317 23.178 5.32059 23.202 5.32301 23.2258C5.32301 23.3052 5.33122 23.3854 5.33942 23.4647C5.3604 23.6471 5.3914 23.8386 5.40599 24.0256C5.43518 24.425 5.45706 24.8254 5.48169 25.2248C5.48807 25.3342 5.49081 25.626 5.49993 25.7346C5.52455 26.0082 5.55099 26.2817 5.57744 26.5599C5.57744 26.61 5.58565 26.6611 5.59294 26.7122C5.67319 27.325 5.75983 27.9369 5.83278 28.5516C5.88021 28.9565 5.90574 29.3641 5.94495 29.7699C5.95954 29.9286 5.98873 30.0864 6.00332 30.245C6.02074 30.3823 6.02684 30.5208 6.02156 30.6591C6.00788 30.857 5.93036 30.9208 5.72335 30.9208C5.08499 30.9208 4.45393 30.9162 3.81921 30.9208C3.51645 30.9208 3.21733 30.9108 2.91274 30.9983C2.58718 31.0895 2.23699 31.1032 1.89684 31.1424C1.78788 31.151 1.67841 31.151 1.56945 31.1424C1.51876 31.1374 1.46847 31.1289 1.41898 31.1169C1.1381 31.063 1.06241 30.887 1.19738 30.5907C1.26578 30.4411 1.41807 30.3362 1.44178 30.1593C1.48099 29.8739 1.60319 29.6058 1.59499 29.3085C1.58344 28.8634 1.58344 28.4184 1.59499 27.9734C1.61505 27.0915 1.65062 26.0282 1.66977 25.1464C1.68253 24.5636 1.6798 23.98 1.68071 23.3963C1.68071 23.1592 1.657 23.1401 1.41716 23.1228C1.32596 23.1182 1.22839 23.1118 1.13446 23.0991C0.743233 23.0453 0.467826 22.7881 0.196068 22.5373C0.117445 22.4505 0.0705196 22.3396 0.0629239 22.2227C0.0282701 21.7877 0.00455971 21.5333 0 21.0964C0.0098761 20.9521 0.047009 20.811 0.109433 20.6806C0.169621 20.5246 0.25352 20.3787 0.328299 20.2246C0.360951 20.1432 0.415594 20.0724 0.486127 20.0203C0.556661 19.9681 0.640308 19.9365 0.72773 19.9291C0.933503 19.9142 1.12967 19.8362 1.28949 19.7057C1.3352 19.6641 1.38928 19.6327 1.4481 19.6137C1.50692 19.5947 1.56912 19.5884 1.63055 19.5954C1.66092 19.5974 1.69138 19.5974 1.72175 19.5954C1.99533 19.5954 2.01995 19.5662 2.02269 19.2917C2.02269 18.9634 2.02269 18.6351 2.02269 18.3077C2.03181 17.1112 2.04549 15.9157 2.05096 14.7192C2.05096 14.3845 2.05096 14.0471 2.01813 13.7161C1.99259 13.4343 1.92693 13.1571 1.88225 12.8771C1.85033 12.6683 1.82115 12.4585 1.80838 12.2488C1.78376 11.8484 1.77282 11.4472 1.75275 11.0468C1.74819 10.9602 1.72357 10.8745 1.71263 10.7878C1.69685 10.6947 1.68831 10.6005 1.68709 10.506C1.68709 10.3373 1.76005 10.2699 1.93058 10.2662C2.15583 10.2662 2.38655 10.2662 2.60816 10.2662C2.82976 10.2662 3.05866 10.2388 3.28391 10.2261C3.34184 10.2206 3.40015 10.2206 3.45809 10.2261C4.11195 10.3091 4.76855 10.2589 5.42423 10.2571C5.51701 10.249 5.60869 10.2312 5.69782 10.2042C5.77088 10.1819 5.84868 10.1801 5.92268 10.1991C5.99668 10.2181 6.06402 10.2571 6.11731 10.3118Z" fill="white"/>
<path d="M66.1211 18.5878C66.1394 18.8459 66.1576 19.0857 66.174 19.3256C66.1728 19.3475 66.1761 19.3695 66.1837 19.3901C66.1913 19.4107 66.2031 19.4295 66.2184 19.4454C66.2336 19.4612 66.2519 19.4737 66.2723 19.4821C66.2926 19.4906 66.3144 19.4947 66.3364 19.4943C66.3436 19.4947 66.351 19.4947 66.3582 19.4943C66.6619 19.4569 66.9264 19.5855 67.1972 19.6867C67.2515 19.7075 67.3025 19.7361 67.3486 19.7715C67.4699 19.8627 67.5857 19.9603 67.7061 20.0533C67.742 20.0782 67.7717 20.111 67.7928 20.1493C67.8138 20.1876 67.8257 20.2303 67.8274 20.274C67.8429 20.6743 67.8712 21.0747 67.8757 21.4759C67.88 21.5952 67.8595 21.7141 67.8155 21.825C67.7716 21.936 67.7051 22.0367 67.6204 22.1207C67.4281 22.308 67.2097 22.4665 66.972 22.5912C66.819 22.6802 66.6463 22.7297 66.4695 22.7353C66.3324 22.7505 66.1967 22.7764 66.0637 22.8128C66.0207 22.82 65.9817 22.8424 65.9538 22.8758C65.9258 22.9093 65.9108 22.9516 65.9114 22.9952C65.9033 23.0911 65.907 23.1875 65.9223 23.2825C66.029 23.7658 65.6579 24.1178 65.2949 24.2564C65.0128 24.3731 64.7231 24.4703 64.4277 24.5474C64.2061 24.5993 63.9717 24.6194 63.7464 24.499C63.6252 24.4343 63.4902 24.396 63.3643 24.3394C63.2409 24.2897 63.1404 24.1958 63.0825 24.0759C62.9827 23.8824 62.8935 23.6836 62.8153 23.4804C62.777 23.3406 62.7638 23.1952 62.7761 23.0509C62.7871 22.8238 62.7096 22.7244 62.477 22.7308C62.2299 22.7381 61.9827 22.7527 61.7356 22.7718C61.6153 22.7884 61.4927 22.7662 61.3858 22.7085C61.2789 22.6508 61.1932 22.5605 61.141 22.4508C61.089 22.355 61.0325 22.2611 60.9732 22.1699C60.8762 22.0319 60.8267 21.8661 60.8319 21.6975C60.8298 21.6245 60.8209 21.5519 60.8054 21.4805C60.7495 21.0752 60.7972 20.6623 60.944 20.2804C60.9874 20.1731 61.0578 20.0789 61.1483 20.0068C61.3391 19.8501 61.5602 19.7343 61.7976 19.6666C61.9871 19.6207 62.1809 19.5947 62.3758 19.5891C62.5582 19.5809 62.5892 19.5417 62.5883 19.3602C62.5874 19.1788 62.5773 18.9955 62.581 18.8131C62.5919 18.2723 62.8655 17.9923 63.3269 17.8209C63.5637 17.7487 63.8091 17.7091 64.0565 17.7032C64.3186 17.6891 64.5814 17.6891 64.8435 17.7032C65.2004 17.721 65.5464 17.8323 65.8466 18.0261C66.0646 18.1565 66.1813 18.3398 66.1211 18.5878Z" fill="white"/>
</svg>
