<svg width="151" height="40" viewBox="0 0 151 40" fill="none" xmlns="http://www.w3.org/2000/svg">
<path d="M27.5286 34.4406C31.1061 34.4557 34.6836 34.4709 38.2536 34.4785C39.7088 34.4785 41.1641 34.4254 42.6194 34.4936C43.6047 34.5391 44.5824 34.5315 45.5678 34.524C46.5607 34.5164 47.5536 34.4785 48.5465 34.5012C49.5621 34.524 50.5854 34.5012 51.601 34.4861C51.889 34.4785 52.1846 34.5164 52.4727 34.5315C52.7607 34.5467 53.0563 34.5694 53.3443 34.5694C55.0269 34.5694 56.7172 34.5694 58.3998 34.5694C59.0819 34.5694 59.7565 34.577 60.4311 34.4936C60.5372 34.4785 60.6509 34.4861 60.757 34.4861C65.1455 34.4861 69.534 34.4861 73.9225 34.4785C74.6426 34.4785 75.3475 34.524 76.0599 34.5998C76.9998 34.6983 77.9472 34.6755 78.8947 34.6755C82.2979 34.6831 85.7086 34.6755 89.1118 34.6604C90.3851 34.6528 91.6585 34.5922 92.9318 34.5694C93.8868 34.5543 94.8494 34.524 95.8045 34.5998C96.0849 34.6225 96.3578 34.6604 96.6382 34.6907C96.9868 34.721 97.3355 34.7665 97.6917 34.7665C99.7761 34.7665 101.86 34.7589 103.945 34.7438C104.187 34.7438 104.43 34.7134 104.672 34.6907C105.014 34.6528 105.347 34.6452 105.688 34.6528C109.955 34.6528 114.223 34.6528 118.49 34.6528C119.377 34.6528 120.263 34.6604 121.143 34.6528C121.529 34.6528 121.916 34.6073 122.302 34.5846C122.628 34.5694 122.954 34.5543 123.28 34.5543C124.94 34.5543 126.6 34.5315 128.26 34.4936C129.715 34.4557 131.17 34.4861 132.626 34.4861C133.004 34.4861 133.376 34.4861 133.755 34.5088C134.361 34.5391 134.968 34.5694 135.566 34.6149C136.787 34.7059 138.007 34.7513 139.235 34.7438C141.334 34.7362 143.426 34.7362 145.526 34.7438C146.511 34.7438 147.489 34.7968 148.467 34.8954C149.096 34.956 149.717 35.0242 150.346 35.0924C150.407 35.1 150.468 35.1 150.528 35.1152C150.634 35.1303 150.703 35.1985 150.718 35.3046C150.74 35.4335 150.763 35.5699 150.763 35.6988C150.771 36.4037 150.778 37.101 150.778 37.8059C150.778 38.0711 150.703 38.1469 150.43 38.1545C150.248 38.1621 150.066 38.1469 149.884 38.1394C149.581 38.1242 149.278 38.0939 148.974 38.0863C148.429 38.0787 147.891 38.0257 147.345 37.9499C146.746 37.8665 146.14 37.8134 145.541 37.7225C144.828 37.6088 144.116 37.6391 143.403 37.6315C142.494 37.6164 141.584 37.5406 140.682 37.48C140.402 37.4572 140.129 37.4496 139.849 37.4572C138.962 37.4724 138.083 37.5178 137.196 37.5178C135.278 37.5178 133.368 37.4951 131.451 37.48C131.17 37.48 130.89 37.4951 130.617 37.4875C130.132 37.48 129.647 37.4724 129.162 37.4648C128.472 37.4572 127.782 37.4421 127.092 37.4345C127.009 37.4345 126.926 37.4345 126.835 37.4421C125.903 37.5557 124.97 37.5027 124.038 37.5103C123.955 37.5103 123.864 37.5103 123.78 37.5027C123.181 37.4042 122.575 37.4269 121.969 37.389C121.256 37.3435 120.544 37.3056 119.824 37.2753C119.46 37.2601 119.096 37.2677 118.732 37.2829C117.315 37.3511 115.898 37.3511 114.48 37.3587C112.722 37.3738 110.963 37.4117 109.205 37.4117C108.091 37.4117 106.977 37.3435 105.862 37.3056C104.71 37.2677 103.558 37.2222 102.406 37.245C101.739 37.2601 101.072 37.2601 100.405 37.2601C98.5482 37.2677 96.6988 37.2829 94.8419 37.2829C91.6888 37.2829 88.5357 37.2753 85.3827 37.2601C84.5338 37.2601 83.6849 37.2526 82.836 37.3056C82.4873 37.3284 82.1311 37.298 81.7824 37.2905C81.3732 37.2829 80.9563 37.2601 80.547 37.2601C80.0468 37.2677 79.5541 37.3056 79.0538 37.245C78.8643 37.2222 78.6673 37.2374 78.4702 37.245C78.3338 37.2526 78.2807 37.3208 78.2807 37.4572C78.2807 37.6543 78.2883 37.8438 78.3035 38.0408C78.3186 38.2834 78.2353 38.488 78.0837 38.6699C77.9548 38.8139 77.8411 38.9731 77.735 39.1323C77.6137 39.3066 77.4697 39.4506 77.2802 39.5416C77.1059 39.6249 76.9316 39.7083 76.7497 39.7841C76.545 39.8675 76.3328 39.913 76.113 39.9054C75.7644 39.8978 75.4081 39.8826 75.0595 39.8751C74.7335 39.8675 74.4758 39.7235 74.2712 39.4809C74.1423 39.3218 74.0211 39.155 73.8922 38.9958C73.8013 38.8746 73.7634 38.7381 73.7634 38.5866C73.7634 38.3061 73.7634 38.0257 73.7558 37.7528C73.7406 37.2829 73.6876 37.2298 73.2176 37.245C72.6947 37.2601 72.1717 37.2753 71.6563 37.3056C71.0727 37.3435 70.4966 37.2753 69.913 37.2526C69.481 37.2374 69.0414 37.245 68.6018 37.245C68.0788 37.245 67.5558 37.2374 67.0404 37.2526C66.6159 37.2601 66.1915 37.298 65.7746 37.3208C65.3502 37.3435 64.9257 37.3966 64.5013 37.3966C62.7049 37.4042 60.9162 37.3966 59.1198 37.3814C57.1113 37.3738 55.0951 37.3511 53.0866 37.3359C52.6849 37.3359 52.2832 37.3359 51.889 37.3208C51.5404 37.3056 51.1917 37.2753 50.8355 37.2526C50.5929 37.2374 50.3504 37.2147 50.1079 37.2147C49.1604 37.2147 48.213 37.2222 47.2731 37.2298C44.7189 37.2601 42.157 37.2753 39.6027 37.3208C35.2369 37.3966 30.8788 37.4572 26.513 37.4345C24.9819 37.4269 23.4585 37.4269 21.9274 37.4345C19.9795 37.4421 18.024 37.4345 16.0761 37.5103C15.7047 37.5254 15.3257 37.5103 14.9467 37.48C14.4616 37.4421 13.9766 37.4496 13.4915 37.4496C11.4753 37.4648 9.46677 37.4799 7.45821 37.4951C6.92765 37.5027 6.38951 37.533 5.85895 37.5482C5.31323 37.5633 4.7675 37.5785 4.22178 37.5936C3.67606 37.6164 3.13034 37.6391 2.58462 37.6619C2.2587 37.677 1.93278 37.7149 1.60687 37.6315C1.56139 37.6164 1.50833 37.6164 1.46286 37.6012C1.12178 37.4951 1.00809 37.3663 0.977772 37.01C0.970193 36.9039 0.962613 36.7902 0.977772 36.6841C1.00809 36.487 1.03841 36.3127 0.909557 36.1308C0.86408 36.0702 0.886818 35.9413 0.909557 35.8504C0.955034 35.6381 1.01567 35.4259 1.06115 35.2137C1.09146 35.0621 1.19 34.9863 1.32643 34.956C1.78877 34.8499 2.24354 34.7362 2.71347 34.6528C2.92569 34.6149 3.1455 34.6225 3.3653 34.6149C4.50222 34.6073 5.64672 34.6073 6.78364 34.6073C7.85993 34.6073 8.94379 34.6225 10.0201 34.5164C10.2247 34.4936 10.4294 34.5164 10.6416 34.5164C11.589 34.524 12.5289 34.4936 13.4763 34.433C15.0604 34.3269 16.6521 34.3193 18.2362 34.3724C19.0321 34.3951 19.8355 34.3648 20.6389 34.3648C22.9279 34.3648 25.2245 34.3648 27.5135 34.3648C27.5286 34.433 27.5286 34.433 27.5286 34.4406Z" fill="white"/>
<path d="M150.202 30.6735C150.028 30.7493 149.861 30.7493 149.687 30.7569C148.694 30.7721 147.701 30.7796 146.708 30.7872C146.662 30.7872 146.609 30.7872 146.564 30.7872C146.344 30.7721 146.276 30.719 146.276 30.4992C146.276 30.0748 146.23 29.6503 146.321 29.2334C146.337 29.1728 146.344 29.1122 146.329 29.0515C146.215 28.6043 146.299 28.1572 146.314 27.7175C146.321 27.4523 146.344 27.187 146.344 26.9217C146.344 26.7322 146.299 26.6867 146.109 26.6792C146.026 26.6716 145.942 26.6716 145.851 26.6716C144.859 26.6716 143.866 26.6716 142.873 26.6564C142.63 26.6564 142.388 26.6185 142.153 26.5958C141.721 26.5655 141.281 26.5351 140.849 26.5048C140.811 26.5048 140.773 26.5048 140.743 26.5124C140.144 26.6109 140.22 26.5124 139.977 27.1112C139.811 27.5205 139.712 27.9373 139.598 28.3542C139.485 28.7938 139.295 29.1955 139.053 29.5821C138.871 29.8701 138.681 30.1506 138.499 30.4386C138.461 30.4992 138.416 30.5598 138.371 30.6129C138.272 30.719 138.136 30.7418 138.007 30.6811C137.984 30.6735 137.969 30.6584 137.946 30.6432C137.552 30.4083 137.506 30.2415 137.741 29.8474C137.787 29.7716 137.832 29.7034 137.878 29.6351C138.34 28.9151 138.651 28.1344 138.848 27.3007C139.098 26.2623 139.363 25.2315 139.614 24.2007C139.689 23.8748 139.742 23.5337 139.811 23.2002C139.833 23.0941 139.841 22.988 139.871 22.8818C140.068 22.0784 140.273 21.2826 140.462 20.4867C140.629 19.7667 140.819 19.0542 141.038 18.3493C141.069 18.2584 141.092 18.1598 141.107 18.0689C141.228 17.3564 141.493 16.697 141.827 16.0603C142.107 15.5146 142.388 14.9613 142.759 14.4611C142.911 14.2564 143.032 14.029 143.161 13.8092C143.244 13.6652 143.191 13.5667 143.032 13.5667C142.903 13.5667 142.767 13.5818 142.638 13.597C142.479 13.6122 142.327 13.6349 142.168 13.6349C141.865 13.6425 141.561 13.6349 141.258 13.6349C140.932 13.6425 140.606 13.6273 140.288 13.5288C140.053 13.453 139.803 13.453 139.576 13.5515C139.401 13.6273 139.227 13.6349 139.045 13.6273C137.832 13.6273 136.62 13.6273 135.407 13.6273C135.263 13.6273 135.111 13.6273 134.975 13.6425C134.763 13.6728 134.702 13.7637 134.732 13.9684C134.74 14.029 134.755 14.0897 134.77 14.1427C134.952 14.8704 135.134 15.598 135.324 16.3256C135.339 16.3862 135.354 16.4393 135.377 16.4999C135.468 16.7425 135.498 16.7501 135.748 16.7122C136.279 16.6212 136.703 16.7804 136.999 17.2427C137.112 17.4246 137.234 17.6065 137.34 17.8036C137.491 18.0916 137.56 18.3948 137.453 18.7131C137.423 18.8041 137.408 18.9026 137.385 18.9936C137.302 19.3195 137.127 19.5924 136.862 19.8046C136.665 19.9638 136.46 20.1229 136.233 20.2366C135.953 20.3806 135.869 20.5777 135.884 20.8809C135.907 21.3053 135.892 21.7298 135.9 22.1542C135.907 22.5332 135.862 22.9046 135.793 23.276C135.733 23.6474 135.687 24.0188 135.634 24.3902C135.543 24.9662 135.392 25.5271 135.202 26.0728C135.134 26.2774 135.058 26.4821 135.005 26.6943C134.808 27.4977 134.46 28.2481 134.073 28.9757C133.891 29.3244 133.618 29.6048 133.36 29.8928C132.656 30.6887 132.845 30.4992 131.989 30.8554C131.784 30.9388 131.579 31.0146 131.375 31.0904C131.079 31.2041 130.776 31.2875 130.465 31.3254C130.276 31.3481 130.086 31.3936 129.889 31.4239C129.662 31.4542 129.434 31.4845 129.207 31.4087C129.154 31.386 129.086 31.3784 129.025 31.3784C128.548 31.386 128.085 31.2647 127.623 31.1965C127.145 31.1207 126.691 30.954 126.274 30.6887C125.986 30.5068 125.69 30.34 125.394 30.1733C124.97 29.9383 124.637 29.62 124.341 29.241C123.939 28.7256 123.682 28.1496 123.545 27.5053C123.507 27.3386 123.462 27.1794 123.393 27.0202C123.287 26.7701 123.234 26.5124 123.249 26.2395C123.257 26.0576 123.249 25.8757 123.249 25.6938C123.265 24.9435 123.196 24.1931 123.136 23.4427C123.098 22.9501 123.075 22.4498 123.075 21.9572C123.075 20.6156 123.083 19.2664 123.098 17.9249C123.105 17.5232 123.143 17.129 123.166 16.7273C123.212 16.0982 123.204 15.4691 123.159 14.84C123.121 14.2488 123.083 13.6576 123.03 13.0664C122.999 12.7557 122.939 12.4449 122.871 12.1342C122.833 11.9598 122.749 11.7931 122.681 11.6263C122.62 11.4672 122.529 11.3232 122.476 11.164C122.438 11.0427 122.416 10.9063 122.423 10.7774C122.431 10.5955 122.522 10.5197 122.689 10.4894C122.734 10.4818 122.787 10.4743 122.833 10.4743C123.212 10.4667 123.583 10.4591 123.962 10.4515C124.28 10.4439 124.591 10.4364 124.909 10.4364C125.394 10.4364 125.88 10.4439 126.365 10.4515C126.509 10.4515 126.653 10.4818 126.797 10.5122C126.979 10.5576 127.092 10.6789 127.115 10.8684C127.13 10.9669 127.13 11.0579 127.13 11.1564C127.13 12.0281 127.13 12.8997 127.13 13.7713C127.13 13.9911 127.115 14.2109 127.107 14.4232C127.085 15.0144 127.062 15.6056 127.047 16.2043C127.016 17.076 126.986 17.9476 126.979 18.8193C126.963 20.2215 126.963 21.6312 126.979 23.0334C126.986 23.8293 127.07 24.6251 127.183 25.421C127.35 26.6261 127.971 27.5281 128.881 28.2784C129.207 28.5513 129.586 28.7559 129.972 28.9227C130.139 28.9985 130.314 29.0364 130.503 29.0364C130.761 29.0439 131.011 29.0515 131.269 29.0743C131.466 29.0894 131.655 29.0591 131.837 28.9833C132.087 28.8696 132.345 28.7559 132.603 28.6498C133.08 28.4452 133.421 28.0965 133.641 27.6266C133.99 26.8914 134.247 26.1183 134.406 25.3224C134.513 24.7994 134.596 24.2765 134.702 23.7535C134.816 23.1623 134.801 22.5711 134.732 21.9799C134.694 21.6085 134.604 21.2371 134.535 20.8733C134.528 20.8126 134.505 20.752 134.49 20.699C134.452 20.5777 134.361 20.5246 134.24 20.5322C134.096 20.5398 133.952 20.5549 133.808 20.5549C133.095 20.5398 132.58 20.0244 132.565 19.3119C132.565 19.1755 132.572 19.0466 132.58 18.9102C132.61 18.2053 132.966 17.7051 133.558 17.3564C133.997 17.0987 134.035 17.0153 133.914 16.5378C133.656 15.5298 133.383 14.5217 133.126 13.5136C132.966 12.877 132.815 12.2403 132.58 11.6263C132.527 11.4823 132.466 11.3307 132.413 11.1867C132.383 11.0958 132.345 11.0048 132.315 10.9139C132.193 10.4591 132.299 10.4439 132.663 10.4288C133.209 10.406 133.755 10.4136 134.293 10.4818C134.497 10.5046 134.71 10.5046 134.907 10.4818C135.612 10.3985 136.309 10.3985 137.014 10.4364C138.105 10.4894 139.197 10.4818 140.288 10.4515C140.917 10.4288 141.546 10.4667 142.175 10.4667C143.646 10.4743 145.109 10.4743 146.579 10.4818C147.125 10.4818 147.671 10.4894 148.216 10.4894C148.497 10.4894 148.777 10.4743 149.05 10.4894C149.3 10.5046 149.558 10.5425 149.8 10.588C149.944 10.6107 150.005 10.7016 149.99 10.8532C149.975 11.0124 149.96 11.1716 149.914 11.3156C149.77 11.8234 149.74 12.3388 149.717 12.8618C149.641 14.84 149.687 16.8107 149.694 18.7889C149.709 21.4645 149.755 24.1476 149.687 26.8232C149.671 27.4902 149.709 28.1572 149.725 28.8241C149.732 29.1501 149.853 29.4381 150.035 29.7034C150.27 30.052 150.293 30.1657 150.202 30.6735ZM146.177 23.6246C146.283 23.3442 146.382 23.0865 146.359 22.7985C146.352 22.6999 146.359 22.6014 146.367 22.5105C146.382 22.23 146.412 21.9571 146.42 21.6767C146.443 20.9112 146.465 20.1532 146.488 19.3877C146.496 19.2513 146.496 19.1224 146.511 18.986C146.587 18.1447 146.609 17.2958 146.587 16.4469C146.564 15.5904 146.405 14.7339 146.465 13.8774C146.481 13.7031 146.39 13.5743 146.208 13.5288C146.056 13.4833 145.897 13.4681 145.745 13.4454C145.579 13.4303 145.442 13.4833 145.321 13.6046C145.222 13.6955 145.124 13.7941 145.01 13.8471C144.692 14.0139 144.449 14.264 144.26 14.5672C144.04 14.9158 143.79 15.2417 143.502 15.5449C143.312 15.742 143.183 15.9694 143.07 16.2119C142.82 16.788 142.562 17.364 142.304 17.94C142.175 18.2281 142.084 18.5312 142.016 18.8344C141.887 19.4483 141.759 20.0699 141.592 20.6762C141.402 21.3584 141.319 22.0557 141.243 22.753C141.228 22.897 141.228 23.041 141.243 23.185C141.258 23.3594 141.357 23.4806 141.539 23.5109C141.728 23.5413 141.925 23.564 142.115 23.5716C142.964 23.6171 143.805 23.6474 144.654 23.7004C145.162 23.7307 145.654 23.708 146.177 23.6246Z" fill="white"/>
<path d="M47.8264 20.6232C47.8112 20.6914 47.7809 20.7748 47.7733 20.8506C47.743 21.3735 47.6899 21.8889 47.7506 22.4119C47.7809 22.662 47.7733 22.9197 47.7733 23.1775C47.7733 25.1178 47.7733 27.0581 47.7733 28.9909C47.7733 29.1955 47.7506 29.4002 47.7354 29.6048C47.7278 29.8474 47.7203 30.0899 47.7203 30.3325C47.7203 30.4158 47.7354 30.4992 47.7354 30.5826C47.7354 30.7418 47.6748 30.8176 47.5232 30.8251C47.2579 30.8403 46.9926 30.863 46.7349 30.7645C46.6212 30.7266 46.5 30.7114 46.3787 30.7039C45.7951 30.6963 45.2114 30.6963 44.6354 30.7039C44.4914 30.7039 44.3474 30.7266 44.2034 30.7342C43.9684 30.7418 43.885 30.6811 43.8775 30.4537C43.8623 29.8625 43.8471 29.2638 43.9608 28.6801C43.9987 28.4679 43.9987 28.2481 44.0215 28.0283C44.1806 26.7398 44.2185 25.4437 44.1731 24.1476C44.1276 22.988 44.1579 21.8207 44.1352 20.6611C44.1276 20.3351 44.1048 20.0092 44.0821 19.6833C44.0215 18.7131 43.9457 17.7506 43.9078 16.7804C43.8775 16.0755 43.885 15.3782 43.8775 14.6733C43.8699 14.2261 43.8699 13.7789 43.8699 13.3317C43.8699 12.7481 43.8017 12.1721 43.741 11.596C43.7183 11.3686 43.7031 11.1337 43.7107 10.9063C43.7107 10.7168 43.7865 10.6486 43.976 10.6334C44.0821 10.6259 44.1958 10.6259 44.3019 10.6259C44.7491 10.6259 45.1963 10.6259 45.6511 10.6259C46.0149 10.6259 46.3787 10.6107 46.7349 10.5728C47.1215 10.5349 47.508 10.5576 47.8946 10.5576C48.031 10.5576 48.0916 10.6259 48.0841 10.7699C48.0765 11.0958 48.0613 11.4217 48.0386 11.7476C48.0007 12.3161 47.9628 12.8845 47.9249 13.453C47.9097 13.6955 47.8794 13.9381 47.8415 14.173C47.743 14.8628 47.7657 15.5525 47.8036 16.2422C47.8491 17.0305 47.7885 17.8188 47.7354 18.5995C47.7051 19.1073 47.6975 19.0997 48.1447 19.3195C48.6146 19.5469 49.077 19.7743 49.5469 20.0017C50.0471 20.2366 50.464 20.5777 50.7975 21.0249C51.3811 21.8131 51.9496 22.6166 52.3589 23.5109C52.5559 23.9278 52.844 24.2992 53.1471 24.6403C53.2457 24.7464 53.3594 24.8374 53.4882 24.9056C53.7535 25.0496 54.0415 25.1481 54.3447 25.1936C54.4357 25.2087 54.5115 25.1481 54.519 25.0572C54.5266 25.0117 54.5266 24.9586 54.5266 24.9131C54.5266 24.0491 54.5039 23.1926 54.3978 22.3361C54.3295 21.798 54.3144 21.2523 54.3371 20.7065C54.3826 19.6378 54.4357 18.5767 54.4811 17.508C54.4963 17.1669 54.4963 16.8334 54.4811 16.4924C54.466 15.7875 54.4281 15.0902 54.4129 14.3853C54.4053 14.1655 54.4281 13.9532 54.4357 13.7334C54.466 13.0513 54.4508 12.3767 54.3295 11.7021C54.2916 11.4899 54.2992 11.2701 54.2992 11.0503C54.2992 10.785 54.3978 10.6486 54.663 10.5804C54.8525 10.5349 55.042 10.5046 55.2391 10.4894C55.4437 10.4667 55.6484 10.4591 55.853 10.4591C56.4821 10.4591 57.1112 10.4591 57.7403 10.4591C57.8237 10.4591 57.907 10.4591 57.998 10.4667C58.233 10.4894 58.3391 10.6031 58.3694 10.8381C58.377 10.9063 58.377 10.9821 58.377 11.0579C58.3391 11.8537 58.2936 12.6572 58.2557 13.453C58.2405 13.6955 58.2254 13.9381 58.2102 14.1806C58.1875 14.5823 58.1723 14.9765 58.1572 15.3782C58.142 15.6814 58.1193 15.9845 58.1193 16.2877C58.1117 17.5232 58.1193 18.7586 58.1193 19.9941C58.1193 20.1987 58.142 20.4034 58.1496 20.608C58.1648 20.8733 58.1799 21.1386 58.1951 21.4039C58.2102 21.6691 58.2027 21.942 58.233 22.1997C58.3088 22.7909 58.2936 23.3821 58.3012 23.9809C58.3315 25.474 58.3542 26.9596 58.3921 28.4528C58.4073 28.9378 58.4679 29.4229 58.4907 29.9004C58.5058 30.143 58.4907 30.3855 58.4679 30.6205C58.4528 30.7797 58.3921 30.8251 58.2254 30.8403C58.142 30.8479 58.0586 30.8479 57.9677 30.8479C57.4371 30.863 56.899 30.8706 56.3684 30.8858C56.1486 30.8933 55.9364 30.9161 55.7166 30.954C55.4816 30.9919 55.2315 30.9843 54.9965 30.9691C54.7616 30.954 54.6327 30.8176 54.5948 30.5674C54.5569 30.2946 54.5266 30.0141 54.5266 29.7337C54.519 29.0894 54.5266 28.4528 54.5266 27.8085C54.5266 27.5205 54.5266 27.2249 54.519 26.9369C54.519 26.8308 54.5039 26.7171 54.4887 26.6109C54.4357 26.3002 54.3826 26.2471 54.0643 26.2547C53.8899 26.2547 53.7308 26.2244 53.5868 26.1259C53.4958 26.0652 53.3897 26.0273 53.2836 25.997C52.9122 25.8909 52.609 25.6787 52.3437 25.3982C52.177 25.2239 52.0102 25.0496 51.8586 24.8601C51.7601 24.7388 51.6767 24.6024 51.6085 24.466C51.3887 24.0339 51.1841 23.5943 50.9643 23.1623C50.8657 22.9728 50.7369 22.7909 50.608 22.6166C50.411 22.3589 50.1912 22.1163 49.9789 21.8586C49.8728 21.7298 49.7667 21.6009 49.7061 21.4342C49.6758 21.3508 49.6075 21.2523 49.5393 21.2068C49.1452 20.9491 48.7359 20.699 48.266 20.608C48.1371 20.5853 47.9931 20.5625 47.8264 20.6232Z" fill="white"/>
<path d="M31.7125 10.2849C31.8414 10.2698 32.046 10.2394 32.2507 10.2091C32.3113 10.2016 32.3719 10.194 32.4326 10.194C32.9556 10.2015 33.4786 10.1712 33.994 10.2622C34.1455 10.2925 34.3047 10.3077 34.4563 10.3607C34.9187 10.535 35.3886 10.7094 35.8358 10.9216C36.3209 11.149 36.7908 11.3991 37.2455 11.672C37.8595 12.0434 38.4052 12.5057 38.8448 13.0817C39.0722 13.3773 39.3072 13.6729 39.5345 13.9761C39.5952 14.0519 39.6634 14.1277 39.7013 14.2111C39.9059 14.7568 40.194 15.2646 40.3077 15.8407C40.4213 16.4091 40.5502 16.9776 40.6715 17.5461C40.7473 17.8947 40.77 18.2434 40.7624 18.592C40.7624 18.736 40.7624 18.8876 40.7927 19.024C40.8231 19.1605 40.8761 19.2969 40.9367 19.4333C40.9822 19.5394 41.0808 19.6001 41.1869 19.6304C41.2551 19.6456 41.3309 19.6607 41.3991 19.6683C41.6871 19.6986 41.8918 19.8578 42.0433 20.0928C42.0964 20.1761 42.1495 20.2519 42.2025 20.3353C42.3844 20.6157 42.4375 20.9113 42.3844 21.2373C42.3314 21.5632 42.2404 21.8739 42.104 22.1695C41.9827 22.4272 41.7781 22.5864 41.4976 22.6319C41.3081 22.6622 41.1111 22.6849 40.9216 22.7001C40.7018 22.7228 40.5957 22.8289 40.5881 23.0487C40.5881 23.117 40.6032 23.1928 40.6184 23.261C40.6563 23.405 40.6487 23.549 40.626 23.693C40.6032 23.8749 40.5729 24.0568 40.5805 24.2311C40.5957 25.0194 40.3607 25.7319 39.9969 26.414C39.6028 27.1568 39.0874 27.8162 38.5341 28.4453C38.1627 28.8622 37.7231 29.2108 37.3138 29.5898C37.2077 29.6884 37.0788 29.7642 36.9878 29.8778C36.6695 30.2568 36.2526 30.5069 35.8433 30.7571C35.6235 30.8935 35.4037 31.0223 35.1688 31.1133C34.7519 31.28 34.3275 31.4165 33.903 31.5529C33.7211 31.6135 33.524 31.6439 33.3421 31.6893C33.1602 31.7348 32.9859 31.7424 32.804 31.7197C32.4553 31.6818 32.1067 31.6514 31.758 31.6287C31.3866 31.5984 31.0455 31.5074 30.7196 31.3255C30.5756 31.2421 30.424 31.1588 30.2724 31.083C30.1966 31.0451 30.1208 31.0072 30.0375 30.9996C29.8025 30.9617 29.6054 30.848 29.4084 30.7267C29.1583 30.5752 28.9081 30.4311 28.658 30.2796C28.4837 30.1734 28.3094 30.0597 28.1502 29.9309C27.5741 29.4837 27.0663 28.9607 26.5737 28.4226C26.4524 28.2862 26.3539 28.1346 26.2477 27.9906C26.1265 27.8238 26.0204 27.6419 25.8991 27.4827C25.3609 26.7703 25.0729 25.9517 24.891 25.0952C24.7925 24.6177 24.7394 24.1402 24.7167 23.6551C24.7015 23.3671 24.6712 23.0715 24.6409 22.7835C24.603 22.503 24.512 22.3969 24.224 22.3666C23.9739 22.3439 23.7541 22.2681 23.5343 22.1544C23.3903 22.0786 23.2614 21.9725 23.216 21.8209C23.0719 21.3434 22.9507 20.8659 23.0265 20.358C23.0719 20.0624 23.2235 19.8426 23.4888 19.7062C23.7693 19.5546 24.0345 19.3954 24.315 19.2514C24.3984 19.206 24.4969 19.1984 24.5954 19.1756C24.7167 19.1453 24.7849 19.0771 24.7925 18.9483C24.838 18.3267 25.0426 17.7431 25.126 17.1292C25.1411 17.0458 25.1563 16.9624 25.1866 16.8866C25.2851 16.6138 25.3761 16.3409 25.3685 16.0453C25.3685 15.9771 25.3913 15.9013 25.414 15.8331C25.5732 15.3632 25.7399 14.8932 25.9067 14.4309C25.9749 14.2338 26.1037 14.0671 26.2402 13.9155C26.3766 13.7639 26.5206 13.6123 26.6495 13.4531C26.8389 13.2333 27.0057 12.9908 27.1118 12.7179C27.1952 12.4905 27.3392 12.3162 27.5287 12.1874C27.991 11.869 28.4458 11.5583 28.9157 11.2475C29.0218 11.1793 29.1583 11.1262 29.2795 11.1035C29.5524 11.0429 29.8101 10.9443 30.0602 10.8079C30.2497 10.7094 30.4543 10.6184 30.6438 10.5123C30.9394 10.3228 31.2729 10.2319 31.7125 10.2849ZM28.1881 22.5561C28.1653 22.6091 28.135 22.6546 28.135 22.7001C28.1274 23.1473 28.1123 23.5945 28.1653 24.0417C28.2487 24.6783 28.4458 25.2923 28.4382 25.9441C28.4382 26.0881 28.4913 26.2321 28.5216 26.3685C28.6656 27.0355 28.946 27.6571 29.1507 28.3013C29.3402 28.9001 29.7267 29.3624 30.1587 29.7869C30.2118 29.8399 30.2724 29.8778 30.3331 29.9157C30.4998 30.037 30.6666 30.1583 30.8333 30.272C30.9697 30.3629 31.1138 30.469 31.2653 30.5297C31.6974 30.6964 32.137 30.8253 32.6069 30.8025C32.7661 30.795 32.9253 30.8025 33.0768 30.8101C33.6453 30.8556 34.138 30.6055 34.6534 30.4387C34.8656 30.2796 35.093 30.1355 35.29 29.9612C35.4189 29.8551 35.525 29.7111 35.6084 29.5747C35.7751 29.2942 35.9267 29.0062 36.0783 28.7106C36.1314 28.6045 36.1844 28.4908 36.1996 28.3695C36.2375 28.127 36.3209 27.8996 36.427 27.6798C36.4952 27.5358 36.5634 27.3994 36.624 27.2478C36.7453 26.9673 36.8059 26.6793 36.7908 26.3685C36.7832 26.1412 36.7984 25.9062 36.8135 25.6788C36.8666 25.0042 36.9272 24.3297 36.9803 23.6475C36.9878 23.5414 36.9954 23.4277 36.9878 23.3216C36.9575 22.8896 36.7832 22.7001 36.3587 22.6091C36.3209 22.6016 36.2905 22.594 36.2526 22.5864C36.0556 22.5258 35.9116 22.4121 35.7979 22.2453C35.5174 21.8133 35.4189 21.3358 35.3962 20.828C35.3886 20.6385 35.4568 20.4717 35.5553 20.3126C35.6918 20.1079 35.8358 19.9184 35.9722 19.7214C36.0859 19.547 36.2375 19.4485 36.4421 19.4106C36.6695 19.3651 36.8893 19.3121 37.1167 19.2514C37.2531 19.2135 37.2986 19.1529 37.291 19.0165C37.291 18.9558 37.2834 18.8952 37.2759 18.8346C37.2077 18.4328 37.2001 18.016 37.0409 17.6294C37.003 17.5461 36.9954 17.4399 36.9878 17.3414C36.9651 16.9321 36.9575 16.5228 36.9424 16.106C36.9348 15.9468 36.9424 15.7876 36.912 15.636C36.8438 15.2798 36.7529 14.9236 36.6771 14.5749C36.6089 14.2641 36.5028 13.9685 36.3512 13.6881C36.2223 13.4531 36.1162 13.2106 36.0631 12.9453C36.0328 12.771 35.9419 12.6573 35.7827 12.5891C35.6235 12.5209 35.5098 12.3996 35.3962 12.2707C35.2673 12.1267 35.1385 11.9827 35.002 11.8463C34.6609 11.5204 34.2668 11.293 33.7969 11.2172C33.6301 11.1869 33.4634 11.149 33.2966 11.1111C33.0617 11.0504 32.8191 11.0277 32.5766 11.0353C32.3492 11.0429 32.1142 11.0504 31.8869 11.058C31.6367 11.0656 31.4094 11.1187 31.2123 11.293C31.1592 11.3385 31.091 11.3764 31.0304 11.4067C30.7878 11.5128 30.6135 11.6871 30.4392 11.8842C30.2497 12.104 30.0526 12.3162 29.8556 12.5284C29.8025 12.5891 29.7419 12.6497 29.6888 12.7179C29.2113 13.4077 28.8323 14.1277 28.8172 14.9918C28.8172 15.1737 28.7641 15.348 28.7035 15.5223C28.6277 15.7421 28.5671 15.9619 28.5292 16.1893C28.4761 16.5759 28.4306 16.9549 28.4155 17.3414C28.3927 17.8947 28.4079 18.4556 28.4003 19.0089C28.4003 19.1908 28.4609 19.3045 28.6277 19.3803C28.8248 19.4637 29.0142 19.5773 29.2189 19.6607C29.4311 19.7441 29.5524 19.8881 29.613 20.1003C29.6661 20.2974 29.7343 20.4945 29.7949 20.6915C29.901 21.0023 29.9162 21.3055 29.7874 21.6162C29.7495 21.7072 29.7343 21.8057 29.7116 21.8967C29.6737 22.0937 29.5524 22.2226 29.3705 22.2832C29.0521 22.3893 28.7262 22.4954 28.3852 22.5106C28.3321 22.5333 28.2639 22.5485 28.1881 22.5561Z" fill="white"/>
<path d="M67.98 18.6299C67.9952 18.5466 68.0103 18.4783 68.0255 18.4101C68.071 18.1752 68.1088 17.9326 68.1543 17.6977C68.1998 17.4475 68.2529 17.1974 68.3059 16.9473C68.3438 16.7805 68.3741 16.6138 68.4196 16.4546C68.503 16.1666 68.6243 15.8862 68.6015 15.5754C68.5939 15.4693 68.6394 15.3632 68.6773 15.2571C68.8213 14.8326 68.9729 14.4082 69.1245 13.9913C69.2003 13.7715 69.3367 13.582 69.4959 13.4153C69.6475 13.2561 69.7915 13.0969 69.9279 12.9226C70.1098 12.7104 70.2614 12.4754 70.36 12.2101C70.4357 11.9979 70.5798 11.8312 70.7617 11.7099C71.2316 11.384 71.7015 11.0656 72.1714 10.7473C72.2472 10.6942 72.3458 10.6488 72.4367 10.6336C72.8157 10.5654 73.1492 10.4062 73.4827 10.2243C73.657 10.1334 73.8313 10.0576 73.9981 9.95903C74.2103 9.83018 74.4453 9.77712 74.6878 9.76954C74.991 9.76197 75.2942 9.79228 75.5898 9.69375C76.4614 9.68617 77.3331 9.68617 78.1668 10.0197C79.0309 10.3683 79.8722 10.7928 80.6604 11.2779C81.2213 11.6265 81.7291 12.0737 82.1233 12.6194C82.1915 12.718 82.2673 12.8165 82.3431 12.9074C82.6993 13.3395 83.0101 13.7867 83.2071 14.3248C83.3966 14.8402 83.5634 15.348 83.6543 15.8938C83.6771 16.0378 83.715 16.1742 83.7529 16.3182C83.912 16.9321 84.0333 17.5461 84.003 18.1827C83.9954 18.4177 84.0257 18.6375 84.1318 18.8573C84.2076 19.0089 84.3062 19.115 84.4805 19.1378C84.526 19.1453 84.5714 19.1605 84.6245 19.1681C84.9504 19.1832 85.1551 19.3803 85.3218 19.6304C85.4052 19.7593 85.4886 19.8957 85.5568 20.0397C85.6326 20.1913 85.6705 20.3581 85.6553 20.5324C85.625 20.9189 85.534 21.2979 85.3597 21.6541C85.2384 21.9118 85.049 22.0862 84.7609 22.1241C84.5714 22.1544 84.3744 22.1771 84.1849 22.1999C83.9348 22.2302 83.8438 22.3287 83.8362 22.5713C83.8362 22.6167 83.8438 22.6698 83.8514 22.7153C83.8969 22.8972 83.8741 23.0715 83.859 23.2534C83.8362 23.4808 83.8211 23.7082 83.8135 23.9431C83.7832 24.4813 83.6922 24.9967 83.4497 25.4894C83.1465 26.1109 82.7903 26.6945 82.3658 27.2478C81.7974 27.9754 81.1531 28.6348 80.4255 29.2033C80.3497 29.2639 80.2739 29.3246 80.2133 29.4004C79.8949 29.7945 79.4553 30.037 79.0309 30.2947C78.8338 30.416 78.6367 30.5373 78.4245 30.6207C78.0076 30.7798 77.5832 30.9238 77.1587 31.0603C76.9617 31.1209 76.757 31.1588 76.5599 31.2119C76.3856 31.2573 76.2037 31.2649 76.0218 31.2422C75.6883 31.1967 75.3472 31.1664 75.0062 31.1436C74.6348 31.1209 74.2937 31.0299 73.9678 30.848C73.6798 30.6889 73.4069 30.5221 73.0734 30.4615C72.9445 30.4387 72.8309 30.3554 72.7172 30.2872C72.414 30.1128 72.1108 29.9309 71.8152 29.749C71.6485 29.6505 71.4969 29.5292 71.3377 29.4155C70.7844 28.9835 70.2917 28.4757 69.8218 27.9603C69.7005 27.8238 69.5944 27.6722 69.4959 27.5282C69.3822 27.3691 69.2837 27.2023 69.17 27.0507C68.556 26.2397 68.2301 25.3074 68.0785 24.3145C68.0103 23.8598 67.9876 23.3974 67.9345 22.9427C67.9118 22.7229 67.8966 22.5106 67.8663 22.2908C67.8284 22.018 67.745 21.927 67.4722 21.9043C67.2296 21.8815 67.0022 21.7982 66.7824 21.6996C66.593 21.6087 66.4717 21.4647 66.4186 21.2752C66.3049 20.8659 66.2216 20.449 66.2519 20.0246C66.2746 19.6532 66.4414 19.3879 66.7749 19.2211C67.0326 19.0923 67.2827 18.9407 67.5404 18.8043C67.6162 18.7664 67.6996 18.7512 67.7754 18.7285C67.8436 18.6754 67.9042 18.6527 67.98 18.6299ZM71.4135 22.071C71.3983 22.1771 71.3756 22.2832 71.3756 22.3894C71.3377 23.117 71.4438 23.837 71.5954 24.5495C71.6257 24.7011 71.656 24.8603 71.6636 25.0118C71.6788 25.3302 71.7091 25.6409 71.7925 25.9441C71.9895 26.6793 72.27 27.3918 72.5277 28.1118C72.558 28.1876 72.6035 28.2634 72.6414 28.3392C73.0355 29.0669 73.7025 29.514 74.3619 29.9764C74.3695 29.984 74.3846 29.9916 74.3922 29.9916C74.7333 30.1204 75.0668 30.272 75.4306 30.2947C75.8778 30.3251 76.325 30.3099 76.7722 30.3099C76.9162 30.3099 77.856 29.9991 77.9773 29.9158C78.1592 29.7945 78.326 29.6581 78.5003 29.5216C78.667 29.3928 78.7959 29.2336 78.8944 29.0517C79.0384 28.7864 79.19 28.5211 79.3265 28.2483C79.3871 28.127 79.4477 28.0057 79.4629 27.8769C79.4932 27.604 79.6069 27.3691 79.7206 27.1265C79.7964 26.9598 79.8722 26.793 79.9404 26.6263C80.0314 26.3989 80.0692 26.1639 80.0692 25.9138C80.0617 25.6713 80.0692 25.4287 80.0844 25.1862C80.1223 24.6935 80.1678 24.1933 80.2057 23.7006C80.2284 23.4202 80.2512 23.1473 80.2512 22.8669C80.2436 22.4197 80.0617 22.2074 79.6221 22.1165C79.334 22.0559 79.1521 21.8967 79.0081 21.6541C78.8035 21.3131 78.7277 20.9341 78.6822 20.5475C78.6443 20.2671 78.6974 20.017 78.8565 19.7896C78.9778 19.6077 79.1142 19.4409 79.2279 19.2515C79.3492 19.0468 79.5311 18.9483 79.7585 18.9028C79.9252 18.8725 80.092 18.8346 80.2512 18.7891C80.5695 18.7057 80.5847 18.6906 80.5468 18.3722C80.5164 18.1449 80.4937 17.9175 80.4634 17.6901C80.4558 17.6294 80.4482 17.5688 80.4255 17.5158C80.2663 17.1292 80.2057 16.7199 80.2208 16.303C80.2512 15.6436 80.1754 14.9994 80.001 14.3627C79.9783 14.2793 79.9631 14.196 79.9404 14.1126C79.8798 13.8018 79.7736 13.5062 79.6221 13.2258C79.4932 12.9757 79.3795 12.7255 79.3189 12.4527C79.2886 12.3011 79.2128 12.1798 79.0688 12.1192C78.8869 12.0434 78.7504 11.8994 78.6291 11.7478C78.5382 11.6341 78.4397 11.528 78.3335 11.4294C77.9622 11.0581 77.5453 10.7928 77.0147 10.7246C76.9465 10.717 76.8707 10.7018 76.8025 10.6791C76.2719 10.5199 75.7262 10.5275 75.1805 10.573C74.8925 10.5957 74.6348 10.6488 74.415 10.8534C74.3771 10.8837 74.3316 10.9065 74.2861 10.9216C74.0436 11.0277 73.8617 11.2021 73.7025 11.3991C73.5812 11.5507 73.4675 11.7099 73.3235 11.8387C72.99 12.1343 72.7778 12.5133 72.5504 12.8847C72.2472 13.4001 72.1032 13.9534 72.0805 14.5446C72.0729 14.6886 72.0502 14.8326 71.9971 14.9691C71.8531 15.3101 71.7773 15.6588 71.7697 16.0302C71.7697 16.1136 71.7622 16.1969 71.747 16.2803C71.6333 17.0307 71.6788 17.781 71.6636 18.5314C71.6636 18.7133 71.7394 18.827 71.9062 18.8952C72.1184 18.9862 72.323 19.0999 72.5277 19.1908C72.6944 19.2666 72.8081 19.3803 72.8612 19.5546C72.9294 19.7744 73.0052 19.9942 73.0734 20.214C73.1719 20.5248 73.1947 20.828 73.0582 21.1387C73.0203 21.2145 73.0128 21.2979 72.9976 21.3813C72.9521 21.6011 72.8309 21.7527 72.6111 21.8209C72.2776 21.927 71.9441 22.0483 71.5878 22.0331C71.5272 22.0407 71.4817 22.0559 71.4135 22.071Z" fill="white"/>
<path d="M90.7187 23.3216C90.7112 23.4202 90.696 23.5187 90.696 23.6097C90.696 25.1104 90.696 26.6111 90.7036 28.1194C90.7036 28.4984 90.7339 28.8698 90.7415 29.2488C90.7415 29.4307 90.7339 29.6126 90.7263 29.7945C90.7187 29.9764 90.7036 30.1583 90.8552 30.3023C90.8931 30.3402 90.9082 30.4084 90.9234 30.4691C90.9689 30.7344 90.84 30.9011 90.5671 30.8784C90.2336 30.8556 89.9153 30.9314 89.5894 30.939C89.309 30.9466 89.0361 30.9769 88.7557 30.9845C88.3236 30.9845 87.884 30.9693 87.452 30.9617C87.0579 30.9542 86.9214 30.7723 87.0578 30.4009C87.1261 30.2265 87.1337 30.0522 87.1412 29.8703C87.1564 29.1654 87.1791 28.4681 87.1867 27.7632C87.1943 27.4373 87.1715 27.1114 87.1564 26.7855C87.1033 25.9517 87.0882 25.118 87.1412 24.2767C87.1488 24.1478 87.1488 24.0114 87.1261 23.8749C87.0503 23.3671 87.073 22.8593 87.0882 22.3515C87.1261 20.828 87.1791 19.2969 87.2094 17.7735C87.2246 16.6972 87.217 15.6133 87.2019 14.537C87.1867 13.529 87.1185 12.5285 86.9366 11.5356C86.9138 11.4143 86.9138 11.293 86.9138 11.1718C86.9063 10.9595 86.9366 10.7549 87.1791 10.6715C87.3307 10.4517 87.5657 10.429 87.7931 10.429C88.5055 10.4214 89.2256 10.4214 89.938 10.4138C90.0821 10.4138 90.2261 10.3987 90.3701 10.3835C90.6202 10.3532 90.8703 10.3001 91.128 10.285C91.3327 10.2698 91.5297 10.1788 91.7344 10.2471C91.7799 10.2622 91.8481 10.2243 91.9011 10.2016C92.0451 10.1258 92.2043 10.1031 92.3559 10.0955C93.129 10.0727 93.9097 10.0576 94.6828 10.0273C95.0845 10.0121 95.4483 10.1031 95.797 10.3001C96.0092 10.4138 96.2214 10.5275 96.4337 10.6488C97.184 11.0808 97.798 11.6568 98.3134 12.339C98.4725 12.5512 98.6014 12.7862 98.7075 13.0287C98.9273 13.5517 99.1623 14.0747 99.2532 14.6432C99.329 15.1207 99.3593 15.6057 99.3896 16.0908C99.4124 16.4395 99.3972 16.7957 99.3972 17.1444C99.3972 17.4627 99.3593 17.7735 99.2684 18.0767C99.2381 18.1828 99.2153 18.2889 99.2229 18.395C99.2456 18.827 99.1016 19.206 98.8667 19.5546C98.6848 19.8275 98.5028 20.1004 98.3209 20.3732C98.2527 20.4718 98.1921 20.5779 98.1315 20.684C97.9647 21.0023 97.7146 21.2449 97.4114 21.4344C97.2522 21.5253 97.0931 21.6163 96.949 21.7148C96.8354 21.7906 96.7368 21.874 96.6383 21.9649C96.5777 22.018 96.5246 22.0862 96.464 22.1696C96.8202 22.4803 97.0097 22.882 97.2371 23.2686C97.6009 23.8825 97.9495 24.504 98.3891 25.0725C98.5407 25.2696 98.6544 25.5045 98.7757 25.7243C98.897 25.9441 98.9955 26.1791 99.1244 26.3989C99.5033 27.0507 99.8671 27.7026 100.17 28.3923C100.208 28.4681 100.239 28.5515 100.284 28.6197C100.633 29.1124 100.943 29.6353 101.36 30.0825C101.542 30.272 101.717 30.4691 101.891 30.704C101.785 30.8026 101.686 30.8708 101.557 30.8632C100.815 30.8102 100.087 30.9769 99.3517 31.0375C98.8591 31.083 98.3588 31.0754 97.8813 30.9845C97.6994 30.8405 97.6388 30.6434 97.5478 30.4615C97.3583 30.0674 97.1537 29.6808 96.9945 29.2791C96.5246 28.0891 95.8955 26.9901 95.2361 25.8987C95.0314 25.5652 94.7889 25.2696 94.4933 25.0119C94.3266 24.8678 94.1825 24.7087 94.0234 24.5571C93.7278 24.2842 93.3943 24.0644 93.0077 23.9356C92.4317 23.7537 91.8557 23.5566 91.2796 23.3747C91.0901 23.3216 90.9158 23.2534 90.7187 23.3216ZM98.1239 16.9928C98.1163 16.9928 98.1163 16.9928 98.1239 16.9928C98.1239 16.7351 98.1163 16.485 98.1239 16.2273C98.1314 16.0075 98.0936 15.7877 98.0178 15.5906C97.9192 15.3405 97.8738 15.0752 97.8359 14.8175C97.8055 14.6128 97.7601 14.4158 97.7222 14.2111C97.6464 13.8625 97.5099 13.5441 97.2977 13.2561C97.2068 13.1273 97.1234 12.9984 97.04 12.862C96.5549 12.0055 95.7591 11.6038 94.8495 11.3764C94.3114 11.24 93.7657 11.3158 93.22 11.3688C93.0229 11.384 92.841 11.3916 92.6439 11.3688C92.4999 11.3537 92.3559 11.3537 92.2119 11.3688C92.0072 11.3916 91.8102 11.437 91.6055 11.4674C91.3554 11.4977 91.1053 11.5204 90.8552 11.5507C90.6733 11.5735 90.5747 11.6568 90.5596 11.816C90.5368 12.1419 90.4762 12.4603 90.5217 12.7938C90.5368 12.915 90.5368 13.0363 90.5444 13.1576C90.5823 14.4158 90.6202 15.674 90.6581 16.9322C90.6808 17.6219 90.6884 18.3116 90.7036 19.0013C90.7036 19.1226 90.7036 19.2439 90.6733 19.3576C90.6202 19.5774 90.7112 19.7366 90.8779 19.8654C91.0446 19.9943 91.2417 20.0625 91.4464 20.1004C91.6283 20.1307 91.795 20.1989 91.9466 20.2974C92.2195 20.4642 92.5075 20.5703 92.8334 20.6082C93.0532 20.6385 93.2654 20.6688 93.4777 20.7067C94.1295 20.828 94.7813 20.8128 95.4332 20.737C95.8955 20.684 96.2972 20.5097 96.6156 20.1686C96.7368 20.0397 96.8808 19.9185 97.0173 19.8048C97.1992 19.6532 97.3432 19.4864 97.4645 19.2818C97.5706 19.1075 97.6843 18.9331 97.8207 18.7815C97.9192 18.6678 97.995 18.5466 98.0253 18.4026C98.0784 18.1903 98.1163 17.9781 98.1315 17.7583C98.1315 17.5006 98.1239 17.2429 98.1239 16.9928Z" fill="white"/>
<path d="M21.2908 15.2344C21.3136 15.1813 21.3515 15.1131 21.359 15.0525C21.4121 14.4992 21.359 13.9686 21.0786 13.4684C20.9043 13.15 20.7451 12.8241 20.5784 12.4982C20.4647 12.2784 20.2828 12.1116 20.0781 11.9828C19.7825 11.7933 19.4793 11.6114 19.1837 11.4219C19.017 11.3158 18.8275 11.2627 18.638 11.2324C18.35 11.1869 18.062 11.1415 17.774 11.1112C17.6072 11.096 17.4329 11.096 17.2661 11.1112C17.0994 11.1263 16.9326 11.1794 16.7659 11.1945C16.4627 11.2248 16.2126 11.3461 15.9852 11.5508C15.9018 11.6266 15.8185 11.6948 15.7351 11.7554C15.2576 12.0965 14.9847 12.574 14.8255 13.1197C14.727 13.4456 14.6588 13.7791 14.6209 14.1126C14.5603 14.5977 14.4617 15.0676 14.348 15.5376C14.1661 16.2955 14.06 17.061 14.007 17.8341C13.9312 19.009 13.9539 20.1838 13.9387 21.3586C13.9312 22.0256 13.9387 22.6926 13.9387 23.3596C13.9312 24.2464 14.0449 25.1256 14.2571 25.9896C14.3859 26.5278 14.5072 27.0735 14.6361 27.6192C14.6512 27.6799 14.6664 27.7405 14.6664 27.8011C14.6967 28.2332 14.8559 28.6197 15.0757 28.9911C15.1363 29.0972 15.1894 29.2109 15.2121 29.3246C15.2348 29.4535 15.3031 29.5444 15.4016 29.6202C15.7048 29.84 16.0079 30.0674 16.3111 30.2872C16.5991 30.4994 16.9326 30.6131 17.2889 30.6359C17.5769 30.6586 17.8725 30.6813 18.1605 30.6965C18.4864 30.7192 18.782 30.6283 19.0625 30.4691C19.3202 30.3327 19.5779 30.2038 19.8431 30.0826C20.0478 29.9916 20.2145 29.8552 20.3131 29.6505C20.5253 29.2033 20.7603 28.7637 20.9346 28.2938C21.0634 27.9451 21.1241 27.5662 21.1999 27.2024C21.2226 27.1038 21.2378 26.9825 21.1165 26.8916C20.9876 26.8613 20.8664 26.9371 20.7527 26.9977C20.3207 27.2327 19.8583 27.2857 19.3808 27.2706C18.8427 27.2554 18.4637 27.0129 18.2287 26.5278C18.0696 26.1791 17.9786 25.8229 17.9634 25.4439C17.9559 25.3075 17.9634 25.1786 17.9634 25.0422C17.9559 24.4055 18.2439 23.9053 18.6911 23.4808C18.8275 23.352 18.9791 23.2686 19.1762 23.2535C19.6006 23.2231 20.0175 23.1398 20.4419 23.1928C20.7375 23.2307 21.0028 23.3292 21.2453 23.5112C21.3515 23.587 21.4576 23.6779 21.5637 23.7537C21.7759 23.9129 21.9199 24.1175 22.0033 24.3601C22.0791 24.5799 22.1473 24.7997 22.2383 25.0043C22.4202 25.4288 22.4656 25.8684 22.4277 26.3231C22.3747 27.0508 22.2383 27.7632 22.0109 28.4605C21.9123 28.7713 21.7532 29.0593 21.5485 29.3246C21.2832 29.6657 21.0255 30.0219 20.7603 30.3706C20.6996 30.4464 20.639 30.5222 20.5632 30.5828C20.0857 30.9769 19.6006 31.3559 19.0246 31.606C18.6911 31.75 18.3424 31.8486 17.971 31.8713C17.6603 31.894 17.3419 31.9319 17.0312 31.9698C16.5461 32.0153 16.061 32.0077 15.5759 31.9623C15.159 31.9244 14.7801 31.7804 14.4466 31.5075C14.3632 31.4393 14.2647 31.3862 14.1661 31.3407C13.8402 31.2043 13.5295 31.0527 13.2339 30.8481C13.0444 30.7192 12.8321 30.6207 12.6275 30.5222C12.4001 30.416 12.2258 30.2645 12.0894 30.0522C11.9681 29.8627 11.8165 29.6884 11.6649 29.5065C11.392 29.1806 11.1192 28.8623 10.8463 28.5288C10.6341 28.2635 10.4749 27.9603 10.3461 27.6495C10.2551 27.4146 10.1339 27.1872 10.0581 26.9447C9.90647 26.4596 9.7473 25.9745 9.63361 25.4818C9.53508 25.0574 9.47444 24.6253 9.40623 24.1933C9.33801 23.7537 9.2698 23.3065 9.20916 22.8669C9.18642 22.685 9.17126 22.5031 9.17126 22.3212C9.17126 21.5329 9.16368 20.7446 9.06515 19.964C9.00452 19.4789 9.08031 18.9938 9.13337 18.5163C9.17884 18.0615 9.20916 17.5992 9.2698 17.1444C9.30011 16.8943 9.35317 16.6442 9.41381 16.394C9.47444 16.1439 9.53508 15.9014 9.5654 15.6512C9.58813 15.4466 9.64119 15.2495 9.70941 15.0525C9.86857 14.5825 10.0581 14.1202 10.2021 13.6503C10.4219 12.9378 10.8084 12.3618 11.3996 11.9222C11.5664 11.8009 11.7104 11.6493 11.862 11.5129C12.0818 11.3158 12.3243 11.1642 12.5972 11.0581C12.8321 10.9671 13.0595 10.8459 13.2793 10.7246C13.4309 10.6412 13.5825 10.573 13.7493 10.5503C14.1964 10.4896 14.6285 10.3684 15.0226 10.141C15.106 10.0955 15.2045 10.0576 15.2955 10.05C15.9473 9.95149 16.5916 9.93633 17.251 9.99697C18.3121 10.0955 19.2747 10.4745 20.2297 10.8838C20.7678 11.1112 21.1923 11.4825 21.4955 11.9904C21.6546 12.2632 21.7987 12.5437 21.9427 12.8165C21.9957 12.9151 22.0185 13.0212 22.0564 13.1197C22.117 13.3016 22.17 13.4911 22.2383 13.673C22.3444 13.9459 22.3747 14.2415 22.3974 14.5295C22.4202 14.7341 22.4202 14.9388 22.4353 15.1434C22.4505 15.5376 22.3974 15.9165 22.2837 16.2879C22.1397 16.7579 21.9123 17.1823 21.6925 17.6143C21.6395 17.7129 21.5637 17.7887 21.4652 17.8417C21.3136 17.9175 21.1696 18.0085 21.0331 18.0994C20.7678 18.2737 20.4647 18.3723 20.1691 18.4784C20.0857 18.5087 19.972 18.5011 19.8886 18.4784C19.6233 18.4026 19.3581 18.3192 19.0928 18.2131C18.7214 18.0691 18.4713 17.8038 18.3273 17.4324C18.2818 17.3187 18.2515 17.1975 18.2287 17.0838C18.1302 16.5759 18.2894 15.8256 18.5774 15.4163C18.8957 14.9539 19.3429 14.7645 19.8962 14.8099C20.2524 14.8402 20.5859 14.9388 20.8967 15.1207C21.0407 15.1662 21.1317 15.2495 21.2908 15.2344Z" fill="white"/>
<path d="M113.745 13.4001C113.919 13.3319 114.101 13.2636 114.276 13.1878C114.67 13.0211 115.041 13.1196 115.39 13.3091C115.511 13.3773 115.602 13.5062 115.693 13.6123C115.92 13.9003 115.943 14.59 115.716 14.8856C115.519 15.1509 115.291 15.3707 115.018 15.5602C114.7 15.78 114.351 15.8179 113.98 15.8179C113.859 15.8179 113.738 15.8028 113.616 15.8028C113.396 15.8103 113.252 15.7118 113.154 15.5147C112.972 15.1509 112.775 14.7871 112.593 14.4157C112.548 14.3323 112.532 14.2338 112.517 14.1353C112.419 13.5213 112.199 12.9453 111.941 12.3768C111.85 12.1722 111.706 12.0206 111.502 11.9145C111.312 11.816 111.13 11.6871 110.948 11.5658C110.751 11.437 110.547 11.3536 110.312 11.3233C110.084 11.3006 109.857 11.2475 109.629 11.2172C109.379 11.1793 109.122 11.1717 108.872 11.2323C108.705 11.2702 108.538 11.3006 108.371 11.3233C108.197 11.3536 108.053 11.4294 107.916 11.5355C107.803 11.6265 107.697 11.725 107.575 11.8084C107.09 12.157 106.817 12.6497 106.658 13.2106C106.583 13.4759 106.522 13.7563 106.492 14.0292C106.438 14.4991 106.348 14.9614 106.234 15.4238C106.037 16.2045 105.931 16.9927 105.893 17.7962C105.809 19.6228 105.825 21.457 105.84 23.2837C105.847 24.0113 105.969 24.7314 106.135 25.4363C106.257 25.9441 106.37 26.4519 106.492 26.9597C106.499 26.9976 106.507 27.0279 106.514 27.0658C106.56 27.5585 106.719 28.0057 106.992 28.4226C107.015 28.4529 107.037 28.4908 107.037 28.5211C107.037 28.7788 107.212 28.9001 107.394 29.0289C107.644 29.2033 107.879 29.3852 108.129 29.5671C108.394 29.7566 108.69 29.8551 109.008 29.8854C109.273 29.9081 109.539 29.9233 109.804 29.946C110.152 29.9764 110.471 29.893 110.774 29.7111C110.994 29.5822 111.221 29.4761 111.456 29.37C111.676 29.2715 111.85 29.135 111.949 28.9152C112.138 28.5059 112.358 28.1118 112.51 27.6949C112.639 27.3463 112.692 26.9673 112.783 26.6035C112.783 26.5883 112.79 26.5808 112.783 26.5656C112.714 26.3079 112.813 26.0654 112.873 25.8228C112.972 25.4211 112.964 25.0042 112.934 24.5949C112.919 24.3903 112.904 24.1856 112.889 23.981C112.866 23.7536 112.843 23.5262 112.805 23.2988C112.767 23.0563 112.669 22.9654 112.426 22.9275C112.176 22.8971 111.918 22.9047 111.668 22.935C111.054 23.0033 110.44 23.0715 109.819 23.0108C109.607 22.9881 109.387 23.0032 109.167 23.0032C109.091 23.0032 109.023 23.0108 108.955 22.9957C108.864 22.9805 108.788 22.9881 108.712 23.0336C108.583 23.1018 108.439 23.1169 108.288 23.079C108.129 23.0411 108.015 22.9426 108.015 22.7834C108.015 22.5712 107.962 22.3817 107.932 22.1771C107.826 21.3358 107.818 20.4869 107.818 19.638C107.818 19.6152 107.833 19.5925 107.841 19.547C107.894 19.5319 107.962 19.5091 108.03 19.5015C108.818 19.4712 109.607 19.4485 110.395 19.4182C110.842 19.403 111.289 19.3878 111.737 19.3348C112.161 19.2893 112.585 19.2893 113.01 19.2969C113.23 19.3045 113.427 19.3272 113.487 19.5849C113.791 19.8805 113.791 20.2898 113.828 20.6612C113.874 21.2297 113.882 21.7981 113.897 22.3666C113.904 22.6319 113.927 22.8971 113.995 23.1548C114.033 23.3064 114.056 23.4656 114.063 23.6172C114.071 24.0265 114.063 24.4433 114.056 24.8526C114.056 24.8981 114.063 24.9588 114.048 24.9966C113.942 25.2392 113.995 25.4969 113.972 25.747C113.912 26.5201 113.783 27.2856 113.495 28.0133C113.419 28.2103 113.298 28.3998 113.177 28.5817C112.919 28.9455 112.646 29.3018 112.373 29.658C112.32 29.7262 112.267 29.7945 112.199 29.8475C111.714 30.2492 111.214 30.6358 110.615 30.8707C110.357 30.9768 110.092 31.0451 109.804 31.0678C109.493 31.0905 109.175 31.1512 108.864 31.1663C108.394 31.1815 107.916 31.1967 107.447 31.1739C107.037 31.1512 106.673 30.9996 106.348 30.7419C106.249 30.6585 106.12 30.5979 106.006 30.5448C105.741 30.4235 105.483 30.3023 105.241 30.1355C105.051 30.0067 104.839 29.9081 104.635 29.8096C104.407 29.7035 104.233 29.5519 104.096 29.3397C103.975 29.1578 103.831 28.991 103.695 28.8243C103.437 28.5135 103.179 28.2179 102.929 27.9072C102.823 27.7783 102.725 27.6343 102.649 27.4827C102.399 26.9673 102.149 26.4595 102.027 25.8986C102.005 25.8077 101.997 25.7091 101.959 25.6182C101.663 24.8526 101.595 24.0416 101.482 23.2382C101.444 22.9881 101.398 22.738 101.36 22.4878C101.345 22.3666 101.33 22.2453 101.322 22.124C101.315 22.0179 101.315 21.9042 101.322 21.7981C101.338 21.116 101.307 20.4414 101.239 19.7668C101.209 19.4788 101.216 19.1832 101.239 18.8952C101.277 18.4328 101.338 17.9781 101.383 17.5233C101.391 17.4248 101.406 17.3338 101.406 17.2353C101.398 16.8942 101.482 16.5607 101.565 16.2348C101.618 16.015 101.656 15.7876 101.701 15.5602C101.739 15.3707 101.777 15.1812 101.845 14.9993C102.005 14.5294 102.194 14.0671 102.338 13.5971C102.535 12.9605 102.891 12.4451 103.422 12.0433C103.581 11.9145 103.733 11.7781 103.884 11.6341C104.096 11.4294 104.347 11.2854 104.619 11.1793C104.839 11.0883 105.059 10.9746 105.271 10.8609C105.4 10.7852 105.521 10.7245 105.673 10.7018C106.12 10.6336 106.552 10.5275 106.946 10.2925C107.007 10.2546 107.083 10.2243 107.151 10.2167C107.765 10.1257 108.371 10.0575 108.993 10.1636C109.228 10.2015 109.478 10.194 109.713 10.2546C110.16 10.3683 110.6 10.5047 111.032 10.6487C111.282 10.7321 111.532 10.8382 111.774 10.9443C112.366 11.1869 112.836 11.5734 113.161 12.1267C113.389 12.5133 113.616 12.8998 113.715 13.347C113.692 13.347 113.715 13.3698 113.745 13.4001Z" fill="white"/>
<path d="M1.60685 23.0031C1.49315 22.988 1.37946 22.9577 1.25819 22.9501C0.811003 22.9273 0.492665 22.6772 0.197066 22.3816C0.106113 22.2907 0.0606356 22.177 0.0530562 22.0557C0.0303178 21.7071 0 21.3508 0 21.0022C0 20.8506 0.0454767 20.6914 0.098533 20.5474C0.13643 20.4185 0.212225 20.3049 0.265281 20.1836C0.363814 19.941 0.530562 19.797 0.811003 19.7667C0.947433 19.7516 1.09144 19.6833 1.20513 19.6C1.3643 19.4939 1.52347 19.4408 1.71296 19.4408C1.96308 19.4332 1.9934 19.3953 2.00098 19.13C2.00098 19.0921 2.00098 19.0542 2.00098 19.0239C2.00856 17.5005 2.01614 15.9694 2.02372 14.4459C2.02372 13.9381 1.9934 13.4303 1.88729 12.93C1.77359 12.4071 1.78117 11.8689 1.74328 11.3383C1.72812 11.0958 1.6978 10.8533 1.67506 10.6183C1.66748 10.5425 1.6599 10.4743 1.66748 10.3985C1.67506 10.2772 1.75844 10.2014 1.87971 10.1938C1.96308 10.1863 2.04646 10.1938 2.13741 10.1863C2.48606 10.1711 2.8423 10.156 3.19095 10.1484C3.27433 10.1484 3.36528 10.1332 3.44108 10.1484C4.05501 10.2317 4.67653 10.1863 5.29047 10.1787C5.41174 10.1787 5.52543 10.1408 5.6467 10.1256C5.78313 10.1105 5.91198 10.0953 6.0181 10.209C6.02567 10.2317 6.04083 10.2545 6.03325 10.2772C5.85135 10.8305 5.82103 11.4217 5.71492 11.9902C5.54059 12.9452 5.52543 13.9154 5.50269 14.8855C5.48753 15.454 5.45721 16.0225 5.44964 16.5909C5.44206 17.22 5.45721 17.8491 5.45721 18.4782C5.45721 18.5995 5.46479 18.7207 5.46479 18.842C5.46479 19.0391 5.50269 19.2286 5.58607 19.4029C5.65428 19.5469 5.76039 19.6379 5.92714 19.6303C6.37433 19.5924 6.70783 19.8652 7.0489 20.0775C7.3066 20.2442 7.42788 20.5247 7.45061 20.8203C7.47335 21.0704 7.46577 21.3281 7.44304 21.5782C7.43546 21.7071 7.36724 21.8283 7.31418 21.9572C7.26871 22.0557 7.20049 22.1467 7.16259 22.2452C7.07922 22.4802 6.90489 22.5787 6.67751 22.6242C6.42739 22.6696 6.17726 22.7227 5.92714 22.7758C5.76039 22.8137 5.59365 22.844 5.43448 22.8895C5.34352 22.9122 5.29047 22.9804 5.29047 23.0714C5.29047 23.1472 5.29047 23.2154 5.29805 23.2912C5.39658 23.9885 5.40416 24.6934 5.45721 25.3907C5.51027 26.1031 5.6088 26.808 5.69218 27.5205C5.75281 28.089 5.81345 28.6498 5.87409 29.2183C5.9044 29.5291 5.94988 29.8474 5.97262 30.1582C5.9802 30.2794 5.9802 30.4007 5.96504 30.522C5.94988 30.6357 5.88166 30.6887 5.76797 30.6963C5.66944 30.7039 5.57091 30.7039 5.47995 30.7039C4.88876 30.7039 4.28998 30.7039 3.69878 30.7039C3.40318 30.7039 3.12274 30.7342 2.83472 30.8024C2.47091 30.8934 2.09193 30.9237 1.72054 30.9313C1.59927 30.9313 1.478 30.9237 1.3643 30.8934C1.1824 30.8479 1.11418 30.719 1.15208 30.5296C1.16724 30.4462 1.20513 30.3628 1.25061 30.2946C1.51589 29.9232 1.56895 29.4912 1.58411 29.0516C1.60685 28.4831 1.59169 27.9146 1.59927 27.3462C1.62201 26.0349 1.65232 24.7313 1.67506 23.42C1.6599 23.2912 1.68264 23.1547 1.60685 23.0031Z" fill="white"/>
<path d="M1.48535 7.25308C1.51567 7.12423 1.53083 7.0257 1.56115 6.93475C1.69758 6.55577 1.83401 6.18438 1.97044 5.81299C2.00076 5.72203 2.05381 5.63866 2.08413 5.5477C2.31909 4.82008 2.77386 4.2213 3.19073 3.5922C3.48633 3.15259 3.79709 2.71298 4.13816 2.30369C4.28975 2.11421 4.44134 1.92472 4.61567 1.75797C5.01738 1.37142 5.44183 0.992445 5.86628 0.613472C6.13914 0.36335 6.46506 0.21176 6.82887 0.128386C7.56408 -0.038362 8.29929 -0.0307825 9.0345 0.0829095C9.14819 0.0980684 9.26946 0.158704 9.36042 0.226919C9.80003 0.560416 10.1638 0.962127 10.3306 1.50785C10.3382 1.54575 10.3533 1.57606 10.3685 1.60638C10.6489 2.06873 10.6034 2.58413 10.5959 3.09196C10.5959 3.17533 10.5731 3.26628 10.5352 3.3345C10.3912 3.59978 10.2472 3.86506 10.0805 4.11518C9.9213 4.35773 9.72423 4.57753 9.54232 4.80492C9.50443 4.85039 9.47411 4.90345 9.42863 4.94893C9.23157 5.16115 9.10272 5.16873 8.86775 4.97924C8.70858 4.85039 8.54941 4.72154 8.38266 4.60027C8.30687 4.53963 8.23108 4.479 8.14012 4.4411C7.68535 4.23646 7.26848 3.9636 6.80614 3.78927C6.65455 3.73621 6.50296 3.69831 6.34379 3.70589C6.26042 3.70589 6.17704 3.70589 6.08609 3.70589C5.76775 3.71347 5.44941 3.67558 5.14623 3.73621C4.84305 3.79685 4.56261 3.9636 4.26702 4.08487C4.01689 4.19098 3.81225 4.35015 3.66066 4.58511C3.50149 4.82765 3.33474 5.06262 3.17557 5.31274C3.09978 5.43401 3.0164 5.55528 2.95577 5.69171C2.78144 6.06311 2.60711 6.4345 2.37973 6.78316C2.27362 6.94233 2.2433 7.13939 2.1675 7.3213C2.11445 7.45015 2.03865 7.47289 1.90222 7.44257C1.88706 7.44257 1.87948 7.43499 1.86432 7.43499C1.76579 7.37436 1.64452 7.3213 1.48535 7.25308Z" fill="white"/>
<path d="M119.005 22.9427C118.755 22.9048 118.505 22.8745 118.255 22.8139C117.739 22.6926 117.254 22.5259 116.936 22.0559C116.913 22.0256 116.89 21.9953 116.868 21.9726C116.451 21.5708 116.451 21.1009 116.633 20.6007C116.686 20.4567 116.739 20.3051 116.777 20.1535C116.815 20.0095 116.883 19.8882 116.936 19.7518C117.057 19.4334 117.307 19.2288 117.542 19.0014C117.611 18.9408 117.701 18.8953 117.792 18.865C117.936 18.8119 118.088 18.7664 118.24 18.7285C118.331 18.7058 118.429 18.6982 118.528 18.6831C118.687 18.6679 118.846 18.6603 118.998 18.6376C119.172 18.6073 119.339 18.6376 119.49 18.7134C119.665 18.7968 119.831 18.9105 119.953 19.062C120.157 19.3197 120.354 19.5774 120.551 19.8352C120.62 19.9261 120.642 20.0246 120.642 20.1383C120.65 20.4491 120.665 20.7674 120.695 21.0782C120.718 21.3207 120.688 21.533 120.567 21.7376C120.476 21.8816 120.407 22.0332 120.332 22.1924C120.279 22.3061 120.195 22.3819 120.074 22.4349C119.71 22.6092 119.354 22.7836 119.005 22.9427Z" fill="white"/>
<path d="M62.4623 19.0617C62.72 19.0845 63.008 19.0921 63.296 19.1375C63.7204 19.1982 64.0691 19.4028 64.3116 19.7666C64.3874 19.8803 64.4329 20.0016 64.4329 20.138C64.4329 20.4033 64.4481 20.6686 64.3344 20.9263C64.2965 21.0021 64.2813 21.0855 64.2662 21.1688C64.2358 21.328 64.1676 21.4569 64.0615 21.5781C63.9402 21.707 63.8417 21.8661 63.7508 22.0253C63.5764 22.3285 63.3187 22.4422 62.9928 22.3967C62.5229 22.3361 62.0605 22.2527 61.5982 22.1769C61.5072 22.1617 61.4163 22.1238 61.3177 22.0935C61.0904 22.0177 60.9388 21.8661 60.8251 21.6463C60.5825 21.1764 60.5371 20.6762 60.5068 20.1683C60.4992 20.0547 60.5219 19.9485 60.5977 19.8652C60.7038 19.7363 60.8175 19.6075 60.9388 19.4938C61.007 19.4256 61.0979 19.3877 61.1737 19.327C61.4314 19.1224 61.727 19.039 62.053 19.0617C62.1818 19.0693 62.3107 19.0617 62.4623 19.0617Z" fill="white"/>
</svg>
