<svg width="76" height="31" viewBox="0 0 76 31" fill="none" xmlns="http://www.w3.org/2000/svg">
<g id="Group 6072">
<path id="Vector" d="M6.34465 0.00457908C6.38749 0.00457908 6.99292 0.0635761 7.02593 0.0705996C7.1664 0.100098 7.26543 0.192808 7.36797 0.281303C7.65523 0.522208 7.887 0.803146 8.00008 1.17118C8.04292 1.31164 8.11807 1.43596 8.16934 1.57151C8.19369 1.63921 8.2072 1.71031 8.20938 1.78222C8.2157 1.96764 8.20938 2.15306 8.21429 2.33847C8.21873 2.45692 8.18976 2.57423 8.13072 2.67701C8.01623 2.87507 7.93055 3.08717 7.7676 3.26065C7.60466 3.43413 7.47402 3.64062 7.32723 3.83096C7.30026 3.86706 7.26861 3.89941 7.23312 3.92718C7.21423 3.94638 7.19171 3.96162 7.16687 3.97203C7.14203 3.98244 7.11537 3.9878 7.08843 3.9878C7.0615 3.9878 7.03484 3.98244 7.01 3.97203C6.98516 3.96162 6.96264 3.94638 6.94375 3.92718C6.89459 3.88996 6.85385 3.8422 6.80328 3.80357C6.70285 3.7242 6.5996 3.64835 6.49776 3.57039C6.34334 3.45036 6.16877 3.3588 5.98224 3.29999C5.94457 3.28794 5.90986 3.26807 5.8804 3.24169C5.76592 3.13634 5.61842 3.0949 5.48076 3.0352C5.37822 2.99025 5.27568 2.9446 5.16963 2.90737C5.11712 2.88858 5.06175 2.87908 5.00598 2.87928C4.70818 2.87928 4.41039 2.87928 4.1126 2.87928C4.02344 2.88194 3.93623 2.90603 3.85835 2.94952C3.68838 3.03239 3.50717 3.09982 3.33369 3.16794C3.12175 3.24681 2.94293 3.39542 2.8266 3.58935C2.74724 3.71788 2.66014 3.84149 2.57586 3.96651C2.44407 4.14607 2.33088 4.33857 2.23803 4.54103C2.13888 4.79742 2.00691 5.03988 1.84542 5.26234C1.81447 5.32059 1.79223 5.38306 1.7794 5.44776C1.75341 5.5379 1.72006 5.62576 1.67967 5.71044C1.6291 5.80244 1.58134 5.81017 1.48231 5.77295C1.40365 5.74345 1.32498 5.71254 1.24843 5.67883C1.15221 5.63529 1.14237 5.6086 1.16906 5.50957C1.293 5.09881 1.44386 4.69666 1.62067 4.30575C1.70004 4.12103 1.76536 3.92929 1.85104 3.74387C1.90393 3.65251 1.96283 3.56476 2.02733 3.48119C2.08773 3.38778 2.14041 3.28945 2.20151 3.19604C2.30827 3.04152 2.4087 2.89052 2.51406 2.73881C2.54285 2.69737 2.58921 2.66858 2.61028 2.62222C2.76269 2.29774 3.03169 2.05613 3.22975 1.76536C3.38707 1.5371 3.60059 1.34395 3.80286 1.15081C4.03674 0.925355 4.28256 0.713246 4.52768 0.500435C4.77881 0.273477 5.09314 0.128439 5.42879 0.0846465C5.50043 0.0762183 5.93589 -0.0221101 6.34465 0.00457908Z" fill="black"/>
<path id="Vector_2" d="M47.6457 28.9287C46.4377 28.9287 45.2296 28.9287 44.0216 28.9287C43.5159 28.9287 43.0109 28.9146 42.5052 28.9139C42.3886 28.9139 42.272 28.947 42.1541 28.9526C41.9757 28.961 41.6498 28.9891 41.4784 28.9526C41.2634 28.9124 41.044 28.9009 40.8259 28.9182C40.6693 28.928 40.512 28.9448 40.3554 28.947C40.2851 28.947 40.2149 28.9125 40.1446 28.9097C39.9761 28.9041 39.8075 28.902 39.6397 28.9097C39.5231 28.9153 39.4887 28.975 39.4992 29.1106C39.5097 29.2672 39.5203 29.4238 39.5259 29.5805C39.5283 29.6592 39.5146 29.7375 39.4856 29.8107C39.4567 29.8839 39.413 29.9504 39.3573 30.0061C39.2467 30.1252 39.1479 30.2548 39.0623 30.3931C38.9665 30.5392 38.8287 30.6529 38.6669 30.719C38.553 30.7777 38.4357 30.8297 38.3157 30.8749C38.1769 30.9334 38.0302 30.9711 37.8803 30.9866C37.6696 30.9929 36.8099 30.9823 36.6484 30.9072C36.3927 30.7899 36.2972 30.6438 36.1195 30.4156C36.0893 30.3755 36.0577 30.3369 36.0261 30.2969C35.9054 30.154 35.8386 29.9733 35.8372 29.7863C35.8372 29.6233 35.8329 29.4604 35.8301 29.2946C35.8301 29.2497 35.8301 29.2047 35.8245 29.1605C35.8013 28.9273 35.7543 28.8957 35.5232 28.9153C35.2549 28.9392 34.8454 28.9638 34.5764 28.9694C34.4027 28.9707 34.2292 28.9561 34.0581 28.9259C33.8129 28.897 33.5654 28.8923 33.3192 28.9118C33.0559 28.9217 32.7918 28.9196 32.5284 28.9118C32.372 28.9074 32.2155 28.9206 32.062 28.9512C31.8201 29.0007 31.5743 29.0282 31.3274 29.0333C30.8723 29.0446 30.4143 29.0376 29.962 29.0333C28.5349 29.0202 27.1082 29.0052 25.6819 28.9884C25.446 28.9884 25.21 28.9736 24.9747 28.9659C24.9511 28.968 24.9274 28.9661 24.9044 28.9603C24.66 28.8669 24.4051 28.9041 24.1543 28.9034C23.4239 28.9034 22.6935 28.9034 21.963 28.9111C21.1097 28.9238 20.2563 28.9512 19.403 28.9701C18.9113 28.9814 18.636 28.9779 18.1479 29.001C15.7114 29.1169 13.2736 29.0509 10.8365 29.0713C10.2914 29.0755 9.74642 29.0713 9.2014 29.0748C8.89868 29.079 8.59597 29.1008 8.29396 29.1155C7.97369 29.1317 7.65413 29.1478 7.33597 29.0888C7.2584 29.0766 7.17982 29.0722 7.10138 29.0755C5.8484 29.0923 4.59588 29.1099 3.34383 29.1282C3.30439 29.1264 3.26486 29.1285 3.22584 29.1345C2.81496 29.2251 2.39777 29.1787 1.98339 29.1984C1.84292 29.2054 1.70245 29.2286 1.56619 29.2426C1.34917 29.2644 1.13004 29.3037 0.926357 29.1829C0.875312 29.1566 0.831821 29.1177 0.799992 29.0699C0.768163 29.0221 0.749047 28.967 0.744449 28.9097C0.715052 28.6998 0.717894 28.4867 0.752877 28.2776C0.757683 28.2329 0.747291 28.1879 0.723379 28.1498C0.69847 28.1061 0.682923 28.0576 0.677724 28.0076C0.672525 27.9575 0.677788 27.9069 0.693178 27.859C0.728998 27.6771 0.75358 27.4931 0.777459 27.3098C0.77727 27.2736 0.789512 27.2384 0.812141 27.2102C0.834769 27.1819 0.86641 27.1623 0.901775 27.1546C1.10335 27.0907 1.2979 27.0057 1.49877 26.9389C1.58814 26.9083 1.68173 26.8917 1.7762 26.8898C2.69697 26.8842 3.61845 26.8856 4.53993 26.8792C4.66818 26.8713 4.79595 26.8568 4.9227 26.8357C4.98931 26.8263 5.05636 26.8205 5.12358 26.8181C5.38766 26.8181 5.65174 26.8252 5.91582 26.8181C6.15602 26.8097 6.39623 26.7844 6.63643 26.7648C7.27416 26.7107 7.91329 26.6503 8.55383 26.6896C9.08762 26.7226 9.61929 26.7114 10.1524 26.6994C10.7311 26.6861 11.3098 26.6952 11.8886 26.6945C12.1414 26.6945 12.3943 26.6945 12.6471 26.6945L14.7366 26.7149C15.652 26.7247 16.5674 26.7346 17.4828 26.7444C17.8751 26.7472 18.2677 26.7472 18.6606 26.7444C18.9809 26.7444 19.0904 26.736 19.41 26.7254C19.9782 26.7072 20.5443 26.7374 21.1104 26.7739C21.2333 26.7823 21.3576 26.7837 21.4812 26.783C22.2222 26.7767 22.9639 26.7662 23.7055 26.762C23.9127 26.762 24.1206 26.7781 24.3278 26.7788C24.4844 26.7788 24.6411 26.7605 24.7977 26.7613C25.0821 26.7613 25.3687 26.7233 25.6496 26.8097C25.7101 26.8225 25.7721 26.8265 25.8336 26.8217C26.8506 26.8217 27.8676 26.8205 28.8846 26.8181C28.9908 26.8126 29.0965 26.8011 29.2014 26.7837C29.2957 26.7695 29.3906 26.7601 29.4858 26.7556C31.6828 26.7556 33.879 26.75 36.076 26.7556C36.6095 26.7485 37.1429 26.7753 37.6731 26.8357C38.2069 26.9059 38.7371 26.8835 39.2688 26.8933C39.9094 26.905 40.5497 26.9104 41.1897 26.9094C42.7012 26.9052 44.2124 26.8975 45.7234 26.8863C45.8744 26.8863 46.0254 26.8659 46.1771 26.8582C46.4461 26.8441 46.7151 26.8273 46.9841 26.8224C47.3268 26.816 47.6696 26.8224 48.0123 26.8224C48.2371 26.8123 48.4622 26.8304 48.6824 26.8764C48.7486 26.8882 48.816 26.8922 48.8832 26.8884C52.7827 26.8884 56.6818 26.8884 60.5808 26.8884C60.7381 26.8884 60.8955 26.8961 61.0528 26.8884C61.1637 26.8835 61.274 26.8589 61.385 26.8462C61.4678 26.8333 61.5513 26.8255 61.635 26.8231C62.1632 26.8188 62.6885 26.8231 63.2195 26.8153C63.584 26.809 63.9485 26.7837 64.3131 26.7676C64.3412 26.7676 64.3693 26.7676 64.3974 26.7676C65.1784 26.7676 65.9594 26.7598 66.7404 26.7676C67.055 26.7676 67.3692 26.7892 67.6808 26.8322C68.4145 26.9326 69.1549 26.9768 69.8953 26.9642C70.8674 26.96 71.8394 26.9572 72.8114 26.9642C73.1977 26.9684 73.584 26.9958 73.9703 27.031C74.207 27.0527 74.4409 27.1089 74.6769 27.1489C74.7155 27.1553 74.7548 27.1567 74.7935 27.1623C74.9705 27.1876 75.1446 27.2129 75.323 27.2403C75.4136 27.2543 75.4354 27.3224 75.4403 27.4004C75.4481 27.5296 75.4607 27.6588 75.4621 27.7874C75.4677 28.3155 75.4715 28.8437 75.4733 29.3719C75.4733 29.5517 75.4221 29.6107 75.2472 29.6086C75.1194 29.6086 74.9922 29.5819 74.8644 29.572C74.7078 29.5594 74.5505 29.5475 74.3938 29.5446C74.1651 29.5319 73.9386 29.4927 73.7189 29.4281C73.5524 29.3859 73.3803 29.3663 73.2104 29.3346C73.0404 29.303 72.8817 29.2728 72.7187 29.2412C72.6434 29.2218 72.5666 29.2084 72.4891 29.2012C72.1239 29.1914 71.7586 29.2012 71.3941 29.1787C71.0928 29.1619 70.7936 29.1085 70.4937 29.0783C70.3886 29.0604 70.2821 29.0529 70.1756 29.0558C69.1663 29.1422 68.1549 29.1155 67.1435 29.1092C66.6161 29.1057 66.09 29.0656 65.5611 29.0867C64.9641 29.1106 64.3721 29.0207 63.7765 29.0509C63.6213 29.0593 63.466 29.086 63.3108 29.1043C63.2722 29.1085 63.2329 29.1148 63.1935 29.1155C62.8733 29.1155 62.553 29.1155 62.2334 29.1155C62.1722 29.1104 62.1116 29.1001 62.0522 29.0846C61.9923 29.0702 61.9315 29.0591 61.8703 29.0516C61.4391 29.0242 61.0078 28.9996 60.5766 28.9729C60.5205 28.9692 60.4646 28.9619 60.4094 28.9512C60.1882 28.9114 59.9624 28.9024 59.7387 28.9245C59.4423 28.9502 59.1452 28.9664 58.8474 28.9729C58.1177 28.9898 57.3872 28.9989 56.6568 29.0109C56.0732 29.0207 55.4895 29.039 54.9051 29.0361C54.4957 29.0361 54.0862 29.0144 53.6774 28.9835C53.0622 28.9371 52.4476 28.8936 51.8296 28.9048C51.234 28.9153 50.6356 28.9104 50.0428 28.916C49.2449 28.9238 48.4471 28.9357 47.6499 28.9455L47.6457 28.9287ZM8.28062 27.3751L8.24059 27.4011C8.23286 27.4172 8.2146 27.4376 8.21881 27.4488C8.22324 27.4575 8.22973 27.4648 8.23769 27.4704C8.24565 27.4759 8.25485 27.4793 8.26447 27.4805C8.27641 27.4805 8.29467 27.4538 8.29607 27.4383C8.29452 27.4165 8.2893 27.3951 8.28062 27.3751Z" fill="black"/>
<path id="Vector_3" d="M70.5249 20.6702C70.0923 20.6702 69.6596 20.6702 69.2277 20.6702C69.1273 20.6638 69.0273 20.6511 68.9285 20.6323C68.9011 20.6281 68.8737 20.6168 68.8463 20.6154C68.505 20.5916 68.1643 20.56 67.823 20.5515C67.6726 20.5582 67.5232 20.5799 67.377 20.6161C67.3611 20.6204 67.3461 20.6278 67.3331 20.638C67.3201 20.6481 67.3092 20.6607 67.3012 20.6751C67.2541 20.7826 67.2141 20.8922 67.1747 21.0024C67.1614 21.039 67.1747 21.0874 67.1509 21.1155C66.9935 21.3262 66.9711 21.5875 66.917 21.8305C66.8083 22.2732 66.6211 22.6928 66.3642 23.0694C66.2364 23.2675 66.1072 23.4649 65.98 23.6629C65.8726 23.8308 65.7244 23.8582 65.5699 23.7374C65.5341 23.7093 65.4996 23.6833 65.461 23.6573C65.3079 23.5463 65.2756 23.4185 65.3711 23.2506C65.454 23.1046 65.5488 22.9648 65.6366 22.8208C65.9477 22.2988 66.1712 21.7294 66.2982 21.1352C66.379 20.7791 66.4829 20.4286 66.5707 20.0739C66.641 19.8014 66.6929 19.5261 66.7597 19.2536C66.8264 18.9811 66.9093 18.7128 66.9704 18.4389C67.0132 18.2422 67.0258 18.0385 67.0596 17.8398C67.0799 17.7197 67.115 17.6024 67.1438 17.4837C67.1726 17.365 67.1972 17.2667 67.2232 17.1578C67.3152 16.7722 67.3861 16.3796 67.5041 16.0017C67.5997 15.6955 67.6446 15.3802 67.7296 15.0739C67.7998 14.8253 67.8799 14.5823 67.9508 14.333C67.9907 14.1996 68.0238 14.0644 68.0499 13.9277C68.1531 13.3574 68.3849 12.8363 68.6511 12.3278C68.7445 12.1487 68.8428 11.9717 68.932 11.7912C69.024 11.6248 69.1287 11.4658 69.2453 11.3157C69.3906 11.1099 69.5171 10.8943 69.6456 10.6737C69.7039 10.5747 69.6709 10.5101 69.555 10.4996C69.4611 10.4961 69.367 10.5013 69.274 10.515C69.1812 10.5336 69.0874 10.5474 68.9931 10.5564C68.5949 10.5614 68.1952 10.5607 67.7991 10.5564C67.7158 10.5531 67.6334 10.5385 67.554 10.5129C67.2829 10.4342 67.016 10.3991 66.7491 10.5305C66.6974 10.5513 66.6418 10.5607 66.5862 10.5578C65.6815 10.5578 64.7769 10.5578 63.8723 10.5578C63.6986 10.5578 63.5251 10.5593 63.3519 10.5621C63.3127 10.5621 63.2736 10.5663 63.2353 10.5747C63.078 10.6112 63.04 10.6737 63.0787 10.829L63.3231 11.8059C63.4003 12.1149 63.4778 12.424 63.5555 12.733C63.5647 12.7653 63.5759 12.797 63.5893 12.8278C63.6546 12.9894 63.6792 13.0069 63.84 12.9606C64.1659 12.8672 64.6126 12.9985 64.8022 13.3117C64.9055 13.4845 65.0319 13.6461 65.1148 13.828C65.1965 13.9829 65.2339 14.1574 65.2229 14.3323C65.2065 14.4366 65.1845 14.54 65.1569 14.642C65.101 14.9307 64.9411 15.1889 64.7074 15.3675C64.5298 15.5123 64.3397 15.6408 64.1392 15.7517C64.0846 15.774 64.0388 15.8135 64.0088 15.8642C63.9787 15.9149 63.9661 15.9741 63.9727 16.0326C63.9812 16.4091 63.9819 16.7855 63.9798 17.162C63.9869 17.4428 63.9634 17.7235 63.9095 17.9992C63.8723 18.1685 63.8604 18.3441 63.8393 18.5161C63.771 19.0391 63.6549 19.5547 63.4923 20.0564C63.4221 20.2671 63.3371 20.4778 63.2865 20.6948C63.1643 21.2174 62.9466 21.702 62.7113 22.1803C62.5912 22.4261 62.469 22.6719 62.2639 22.8679C62.1937 22.9325 62.1516 23.0224 62.0876 23.0926C61.931 23.2675 61.7737 23.4438 61.6072 23.6074C61.5457 23.6635 61.4743 23.7076 61.3965 23.7374C61.1156 23.8516 60.8347 23.9621 60.5537 24.0689C60.3518 24.1501 60.1427 24.2127 59.9293 24.2557C59.7636 24.2859 59.5915 24.2824 59.4377 24.3259C59.2926 24.3649 59.1426 24.3826 58.9924 24.3786C58.9589 24.3832 58.9248 24.3801 58.8927 24.3695C58.7445 24.2936 58.585 24.3224 58.4291 24.3105C58.3413 24.2995 58.2541 24.2841 58.1679 24.2641C58.1517 24.2641 58.1362 24.2529 58.1194 24.2508C57.9206 24.2248 57.7212 24.2016 57.5224 24.1721C57.4505 24.1589 57.38 24.1391 57.3117 24.1131C57.1393 24.0643 56.97 24.0052 56.8046 23.9361C56.6438 23.8603 56.4998 23.75 56.3453 23.6601C56.1282 23.533 55.9063 23.4157 55.6914 23.2858C55.4746 23.1535 55.2841 22.9823 55.1295 22.7808C55.0403 22.6663 54.9588 22.5448 54.8675 22.4296C54.746 22.2786 54.68 22.1016 54.6006 21.9274C54.4918 21.6886 54.4482 21.4358 54.3899 21.1857C54.363 21.0891 54.3275 20.9951 54.2839 20.9048C54.2145 20.7503 54.18 20.5825 54.1827 20.4132C54.1827 20.2025 54.1827 19.9967 54.1827 19.7895C54.1975 19.1756 54.123 18.5674 54.0781 17.9571C54.0451 17.5153 54.0465 17.07 54.0451 16.6268C54.0409 15.8065 54.0338 14.9854 54.0521 14.1686C54.0648 13.5962 54.1223 13.0252 54.149 12.4528C54.1544 12.2457 54.1493 12.0385 54.1336 11.8319C54.1048 11.2988 54.0816 10.765 54.036 10.2341C54.0103 9.938 53.9612 9.64444 53.8892 9.35613C53.8372 9.15245 53.7283 8.96352 53.6433 8.76897C53.5872 8.64044 53.5225 8.51543 53.5373 8.36723C53.5534 8.19867 53.6356 8.11368 53.8063 8.10877C53.958 8.10455 54.1097 8.10877 54.2614 8.10877C54.3843 8.10526 54.5079 8.08138 54.6301 8.0891C54.9654 8.1007 55.3011 8.09085 55.6352 8.0596C55.9043 8.0512 56.1737 8.05753 56.4422 8.07857C56.599 8.08594 56.7554 8.10141 56.9107 8.12492C56.9887 8.14083 57.059 8.18279 57.1101 8.24392C57.1611 8.30506 57.1899 8.38172 57.1916 8.46135C57.1958 8.51191 57.1916 8.56248 57.1916 8.61305C57.1916 9.32102 57.1958 10.0297 57.1916 10.7376C57.1916 10.9842 57.1607 11.2293 57.1452 11.4765C57.1375 11.5945 57.1305 11.7118 57.1291 11.8277C57.12 12.3446 57.1291 12.8622 57.1024 13.3778C57.0322 14.8274 57.0645 16.2771 57.0666 17.726C57.0666 18.1636 57.0968 18.6018 57.1319 19.0387C57.1537 19.3042 57.2148 19.5668 57.2527 19.8309C57.2724 19.9714 57.2653 20.1119 57.3307 20.2411C57.3686 20.3155 57.396 20.3956 57.4297 20.4722C57.4513 20.5049 57.4701 20.5395 57.4859 20.5754C57.5652 20.8718 57.771 21.0874 57.9466 21.3269C58.1302 21.5673 58.3474 21.7802 58.5914 21.959C58.8788 22.1731 59.1946 22.3461 59.5297 22.4731C59.6001 22.4927 59.673 22.5012 59.746 22.4984C59.9806 22.5132 60.2159 22.5202 60.4484 22.5413C60.5779 22.5476 60.7069 22.521 60.8234 22.464C61.0454 22.3704 61.2659 22.2727 61.485 22.1711C61.7967 22.027 62.0483 21.7786 62.1965 21.4688C62.4437 20.9905 62.6011 20.4855 62.7457 19.9714C62.8216 19.7031 62.856 19.4236 62.9094 19.1489C62.9459 18.9621 62.9874 18.7767 63.0197 18.5871C63.052 18.3974 63.0899 18.2008 63.1039 18.0055C63.1294 17.5847 63.1058 17.1623 63.0337 16.7469C63 16.5151 62.9459 16.2855 62.8975 16.0551C62.8687 15.9189 62.79 15.869 62.632 15.8971C62.4605 15.9267 62.285 15.9243 62.1143 15.8901C61.6852 15.8086 61.405 15.3542 61.3867 15.0199C61.3759 14.7039 61.4204 14.3885 61.518 14.0878C61.5215 14.0714 61.528 14.0557 61.537 14.0415C61.7042 13.8399 61.8489 13.6166 62.0862 13.4796C62.1861 13.4291 62.2817 13.3706 62.3721 13.3047C62.4908 13.2106 62.5041 13.0751 62.4711 12.936C62.4248 12.7393 62.3756 12.5427 62.325 12.3474C62.2351 12.0005 62.1431 11.6535 62.0518 11.3073C61.9451 10.9006 61.8292 10.4967 61.7344 10.088C61.6189 9.60776 61.4684 9.13663 61.2842 8.67837C61.2284 8.55089 61.1881 8.4172 61.1641 8.28014C61.1423 8.1186 61.1858 8.06944 61.3474 8.06944C61.6985 8.06944 62.0497 8.02449 62.4065 8.07506C62.79 8.13511 63.1805 8.13511 63.564 8.07506C63.5872 8.07106 63.6107 8.06895 63.6342 8.06873C64.0837 8.06873 64.5353 8.04415 64.982 8.07857C65.5832 8.12422 66.183 8.10807 66.7842 8.10455C67.1993 8.10455 67.6151 8.05399 68.0288 8.07295C69.9097 8.15934 71.792 8.087 73.6728 8.11439C73.8414 8.12153 74.0102 8.11989 74.1785 8.10947C74.3794 8.09191 74.5669 8.15091 74.7587 8.18462C74.8767 8.20499 74.9174 8.26539 74.9076 8.39041C74.899 8.49128 74.8837 8.59146 74.8619 8.69031C74.8254 8.86519 74.7818 9.04148 74.7432 9.21426C74.7351 9.25265 74.7302 9.29165 74.7285 9.33085C74.6386 10.876 74.6702 12.4303 74.6758 13.9811C74.6814 15.5319 74.7004 17.0932 74.7032 18.6496C74.7032 19.3906 74.6765 20.1308 74.6723 20.8718C74.6723 21.3375 74.6849 21.8038 74.6976 22.2695C74.7042 22.5646 74.8106 22.8489 74.9996 23.0758C75.0497 23.1322 75.0873 23.1986 75.11 23.2707C75.1326 23.3427 75.1397 23.4187 75.1309 23.4937C75.126 23.5379 75.1309 23.5836 75.1309 23.6285C75.1309 23.8034 75.119 23.8125 74.9392 23.8301C74.8774 23.8364 74.8156 23.8392 74.7537 23.8399L72.3798 23.8743C72.3461 23.8743 72.3124 23.8743 72.2787 23.8743C72.0876 23.8596 72.0483 23.8167 72.049 23.6229C72.049 23.3981 72.049 23.1734 72.0546 22.9486C72.0589 22.8593 72.0709 22.7704 72.0905 22.6831C72.1155 22.6022 72.1118 22.5151 72.0799 22.4366C72.0624 22.4016 72.0537 22.3627 72.0546 22.3235C72.0603 22.0995 72.0687 21.8747 72.0785 21.6507C72.0905 21.3873 72.1094 21.1246 72.1164 20.8613C72.1164 20.7004 72.0919 20.6758 71.9296 20.6744C71.6662 20.6744 71.4015 20.6744 71.1374 20.6744H70.5305L70.5249 20.6702ZM71.2217 18.3988C71.426 18.3834 71.6501 18.37 71.8734 18.3497C71.9949 18.3384 72.0237 18.3019 72.0455 18.1825C72.0556 18.122 72.0711 18.0625 72.0919 18.0048C72.1328 17.8999 72.1458 17.7862 72.1298 17.6747C72.1232 17.6081 72.1244 17.5409 72.1333 17.4746C72.1445 17.3523 72.1698 17.2308 72.1733 17.1086C72.1909 16.5201 72.2014 15.9308 72.2183 15.3415C72.2239 15.1308 72.2302 14.9145 72.2513 14.7024C72.3256 13.885 72.3352 13.0631 72.2801 12.2442C72.2688 12.0595 72.2513 11.8747 72.2379 11.69C72.2225 11.4793 72.2063 11.2686 72.1951 11.0523C72.1892 10.9805 72.1932 10.9081 72.207 10.8374C72.2422 10.6709 72.1747 10.5276 72.0111 10.4827C71.8863 10.4509 71.7589 10.4302 71.6304 10.4209C71.5685 10.4184 71.5069 10.4306 71.4505 10.4563C71.3942 10.4821 71.3446 10.5207 71.3059 10.5691C71.2397 10.6439 71.1605 10.706 71.0721 10.7524C70.8727 10.8469 70.7028 10.9938 70.5804 11.1773C70.4877 11.3108 70.4027 11.4505 70.3044 11.5805C70.1944 11.7357 70.0738 11.883 69.9434 12.0215C69.8033 12.1597 69.6904 12.3229 69.6105 12.5026C69.3998 12.9795 69.1891 13.4564 68.9784 13.9319C68.8784 14.1567 68.8051 14.3924 68.7599 14.6343C68.7276 14.8049 68.6988 14.977 68.6581 15.1463C68.5633 15.5445 68.4678 15.9434 68.3624 16.3403C68.2381 16.8031 68.2219 17.2814 68.1517 17.7506C68.1441 17.8177 68.146 17.8856 68.1573 17.9521C68.1826 18.1397 68.2599 18.2218 68.4453 18.2499C68.5617 18.2666 68.6789 18.2767 68.7965 18.2801C69.2108 18.297 69.6259 18.3068 70.0403 18.3265C70.428 18.3525 70.8143 18.3771 71.2217 18.4016V18.3988Z" fill="black"/>
<path id="Vector_4" d="M34.2079 18.2671C34.2079 17.4636 34.215 16.6601 34.2044 15.8566C34.1995 15.5055 34.1574 15.1543 34.1342 14.7982C34.1138 14.4618 34.1138 14.124 34.0787 13.7889C33.9495 12.5338 34.0457 11.2738 33.9972 10.0173C33.9825 9.63667 33.927 9.2581 33.8905 8.87884C33.877 8.728 33.8723 8.5765 33.8764 8.42512C33.8806 8.30643 33.9389 8.25656 34.0583 8.24673C34.1251 8.239 34.1953 8.239 34.2655 8.239C34.8106 8.239 35.3556 8.239 35.9006 8.239C35.9949 8.23078 36.0887 8.21742 36.1815 8.19897C36.2867 8.18365 36.3927 8.17428 36.499 8.17087C36.6844 8.17087 36.8698 8.1793 37.0552 8.18211C37.261 8.18562 37.2835 8.2074 37.2723 8.42021C37.2645 8.57753 37.2519 8.73415 37.2428 8.89148C37.2238 9.21596 37.2098 9.54185 37.1866 9.86634C37.1613 10.2133 37.148 10.5624 37.0925 10.9044C37.0096 11.4199 37.0447 11.9354 37.0454 12.4496C37.0454 12.7361 37.0686 13.0227 37.0637 13.3085C37.0588 13.5944 37.0321 13.8704 37.0145 14.1513C37.004 14.3248 36.992 14.4983 36.9815 14.6725C36.9752 14.7884 37.0321 14.853 37.1381 14.9022C37.5595 15.0993 37.9784 15.3016 38.3946 15.509C38.5619 15.5886 38.7219 15.6826 38.8729 15.7899C39.0135 15.8924 39.1397 16.0134 39.248 16.1495C39.4868 16.4543 39.7206 16.7648 39.9328 17.0886C40.1566 17.411 40.3539 17.7511 40.5227 18.1056C40.6892 18.4834 40.9301 18.7981 41.1914 19.1057C41.3585 19.3031 41.591 19.3866 41.8277 19.4653C41.9239 19.4962 42.0208 19.5257 42.1192 19.5468C42.2175 19.5678 42.2596 19.5383 42.2751 19.4302C42.2772 19.4021 42.2772 19.374 42.2751 19.3459C42.2667 18.947 42.266 18.548 42.247 18.1519C42.2322 17.8443 42.2034 17.536 42.1655 17.2304C42.1023 16.7142 42.1297 16.1973 42.1346 15.6811C42.1388 15.2716 42.169 14.8621 42.1908 14.4527C42.2189 13.9371 42.2667 13.4216 42.247 12.9075C42.2252 12.3351 42.1985 11.7627 42.1866 11.1903C42.181 10.9269 42.2055 10.6635 42.2154 10.4001C42.2196 10.2941 42.2266 10.1894 42.2217 10.0813C42.2112 9.84527 42.1957 9.60998 42.1775 9.37891C42.1711 9.29603 42.148 9.21456 42.1339 9.13238C42.123 9.07785 42.1153 9.02275 42.1107 8.96733C42.1141 8.84387 42.1109 8.72031 42.1009 8.5972C42.063 8.34506 42.2322 8.23127 42.438 8.19897C42.7308 8.14394 43.0279 8.11527 43.3258 8.11328C43.8427 8.12452 44.3596 8.11328 44.8766 8.11328C45.1456 8.11328 45.2565 8.21301 45.2537 8.48693C45.2537 8.85215 45.2355 9.21667 45.2228 9.58189C45.2172 9.73851 45.2095 9.89583 45.1968 10.0525C45.1814 10.2477 45.1575 10.4423 45.14 10.6368C45.1301 10.7436 45.1224 10.8475 45.1203 10.9564C45.1203 11.153 45.1238 11.3497 45.1161 11.5463C45.1105 11.691 45.088 11.8357 45.0739 11.9797C45.0655 12.0696 45.0543 12.1588 45.0543 12.2487C45.0543 13.423 45.0543 14.5973 45.0543 15.7717C45.0616 15.8946 45.0759 16.017 45.0971 16.1383C45.1048 16.2085 45.1147 16.2837 45.1161 16.356C45.1161 16.5667 45.1112 16.7837 45.1217 16.9966C45.1308 17.1918 45.1575 17.3864 45.1758 17.5816C45.1814 17.6371 45.1856 17.6933 45.1863 17.7495C45.1926 18.3731 45.1926 18.9968 45.2046 19.6205C45.2207 20.4345 45.239 21.2493 45.2692 22.0633C45.2853 22.5001 45.3317 22.9356 45.3556 23.3724C45.3563 23.507 45.3477 23.6415 45.3296 23.7749C45.3281 23.8093 45.3141 23.842 45.2901 23.8667C45.2662 23.8914 45.234 23.9065 45.1996 23.909C45.1384 23.9169 45.0767 23.9209 45.0149 23.921C44.5156 23.9315 44.0155 23.9399 43.5154 23.9512C43.4594 23.9471 43.4031 23.9528 43.349 23.968C43.1383 24.0516 42.9163 24.0221 42.6986 24.0193C42.4654 24.0193 42.3474 23.8908 42.3257 23.6562C42.2784 23.2429 42.2647 22.8264 42.2849 22.4109C42.294 22.2908 42.2547 22.1665 42.2603 22.045C42.2828 21.5632 42.3144 21.0814 42.2449 20.5996C42.2161 20.4001 42.1634 20.3496 41.9639 20.3488C41.9021 20.3488 41.8403 20.3594 41.7792 20.3545C41.7296 20.3561 41.6806 20.3426 41.6388 20.3158C41.5479 20.2402 41.4403 20.1874 41.3248 20.162C40.9793 20.0686 40.7166 19.8572 40.4904 19.5903C40.4033 19.4878 40.3127 19.3873 40.2165 19.2932C40.132 19.2033 40.0649 19.0985 40.0184 18.9842C39.8302 18.5895 39.6406 18.1948 39.439 17.8071C39.3675 17.6928 39.2844 17.5862 39.1911 17.4889C39.0134 17.2719 38.8322 17.0577 38.6559 16.8392C38.6116 16.7885 38.5777 16.7296 38.5562 16.6657C38.5405 16.6086 38.5133 16.5553 38.4762 16.5092C38.4391 16.463 38.393 16.425 38.3405 16.3974C38.1245 16.2673 37.901 16.1501 37.6712 16.0463C37.5121 15.9948 37.3467 15.9657 37.1796 15.9599C37.0693 15.9487 37.0391 15.9838 37.0328 16.0947C37.0145 16.3413 36.9984 16.5864 36.9829 16.8336C36.9829 16.8617 36.9829 16.8898 36.9829 16.9179C36.9984 17.2375 37.0257 17.557 37.0265 17.8766C37.0307 19.4723 37.0307 21.068 37.0265 22.6638C37.0265 22.7972 36.992 22.9307 36.9885 23.0641C36.9783 23.2598 36.9804 23.4559 36.9948 23.6513C37.0138 23.8564 36.9885 23.9069 36.7778 23.9104C36.5671 23.914 36.374 23.9385 36.1836 23.836C36.1306 23.817 36.0739 23.8105 36.0179 23.817C35.5122 23.817 35.0065 23.817 34.5008 23.817C34.4341 23.817 34.3674 23.8311 34.3006 23.8353C34.2506 23.8395 34.2004 23.8395 34.1503 23.8353C34.1305 23.8354 34.1109 23.8313 34.0928 23.8233C34.0746 23.8153 34.0584 23.8036 34.0451 23.7888C34.0319 23.7741 34.0219 23.7567 34.0158 23.7379C34.0097 23.719 34.0077 23.6991 34.0099 23.6794C34.0099 23.6288 34.0057 23.5782 34.005 23.5277C34.005 23.3254 33.9993 23.1231 34.005 22.9208C34.005 22.7025 34.0264 22.4847 34.0689 22.2705C34.1237 22.0268 34.1082 21.7676 34.1391 21.5176C34.2627 20.5441 34.2445 19.5671 34.2367 18.5902C34.2367 18.4834 34.2255 18.3795 34.2199 18.2699L34.2079 18.2671Z" fill="black"/>
<path id="Vector_5" d="M24.5068 7.9657C24.6684 7.97132 24.844 7.9952 25.0076 7.91162C25.3335 7.91162 25.6587 7.91162 25.9839 7.92426C26.1349 7.92918 26.2852 7.95798 26.4355 7.97553C26.4634 7.97649 26.4911 7.98001 26.5184 7.98607C26.9633 8.11768 27.396 8.28782 27.8114 8.49457C28.1626 8.67999 28.5172 8.86119 28.8649 9.05645C29.0273 9.14558 29.1792 9.25253 29.3179 9.37531C29.5602 9.59866 29.8355 9.78759 30.0343 10.0587C30.2562 10.3614 30.4922 10.6543 30.7205 10.9521C30.7466 10.9816 30.7675 11.0153 30.7823 11.0518C30.8912 11.403 31.0878 11.719 31.1784 12.08C31.2378 12.2954 31.2847 12.5139 31.3189 12.7346C31.3456 12.9327 31.4214 13.1237 31.4594 13.3204C31.5103 13.5488 31.5494 13.7797 31.5767 14.0122C31.597 14.2074 31.5851 14.4055 31.5865 14.6022C31.5892 14.7658 31.6321 14.9262 31.7115 15.0692C31.7315 15.1128 31.7624 15.1505 31.8011 15.1788C31.8398 15.2071 31.8851 15.225 31.9327 15.2308C32.0537 15.2482 32.1734 15.2737 32.2909 15.3073C32.3438 15.325 32.391 15.3562 32.4279 15.3979C32.5961 15.5725 32.7296 15.7775 32.8212 16.0019C32.8589 16.1132 32.8711 16.2316 32.857 16.3482C32.8375 16.6296 32.7643 16.9048 32.6414 17.1587C32.6037 17.2617 32.5386 17.3524 32.4533 17.4212C32.3679 17.49 32.2654 17.5342 32.1568 17.5492C31.9866 17.581 31.8143 17.6003 31.6413 17.6068C31.4734 17.6068 31.4186 17.8491 31.4643 18.0078C31.4962 18.0966 31.506 18.1918 31.4931 18.2853C31.4473 18.5112 31.4301 18.742 31.4418 18.9722C31.4467 19.2166 31.3716 19.4455 31.3301 19.6815C31.2824 19.9498 31.1349 20.169 31.033 20.4099C30.9963 20.4793 30.9559 20.5468 30.9122 20.6121C30.8722 20.6824 30.842 20.7624 30.7978 20.8313C30.7043 20.9774 30.6102 21.1242 30.5049 21.2611C30.2942 21.5322 30.0835 21.797 29.8664 22.0646C29.8597 22.0734 29.8522 22.0817 29.844 22.0892C29.5104 22.4045 29.1978 22.7431 28.8235 23.0149C28.7261 23.0893 28.6375 23.1746 28.5594 23.2691C28.4403 23.404 28.3007 23.5192 28.1457 23.6105C27.9729 23.7151 27.8114 23.8408 27.6302 23.9272C27.3801 24.0459 27.1554 24.2306 26.8625 24.2475C26.8454 24.2485 26.8288 24.2535 26.814 24.2622C26.5584 24.4252 26.2669 24.4729 25.9762 24.5263C25.9221 24.5361 25.8722 24.5678 25.8188 24.5825C25.6775 24.6224 25.5287 24.628 25.3848 24.5987C25.0786 24.5411 24.7611 24.5439 24.4493 24.5144C24.2048 24.4817 23.9699 24.3977 23.7602 24.2679C23.638 24.1976 23.5137 24.1351 23.3908 24.0691C23.3773 24.059 23.3621 24.0513 23.3459 24.0466C22.9687 24.0241 22.7138 23.7509 22.4075 23.5866C22.2497 23.5144 22.0987 23.4278 21.9566 23.3281C21.648 23.0942 21.3563 22.8389 21.0836 22.564C20.8322 22.2957 20.5505 22.0505 20.3518 21.7338C20.2506 21.5722 20.1411 21.4184 20.0322 21.2604C19.9344 21.1309 19.8457 20.9948 19.7667 20.853C19.5892 20.4973 19.448 20.1246 19.3453 19.7405C19.2343 19.2706 19.1691 18.791 19.1508 18.3084C19.1381 18.1027 19.1072 17.7564 19.0728 17.5527C19.0571 17.4956 19.0218 17.4459 18.9731 17.4123C18.9187 17.3722 18.8537 17.3495 18.7862 17.3469C18.5987 17.3533 18.4386 17.2823 18.2735 17.2065C18.1964 17.1778 18.1274 17.1308 18.0724 17.0697C18.0173 17.0085 17.9779 16.935 17.9575 16.8553C17.862 16.4613 17.7896 16.2035 17.8416 15.7948C17.8524 15.6882 17.8904 15.5863 17.9519 15.4986C18.0134 15.4109 18.0963 15.3405 18.1928 15.294C18.4168 15.1781 18.6528 15.0833 18.853 14.9252C18.907 14.8977 18.9672 14.8844 19.0278 14.8866C19.1578 14.8719 19.2034 14.8424 19.2076 14.711C19.2189 14.3599 19.3418 14.0298 19.3966 13.687C19.4457 13.3822 19.5005 13.0788 19.6333 12.7964C19.6464 12.765 19.6511 12.7305 19.6466 12.6967C19.6143 12.4228 19.7274 12.1798 19.8089 11.9311C19.8791 11.7134 19.9725 11.502 20.0378 11.2829C20.1044 11.0859 20.2168 10.9075 20.3658 10.7624C20.6418 10.4668 20.9052 10.169 21.0471 9.77494C21.0941 9.64501 21.2276 9.53053 21.3477 9.44414C21.6989 9.18849 22.0669 8.94828 22.4321 8.70808C22.5082 8.66028 22.5933 8.6285 22.6821 8.61467C22.87 8.58057 23.0512 8.51654 23.2187 8.42504C23.4639 8.30142 23.7104 8.18062 23.952 8.04928C24.1276 7.95798 24.3137 7.97905 24.5068 7.9657ZM21.8056 18.1139H21.7972C21.8056 18.2656 21.8049 18.418 21.8253 18.5676C21.8618 18.8338 21.9096 19.0986 21.9552 19.3634C21.9622 19.4069 21.9805 19.4484 21.9917 19.4919C22.0078 19.5392 22.0184 19.5883 22.0233 19.638C22.0283 19.8845 22.0233 20.1296 22.0901 20.3726C22.1568 20.6157 22.1975 20.8847 22.3148 21.1242C22.3636 21.2426 22.4044 21.3641 22.437 21.488C22.4799 21.6144 22.5227 21.7408 22.567 21.8658C22.5922 21.9396 22.6203 22.0119 22.6491 22.0843C22.672 22.1529 22.6997 22.2198 22.732 22.2844C22.9042 22.5807 23.1169 22.8514 23.3641 23.0886C23.406 23.1337 23.4546 23.1721 23.5081 23.2024C23.6879 23.2902 23.8298 23.4257 23.9822 23.5494C24.0525 23.603 24.1304 23.6461 24.2133 23.6772C24.3172 23.7179 24.4275 23.7397 24.5321 23.7783C24.6817 23.8417 24.8412 23.8786 25.0034 23.8872C25.3398 23.8928 25.6755 23.909 26.0113 23.8872C26.0832 23.8802 26.154 23.8641 26.222 23.8394C26.3624 23.7938 26.4931 23.7221 26.6349 23.699C26.8049 23.6607 26.9629 23.5814 27.095 23.4679C27.1933 23.3934 27.2909 23.3169 27.3829 23.234C27.4529 23.1778 27.5135 23.1109 27.5627 23.0359C27.7208 22.7592 27.8718 22.479 28.0193 22.1931C28.0547 22.1229 28.0752 22.0462 28.0797 21.9677C28.0934 21.8338 28.1322 21.7037 28.1942 21.5842C28.2398 21.4816 28.2953 21.384 28.3388 21.2815C28.3988 21.1485 28.4513 21.0122 28.4962 20.8734C28.5286 20.7548 28.5402 20.6315 28.5306 20.5089C28.5257 20.2851 28.5334 20.0611 28.5538 19.8382C28.5734 19.5411 28.6008 19.2447 28.624 18.9483C28.6444 18.6968 28.6718 18.4454 28.6823 18.1933C28.6921 17.9643 28.5924 17.6089 28.2988 17.5612C28.2651 17.5555 28.2321 17.5506 28.1991 17.5443C28.0957 17.5317 27.9974 17.4928 27.9134 17.4313C27.8294 17.3698 27.7626 17.2878 27.7194 17.1931C27.6793 17.1067 27.6239 17.0267 27.588 16.9389C27.5516 16.852 27.525 16.7613 27.5087 16.6685C27.4848 16.5133 27.4827 16.4957 27.4581 16.3405C27.4215 16.1562 27.454 15.965 27.5494 15.8032C27.68 15.5925 27.8303 15.3972 27.9778 15.2013C28.0166 15.1528 28.0693 15.1175 28.1288 15.1001C28.3395 15.0446 28.5502 14.999 28.761 14.9519C28.8867 14.9245 28.9344 14.8859 28.9197 14.7574C28.8916 14.5249 28.8375 14.2959 28.8431 14.055C28.8431 14.0248 28.8171 13.9946 28.8038 13.9637C28.7144 13.7333 28.6648 13.4894 28.657 13.2424C28.6338 12.9531 28.65 12.6602 28.6479 12.3694C28.6492 12.3245 28.6459 12.2795 28.638 12.2353C28.5769 11.9543 28.5074 11.6734 28.4498 11.3868C28.3892 11.0916 28.2838 10.8074 28.1373 10.544C28.0527 10.3809 27.9917 10.2066 27.9561 10.0264C27.949 9.9741 27.9276 9.9248 27.8942 9.8839C27.8609 9.843 27.8169 9.81211 27.7671 9.79461C27.658 9.74961 27.5624 9.677 27.4897 9.58391C27.3943 9.46605 27.2928 9.35328 27.1856 9.24608C26.9278 8.99885 26.6392 8.79939 26.2775 8.73337C26.151 8.71019 26.0246 8.68982 25.9017 8.65541C25.6531 8.58939 25.3958 8.56238 25.139 8.57534C24.9711 8.58096 24.8032 8.60132 24.6347 8.60413C24.488 8.60453 24.3462 8.65677 24.2343 8.75163C24.1802 8.80056 24.1189 8.84084 24.0524 8.87103C23.8087 8.96584 23.6598 9.1632 23.5053 9.35635C23.4428 9.43431 23.3768 9.50946 23.3093 9.5832C23.2763 9.62043 23.2391 9.65344 23.1998 9.68715C22.9519 9.91612 22.8156 10.2216 22.6491 10.5054C22.5936 10.6023 22.5466 10.7038 22.5087 10.8088C22.4079 11.1007 22.3522 11.4062 22.3436 11.7148C22.3466 11.7864 22.3359 11.858 22.312 11.9255C22.1735 12.2268 22.1004 12.554 22.0978 12.8856C22.0978 12.9467 22.0887 13.0085 22.0816 13.0696C22.0662 13.2031 22.0395 13.3351 22.0346 13.4686C22.0255 13.7158 22.0283 13.9602 22.0276 14.2103C22.0276 14.4125 22.0276 14.6148 22.0276 14.8171C22.0215 14.8614 22.0308 14.9065 22.0539 14.9449C22.0771 14.9832 22.1126 15.0125 22.1547 15.0278C22.3036 15.0903 22.4483 15.164 22.5922 15.2385C22.7145 15.3017 22.8662 15.3333 22.9188 15.4843C23.0049 15.7094 23.0788 15.9389 23.1401 16.1719C23.1913 16.3903 23.2054 16.476 23.1317 16.698C23.0945 16.7919 23.0668 16.8893 23.0488 16.9887C23.0242 17.1826 22.8879 17.2746 22.732 17.3195C22.4813 17.3898 22.2348 17.4909 21.9594 17.4663C21.8421 17.4551 21.8112 17.4958 21.8056 17.6159C21.8 17.736 21.8056 17.9959 21.8056 18.1139Z" fill="black"/>
<path id="Vector_6" d="M10.8552 16.2378C10.8552 16.7715 10.8552 17.3053 10.8552 17.8391C10.8554 18.4969 10.9387 19.152 11.1031 19.7888C11.1453 19.9511 11.1685 20.1182 11.205 20.2805C11.2373 20.428 11.2752 20.574 11.3117 20.7208C11.3546 20.8584 11.3859 20.9994 11.4051 21.1422C11.4227 21.4077 11.5252 21.6395 11.6418 21.8692C11.677 21.9394 11.7296 22.0005 11.7647 22.07C11.7924 22.1165 11.8067 22.1698 11.8062 22.2239C11.8015 22.2541 11.8056 22.285 11.8181 22.3129C11.8306 22.3408 11.8508 22.3645 11.8764 22.3812C12.1574 22.5884 12.4271 22.8082 12.7192 22.9964C12.8675 23.0865 13.0327 23.1451 13.2046 23.1685C13.4806 23.2099 13.7622 23.2177 14.0418 23.2324C14.2634 23.2372 14.4815 23.1766 14.6689 23.0582C14.833 22.9505 15.0085 22.8612 15.1922 22.7921C15.2766 22.7677 15.3549 22.726 15.4223 22.6696C15.4896 22.6133 15.5445 22.5435 15.5834 22.4648C15.7513 22.1227 15.9093 21.7758 16.0659 21.4288C16.0874 21.36 16.1031 21.2895 16.113 21.2181C16.1488 21.072 16.1916 20.9273 16.2218 20.7798C16.2409 20.6925 16.2484 20.603 16.2443 20.5136C16.2387 20.3963 16.1867 20.3683 16.0736 20.4125C15.9795 20.449 15.8889 20.4947 15.7983 20.5389C15.4956 20.6878 15.1711 20.6934 14.8438 20.6836C14.6971 20.6829 14.553 20.6447 14.4251 20.5728C14.2971 20.501 14.1896 20.3977 14.1127 20.2727C14.0323 20.1378 13.9695 19.9931 13.9259 19.8422C13.8058 19.47 13.85 19.0858 13.8598 18.7044C13.9326 18.5233 14.0176 18.3473 14.1141 18.1776C14.2119 18.0485 14.3238 17.9307 14.4477 17.8265C14.5281 17.7549 14.6316 17.7147 14.7392 17.7134C14.9569 17.6972 15.1739 17.6621 15.3924 17.6551C15.6817 17.6467 15.9655 17.6916 16.212 17.8588C16.3525 17.9536 16.481 18.0611 16.6102 18.1692C16.7158 18.2715 16.7928 18.3995 16.8336 18.5408C16.9228 18.7824 17.0148 19.024 17.0991 19.2677C17.1268 19.3468 17.1422 19.4297 17.1447 19.5135C17.1592 19.7376 17.1576 19.9625 17.1398 20.1863C17.1012 20.5087 17.0373 20.829 16.9684 21.1465C16.9236 21.3375 16.8657 21.5253 16.7949 21.7083C16.7524 21.8297 16.694 21.9449 16.6215 22.0511C16.4648 22.2695 16.2921 22.4767 16.1263 22.6895C16.0788 22.7448 16.0361 22.804 15.9985 22.8665C15.8903 23.0737 15.7175 23.2135 15.5328 23.3441C15.3468 23.4889 15.1531 23.6237 14.9527 23.7479C14.7569 23.8555 14.552 23.9452 14.3402 24.0162C14.1338 24.0865 13.9104 24.0865 13.6955 24.1174C13.1526 24.201 12.6104 24.1932 12.0661 24.1715C11.9711 24.1673 11.8775 24.1471 11.7893 24.1118C11.5878 24.0317 11.3679 23.9769 11.2218 23.7978C11.1978 23.7743 11.1687 23.7565 11.1368 23.7458C10.9697 23.6721 10.7983 23.6054 10.6347 23.5253C10.5356 23.4754 10.4521 23.3954 10.3537 23.3399C10.19 23.2433 10.0215 23.1551 9.84875 23.0758C9.71443 23.0164 9.60251 22.9158 9.52918 22.7885C9.4545 22.6636 9.36819 22.5461 9.27142 22.4374C9.02591 22.1765 8.79406 21.9032 8.5768 21.6184C8.40632 21.3965 8.27389 21.1477 8.18489 20.8824C8.15539 20.7876 8.08797 20.7047 8.05636 20.6106C7.97961 20.4121 7.91901 20.2078 7.87516 19.9995C7.83653 19.7755 7.72907 19.5781 7.68201 19.3583C7.67147 19.3091 7.65602 19.2607 7.6476 19.2115C7.60358 18.946 7.5605 18.6808 7.51836 18.4157C7.50994 18.3602 7.51275 18.3034 7.50572 18.2479C7.48746 18.1074 7.46499 17.9712 7.44532 17.8328C7.43689 17.7724 7.43268 17.7106 7.42214 17.6495C7.4095 17.5729 7.38983 17.4971 7.37719 17.4205C7.35982 17.3329 7.34902 17.2442 7.34488 17.155C7.34067 16.8123 7.34488 16.4695 7.34067 16.1268C7.34034 15.981 7.33119 15.8353 7.31328 15.6906C7.24639 15.201 7.24993 14.7043 7.32381 14.2157C7.33505 14.1455 7.33646 14.0703 7.34488 13.998C7.36244 13.8421 7.38211 13.6861 7.39967 13.5302C7.41027 13.4637 7.41638 13.3966 7.41793 13.3293C7.41161 13.0393 7.48816 12.7675 7.56893 12.4907C7.60674 12.3614 7.63029 12.2284 7.63917 12.0939C7.66265 11.8768 7.72348 11.6653 7.81897 11.4688C7.9173 11.2448 7.97138 11.0018 8.05776 10.7721C8.14977 10.5284 8.21088 10.2762 8.34432 10.0431C8.49935 9.77612 8.70614 9.54282 8.95255 9.35688C9.0934 9.24518 9.22843 9.12633 9.3571 9.00079C9.50757 8.85669 9.68686 8.7461 9.88316 8.6763C10.0975 8.60772 10.2992 8.50452 10.4802 8.37078C10.5116 8.34741 10.5478 8.33134 10.5862 8.32373C10.7112 8.29704 10.8369 8.27386 10.9634 8.25349C11.1949 8.21416 11.418 8.13529 11.6229 8.02031C11.7535 7.95008 11.8813 7.88757 12.0351 7.90232C12.0744 7.9073 12.1143 7.90443 12.1524 7.89389C12.4488 7.79627 12.7544 7.85175 13.0557 7.83981C13.1003 7.84242 13.1445 7.84948 13.1877 7.86088C13.2686 7.88116 13.3511 7.89432 13.4342 7.90021C13.758 7.8967 14.0579 7.99363 14.3634 8.08212C14.7146 8.18396 15.0475 8.32724 15.3846 8.46069C15.7713 8.60237 16.1115 8.8478 16.3679 9.17005C16.5228 9.38947 16.6579 9.62215 16.7718 9.86538C16.8586 10.017 16.9156 10.1839 16.9396 10.357C16.945 10.3961 16.9579 10.4338 16.9776 10.468C17.1616 10.8128 17.1482 11.1949 17.1826 11.5672C17.2346 12.1347 17.0745 12.6565 16.823 13.1566C16.7598 13.2816 16.7001 13.4087 16.6348 13.533C16.6151 13.5762 16.5859 13.6144 16.5494 13.6448C16.513 13.6752 16.4701 13.697 16.4241 13.7086C16.3546 13.7295 16.2905 13.7654 16.2366 13.814C16.0104 14.0036 15.7288 14.0724 15.464 14.1827C15.4265 14.1931 15.3866 14.1911 15.3502 14.1771C15.1685 14.1218 14.9873 14.0638 14.8066 14.0029C14.6361 13.9534 14.4818 13.8598 14.3591 13.7316C14.2364 13.6033 14.1497 13.4449 14.1078 13.2725C14.0352 13.028 14.035 12.7677 14.1071 12.5231C14.1115 12.5126 14.1139 12.5014 14.1141 12.49C14.0972 12.2421 14.2237 12.0434 14.3585 11.8579C14.4396 11.7392 14.5467 11.6405 14.6717 11.5694C14.7967 11.4983 14.9363 11.4567 15.0798 11.4478C15.4473 11.4233 15.8126 11.5206 16.1193 11.7245C16.1333 11.7336 16.1481 11.7413 16.1628 11.7491C16.297 11.8193 16.3546 11.7975 16.3574 11.6493C16.3623 11.3635 16.3974 11.0713 16.2963 10.7974C16.2036 10.5459 16.0821 10.3057 15.9676 10.0627C15.9226 9.96651 15.8531 9.88153 15.8096 9.7818C15.6909 9.51982 15.471 9.37233 15.2308 9.24099C15.0974 9.16986 14.969 9.0896 14.8466 9.00079C14.7042 8.89003 14.5342 8.82033 14.355 8.79922C14.1661 8.77885 13.9778 8.74584 13.7896 8.71493C13.607 8.68086 13.4196 8.68229 13.2376 8.71915C13.0971 8.75005 12.9517 8.77112 12.8077 8.7943C12.6698 8.82387 12.5424 8.89011 12.439 8.98604C12.2985 9.10333 12.1496 9.21781 12.0106 9.33721C11.9437 9.3967 11.8839 9.46362 11.8322 9.53668C11.6763 9.76179 11.5594 10.0116 11.4866 10.2755C11.4139 10.5505 11.3639 10.831 11.337 11.1141C11.3047 11.374 11.2422 11.6311 11.1846 11.8867C11.0988 12.2234 11.0301 12.5643 10.9788 12.9079C10.9014 13.5718 10.8653 14.2399 10.8707 14.9082C10.8707 15.3521 10.8559 15.796 10.8468 16.2392L10.8552 16.2378Z" fill="black"/>
<path id="Vector_7" d="M4.71134 7.94183C4.57087 8.25156 4.5498 8.57394 4.50063 8.89702C4.44444 9.2791 4.38685 9.66117 4.33277 10.044C4.31953 10.1385 4.31156 10.2337 4.30889 10.3291C4.2815 11.2267 4.26535 12.125 4.22461 13.0226C4.20494 13.4616 4.21618 13.8977 4.23866 14.3353C4.24568 14.425 4.24568 14.5152 4.23866 14.605C4.23301 14.7569 4.26485 14.9079 4.33137 15.0447C4.34777 15.1054 4.38622 15.1578 4.43921 15.1917C4.4922 15.2256 4.55592 15.2385 4.61792 15.228C4.69346 15.2162 4.77061 15.22 4.84464 15.2391C4.91867 15.2581 4.98802 15.2921 5.04846 15.3389C5.10526 15.3751 5.16577 15.405 5.22896 15.4281C5.58576 15.5812 5.76345 15.8622 5.79084 16.2393C5.7982 16.3777 5.79538 16.5165 5.78241 16.6544C5.77869 16.8069 5.73247 16.9553 5.64897 17.0829C5.60037 17.1584 5.56055 17.2392 5.53027 17.3238C5.48111 17.4579 5.37716 17.5071 5.24933 17.5345C4.98595 17.5871 4.72328 17.6419 4.4606 17.6953C4.38404 17.7115 4.30749 17.7304 4.23023 17.7424C4.21182 17.7425 4.19365 17.7464 4.17686 17.754C4.16007 17.7615 4.14504 17.7725 4.13274 17.7862C4.12044 17.7998 4.11114 17.816 4.10543 17.8334C4.09972 17.8509 4.09773 17.8694 4.09959 17.8877C4.09959 17.9489 4.10591 18.0107 4.11223 18.0718C4.12839 18.2122 4.15227 18.3597 4.16351 18.5037C4.18598 18.8113 4.20284 19.1197 4.2218 19.4273C4.22672 19.5116 4.22882 19.7363 4.23585 19.8199C4.25481 20.0306 4.27518 20.2413 4.29555 20.4555C4.29555 20.4942 4.30187 20.5335 4.30749 20.5728C4.36929 21.0448 4.43602 21.5161 4.4922 21.9894C4.52873 22.3013 4.54839 22.6152 4.57859 22.9278C4.58983 23.05 4.6123 23.1715 4.62354 23.2937C4.63696 23.3994 4.64166 23.5061 4.63759 23.6126C4.62705 23.765 4.56735 23.8141 4.40792 23.8141C3.91628 23.8141 3.43026 23.8106 2.94142 23.8141C2.70825 23.8141 2.47788 23.8064 2.24329 23.8738C1.99256 23.9441 1.72285 23.9546 1.46088 23.9848C1.37696 23.9915 1.29265 23.9915 1.20874 23.9848C1.16969 23.981 1.13097 23.9744 1.09285 23.9651C0.876528 23.9237 0.818233 23.7882 0.92218 23.5599C0.974856 23.4447 1.09215 23.3639 1.11041 23.2277C1.14061 23.0079 1.23472 22.8014 1.2284 22.5724C1.21951 22.2297 1.21951 21.8869 1.2284 21.5442C1.24385 20.865 1.27125 20.0461 1.286 19.3669C1.29583 18.9181 1.29372 18.4686 1.29442 18.0191C1.29442 17.8365 1.27616 17.8217 1.09145 17.8084C1.02121 17.8049 0.94606 17.8 0.873718 17.7901C0.572412 17.7487 0.360303 17.5506 0.151004 17.3575C0.0904523 17.2906 0.0543117 17.2052 0.0484618 17.1152C0.0217726 16.7802 0.00351173 16.5842 0 16.2478C0.00760622 16.1366 0.0362046 16.028 0.0842814 15.9275C0.130636 15.8074 0.195252 15.695 0.252844 15.5763C0.277992 15.5136 0.320076 15.4591 0.374398 15.4189C0.42872 15.3788 0.493143 15.3545 0.560472 15.3488C0.718951 15.3373 0.870029 15.2772 0.993117 15.1767C1.02832 15.1446 1.06997 15.1205 1.11527 15.1058C1.16057 15.0912 1.20848 15.0864 1.25579 15.0917C1.27918 15.0932 1.30264 15.0932 1.32603 15.0917C1.53673 15.0917 1.5557 15.0692 1.5578 14.8578C1.5578 14.605 1.5578 14.3521 1.5578 14.1C1.56483 13.1785 1.57536 12.2577 1.57958 11.3363C1.57958 11.0785 1.57958 10.8186 1.55429 10.5637C1.53463 10.3467 1.48406 10.1331 1.44964 9.91753C1.42506 9.75669 1.40258 9.59515 1.39275 9.43361C1.37379 9.12528 1.36536 8.81625 1.34991 8.50792C1.3464 8.4412 1.32743 8.37518 1.31901 8.30846C1.30685 8.23673 1.30028 8.16417 1.29934 8.09143C1.29934 7.9615 1.35553 7.90952 1.48687 7.90671C1.66035 7.90671 1.83804 7.90671 2.00871 7.90671C2.17938 7.90671 2.35567 7.88564 2.52915 7.87581C2.57376 7.8716 2.61868 7.8716 2.6633 7.87581C3.16688 7.93972 3.67257 7.90109 4.17755 7.89969C4.24901 7.89343 4.31962 7.87977 4.38826 7.85895C4.44453 7.84176 4.50444 7.8404 4.56144 7.85502C4.61843 7.86964 4.67029 7.89967 4.71134 7.94183Z" fill="black"/>
<path id="Vector_8" d="M50.924 14.3157C50.938 14.5144 50.9521 14.6991 50.9647 14.8839C50.9637 14.9008 50.9663 14.9177 50.9721 14.9336C50.978 14.9494 50.9871 14.9639 50.9988 14.9761C51.0106 14.9883 51.0247 14.998 51.0403 15.0044C51.056 15.0109 51.0728 15.0141 51.0897 15.0138C51.0953 15.0141 51.101 15.0141 51.1066 15.0138C51.3405 14.985 51.5441 15.084 51.7527 15.162C51.7945 15.178 51.8338 15.2 51.8693 15.2273C51.9627 15.2975 52.0519 15.3727 52.1446 15.4443C52.1723 15.4635 52.1952 15.4888 52.2114 15.5183C52.2276 15.5478 52.2367 15.5807 52.2381 15.6143C52.25 15.9226 52.2718 16.231 52.2753 16.54C52.2785 16.6318 52.2628 16.7234 52.2289 16.8089C52.1951 16.8943 52.1439 16.9718 52.0786 17.0365C51.9305 17.1808 51.7623 17.3029 51.5793 17.399C51.4614 17.4674 51.3285 17.5056 51.1923 17.5099C51.0867 17.5216 50.9822 17.5416 50.8797 17.5696C50.8466 17.5752 50.8166 17.5924 50.7951 17.6181C50.7735 17.6439 50.762 17.6765 50.7624 17.7101C50.7562 17.7839 50.759 17.8582 50.7709 17.9313C50.853 18.3036 50.5672 18.5747 50.2876 18.6814C50.0704 18.7713 49.8472 18.8462 49.6197 18.9055C49.449 18.9455 49.2685 18.961 49.0951 18.8683C49.0016 18.8184 48.8977 18.7889 48.8008 18.7454C48.7057 18.7071 48.6283 18.6347 48.5837 18.5424C48.5068 18.3934 48.4381 18.2403 48.378 18.0837C48.3485 17.9761 48.3382 17.8641 48.3478 17.7529C48.3562 17.5781 48.2965 17.5015 48.1174 17.5064C47.9271 17.512 47.7367 17.5233 47.5464 17.538C47.4537 17.5508 47.3593 17.5337 47.277 17.4893C47.1947 17.4448 47.1286 17.3753 47.0885 17.2908C47.0484 17.2171 47.0049 17.1447 46.9592 17.0745C46.8845 16.9682 46.8463 16.8405 46.8504 16.7107C46.8487 16.6544 46.8419 16.5985 46.83 16.5435C46.7869 16.2313 46.8237 15.9133 46.9367 15.6192C46.9702 15.5366 47.0244 15.464 47.0941 15.4085C47.241 15.2878 47.4113 15.1986 47.5941 15.1465C47.7401 15.1112 47.8893 15.0912 48.0394 15.0868C48.1799 15.0805 48.2038 15.0503 48.2031 14.9105C48.2024 14.7708 48.1946 14.6296 48.1975 14.4891C48.2059 14.0726 48.4166 13.857 48.772 13.725C48.9543 13.6694 49.1433 13.6389 49.3339 13.6344C49.5357 13.6235 49.7381 13.6235 49.94 13.6344C50.2149 13.6481 50.4813 13.7338 50.7126 13.883C50.8804 13.9835 50.9703 14.1246 50.924 14.3157Z" fill="black"/>
</g>
</svg>
