<svg width="34" height="34" viewBox="0 0 34 34" fill="none" xmlns="http://www.w3.org/2000/svg">
<path d="M30.4142 7.84922L23.0099 0.557812C22.9103 0.458203 22.7708 0.398438 22.6247 0.398438H8.96494C6.89971 0.398438 5.22627 2.16484 5.22627 4.34297V18.8992H3.40674V28.7672H5.22627V29.657C5.22627 31.8285 6.90635 33.6016 8.96494 33.6016H26.8548C28.92 33.6016 30.5935 31.8352 30.5935 29.657V8.28086C30.5935 8.12148 30.5337 7.96211 30.4142 7.84922ZM22.4388 1.62031L28.8802 7.96875H25.3739C23.7536 7.96875 22.4388 6.67383 22.4388 5.08672V1.62031ZM29.4646 29.657C29.4646 31.1777 28.2958 32.4129 26.8548 32.4129H8.96494C7.52393 32.4129 6.35518 31.1777 6.35518 29.657V28.7672H18.7731C21.197 28.7672 23.156 26.5559 23.156 23.8332C23.156 21.1105 21.1903 18.8992 18.7731 18.8992H6.35518V4.34297C6.35518 2.82227 7.52393 1.58711 8.96494 1.58711H21.3099V5.08672C21.3099 7.33125 23.1294 9.15742 25.3739 9.15742H29.4646V29.657ZM6.89971 26.3234V21.343H8.80557C9.35674 21.343 9.78838 21.4824 10.0938 21.768C10.3993 22.0535 10.5587 22.4254 10.5587 22.8902C10.5587 23.3551 10.406 23.7336 10.0938 24.0125C9.78174 24.2914 9.3501 24.4375 8.80557 24.4375H7.72979V26.3234H6.89971ZM11.5681 26.3234V21.343H13.2149C13.8458 21.343 14.3571 21.5422 14.7556 21.934C15.154 22.3258 15.3466 22.8371 15.3466 23.4547V24.2117C15.3466 24.8359 15.1474 25.3406 14.7556 25.7324C14.3571 26.1242 13.8458 26.3234 13.2149 26.3234H11.5681ZM19.311 23.5344V24.1984H17.3056V26.3234H16.4688V21.343H19.6563V22.007H17.2989V23.5277H19.311V23.5344Z" fill="black"/>
<path d="M9.50303 23.5211C9.65576 23.3551 9.73545 23.1492 9.73545 22.8969C9.73545 22.6445 9.65576 22.432 9.50303 22.266C9.35029 22.1 9.11787 22.0137 8.80576 22.0137H7.72998V23.7734H8.80576C9.11787 23.7668 9.34365 23.6871 9.50303 23.5211Z" fill="black"/>
<path d="M13.2147 22.0137H12.3979V25.666H13.2147C13.6132 25.666 13.9319 25.5332 14.1644 25.2609C14.3968 24.9887 14.5163 24.6434 14.5163 24.2184V23.4547C14.5163 23.0363 14.3968 22.691 14.1644 22.4188C13.9319 22.1465 13.6132 22.0137 13.2147 22.0137Z" fill="black"/>
</svg>
