<svg width="402" height="107" viewBox="0 0 402 107" fill="none" xmlns="http://www.w3.org/2000/svg">
<path d="M73.2864 91.6874C82.8104 91.7277 92.3344 91.7681 101.838 91.7883C105.712 91.7883 109.587 91.647 113.461 91.8286C116.084 91.9497 118.687 91.9295 121.31 91.9093C123.953 91.8892 126.597 91.7883 129.24 91.8488C131.944 91.9093 134.668 91.8488 137.372 91.8084C138.138 91.7883 138.925 91.8892 139.692 91.9295C140.459 91.9699 141.246 92.0304 142.013 92.0304C146.492 92.0304 150.992 92.0304 155.471 92.0304C157.287 92.0304 159.083 92.0506 160.879 91.8286C161.161 91.7883 161.464 91.8084 161.747 91.8084C173.43 91.8084 185.113 91.8084 196.796 91.7883C198.713 91.7883 200.589 91.9093 202.486 92.1111C204.988 92.3734 207.51 92.3129 210.032 92.3129C219.092 92.3331 228.172 92.3129 237.232 92.2725C240.622 92.2524 244.012 92.0909 247.402 92.0304C249.944 91.9901 252.507 91.9093 255.05 92.1111C255.796 92.1717 256.523 92.2725 257.269 92.3533C258.197 92.434 259.125 92.555 260.074 92.555C265.623 92.555 271.172 92.5349 276.721 92.4945C277.366 92.4945 278.012 92.4138 278.658 92.3533C279.566 92.2524 280.454 92.2322 281.362 92.2524C292.722 92.2524 304.082 92.2524 315.442 92.2524C317.803 92.2524 320.164 92.2725 322.504 92.2524C323.534 92.2524 324.563 92.1313 325.592 92.0708C326.459 92.0304 327.327 91.99 328.195 91.99C332.614 91.99 337.033 91.9295 341.452 91.8286C345.326 91.7277 349.2 91.8084 353.074 91.8084C354.083 91.8084 355.072 91.8085 356.081 91.869C357.695 91.9497 359.309 92.0304 360.903 92.1515C364.152 92.3936 367.4 92.5147 370.669 92.4945C376.259 92.4743 381.828 92.4743 387.417 92.4945C390.04 92.4945 392.643 92.6357 395.246 92.8981C396.921 93.0595 398.575 93.2411 400.25 93.4227C400.412 93.4429 400.573 93.4429 400.734 93.4832C401.017 93.5236 401.198 93.7052 401.239 93.9877C401.299 94.3307 401.36 94.6939 401.36 95.0369C401.38 96.9135 401.4 98.7698 401.4 100.646C401.4 101.353 401.198 101.554 400.472 101.575C399.988 101.595 399.504 101.554 399.019 101.534C398.212 101.494 397.405 101.413 396.598 101.393C395.145 101.373 393.712 101.232 392.26 101.03C390.666 100.808 389.051 100.667 387.457 100.424C385.561 100.122 383.664 100.202 381.767 100.182C379.346 100.142 376.924 99.9402 374.523 99.7787C373.777 99.7182 373.05 99.698 372.304 99.7182C369.943 99.7586 367.602 99.8796 365.241 99.8796C360.136 99.8796 355.051 99.8191 349.946 99.7787C349.2 99.7787 348.453 99.8191 347.727 99.7989C346.435 99.7787 345.144 99.7586 343.853 99.7384C342.017 99.7182 340.18 99.6779 338.344 99.6577C338.122 99.6577 337.9 99.6577 337.658 99.6779C335.176 99.9805 332.694 99.8393 330.212 99.8595C329.99 99.8595 329.748 99.8595 329.526 99.8393C327.932 99.577 326.318 99.6375 324.704 99.5366C322.807 99.4155 320.91 99.3147 318.993 99.2339C318.025 99.1936 317.056 99.2138 316.088 99.2541C312.315 99.4357 308.541 99.4357 304.768 99.4559C300.087 99.4963 295.405 99.5971 290.724 99.5971C287.758 99.5971 284.792 99.4155 281.826 99.3146C278.759 99.2138 275.692 99.0927 272.625 99.1532C270.849 99.1936 269.073 99.1936 267.298 99.1936C262.354 99.2138 257.431 99.2541 252.487 99.2541C244.093 99.2541 235.699 99.2339 227.305 99.1936C225.045 99.1936 222.785 99.1734 220.525 99.3146C219.597 99.3752 218.648 99.2945 217.72 99.2743C216.631 99.2541 215.521 99.1936 214.431 99.1936C213.1 99.2138 211.788 99.3146 210.456 99.1532C209.952 99.0927 209.427 99.133 208.903 99.1532C208.539 99.1734 208.398 99.355 208.398 99.7182C208.398 100.243 208.418 100.747 208.459 101.272C208.499 101.918 208.277 102.462 207.873 102.947C207.53 103.33 207.228 103.754 206.945 104.178C206.622 104.642 206.239 105.025 205.735 105.267C205.27 105.489 204.806 105.711 204.322 105.913C203.777 106.135 203.212 106.256 202.627 106.236C201.699 106.216 200.751 106.175 199.822 106.155C198.955 106.135 198.269 105.751 197.724 105.106C197.381 104.682 197.058 104.238 196.715 103.814C196.473 103.491 196.372 103.128 196.372 102.725C196.372 101.978 196.372 101.232 196.352 100.505C196.311 99.2541 196.17 99.1129 194.919 99.1532C193.527 99.1936 192.135 99.2339 190.763 99.3146C189.209 99.4155 187.675 99.2339 186.122 99.1734C184.971 99.1331 183.801 99.1532 182.631 99.1532C181.239 99.1532 179.846 99.1331 178.474 99.1734C177.344 99.1936 176.214 99.2945 175.104 99.355C173.974 99.4155 172.844 99.5568 171.715 99.5568C166.932 99.577 162.17 99.5568 157.388 99.5164C152.041 99.4962 146.674 99.4357 141.327 99.3954C140.257 99.3954 139.188 99.3954 138.138 99.355C137.21 99.3146 136.282 99.2339 135.334 99.1734C134.688 99.1331 134.042 99.0725 133.397 99.0725C130.874 99.0725 128.352 99.0927 125.85 99.1129C119.05 99.1936 112.23 99.2339 105.43 99.355C93.8074 99.5568 82.2051 99.7182 70.5826 99.6577C66.5067 99.6375 62.4509 99.6375 58.3749 99.6577C53.1892 99.6779 47.9833 99.6577 42.7976 99.8595C41.8088 99.8998 40.7999 99.8595 39.791 99.7787C38.4997 99.6779 37.2083 99.698 35.9169 99.698C30.5495 99.7384 25.2024 99.7787 19.8552 99.8191C18.4428 99.8393 17.0101 99.92 15.5977 99.9603C14.1449 100.001 12.692 100.041 11.2392 100.081C9.78642 100.142 8.3336 100.202 6.88079 100.263C6.01314 100.303 5.14549 100.404 4.27783 100.182C4.15677 100.142 4.01552 100.142 3.89445 100.102C2.98644 99.8191 2.68377 99.4761 2.60306 98.5277C2.58288 98.2452 2.56271 97.9425 2.60306 97.6601C2.68377 97.1354 2.76449 96.6713 2.42146 96.1871C2.30039 96.0256 2.36093 95.6826 2.42146 95.4405C2.54253 94.8755 2.70395 94.3105 2.82502 93.7455C2.90573 93.342 3.16805 93.1402 3.53125 93.0595C4.7621 92.777 5.97278 92.4743 7.22382 92.2524C7.7888 92.1515 8.37396 92.1717 8.95912 92.1515C11.9858 92.1313 15.0327 92.1313 18.0594 92.1313C20.9247 92.1313 23.8101 92.1717 26.6754 91.8892C27.2202 91.8286 27.765 91.8892 28.33 91.8892C30.8522 91.9093 33.3543 91.8286 35.8765 91.6672C40.0937 91.3847 44.3311 91.3645 48.5483 91.5058C50.667 91.5663 52.8058 91.4856 54.9447 91.4856C61.0384 91.4856 67.1524 91.4856 73.2461 91.4856C73.2865 91.6672 73.2864 91.6672 73.2864 91.6874Z" fill="#EB9B12"/>
<path d="M399.867 81.6589C399.403 81.8607 398.959 81.8607 398.495 81.8809C395.851 81.9212 393.208 81.9414 390.565 81.9616C390.444 81.9616 390.302 81.9616 390.181 81.9616C389.596 81.9212 389.415 81.78 389.415 81.1948C389.415 80.0649 389.293 78.9349 389.536 77.8251C389.576 77.6637 389.596 77.5023 389.556 77.3408C389.253 76.1503 389.475 74.9598 389.515 73.7895C389.536 73.0833 389.596 72.3771 389.596 71.6708C389.596 71.1664 389.475 71.0453 388.971 71.0251C388.749 71.005 388.527 71.005 388.285 71.005C385.641 71.005 382.998 71.005 380.355 70.9646C379.709 70.9646 379.063 70.8637 378.438 70.8032C377.288 70.7225 376.117 70.6418 374.967 70.561C374.866 70.561 374.765 70.561 374.685 70.5812C373.091 70.8435 373.292 70.5812 372.647 72.1753C372.203 73.2649 371.94 74.3747 371.638 75.4845C371.335 76.6548 370.831 77.7242 370.185 78.7533C369.701 79.5201 369.196 80.2666 368.712 81.0334C368.611 81.1948 368.49 81.3562 368.369 81.4975C368.107 81.78 367.743 81.8405 367.4 81.6791C367.34 81.6589 367.299 81.6186 367.239 81.5782C366.19 80.9527 366.069 80.5088 366.694 79.4595C366.815 79.2577 366.936 79.0761 367.057 78.8945C368.288 76.9776 369.116 74.8993 369.64 72.6797C370.306 69.9153 371.012 67.1711 371.678 64.4269C371.88 63.5593 372.021 62.6513 372.203 61.7635C372.263 61.481 372.283 61.1985 372.364 60.916C372.889 58.7771 373.434 56.6584 373.938 54.5397C374.382 52.6228 374.886 50.7261 375.472 48.8496C375.552 48.6074 375.613 48.3451 375.653 48.103C375.976 46.2062 376.682 44.4508 377.57 42.7558C378.317 41.303 379.063 39.83 380.052 38.4983C380.456 37.9535 380.778 37.3481 381.121 36.763C381.343 36.3796 381.202 36.1173 380.778 36.1173C380.435 36.1173 380.072 36.1576 379.729 36.198C379.305 36.2383 378.902 36.2989 378.478 36.2989C377.671 36.319 376.864 36.2989 376.057 36.2989C375.189 36.319 374.321 36.2787 373.474 36.0164C372.848 35.8146 372.183 35.8146 371.577 36.0769C371.113 36.2787 370.649 36.2989 370.165 36.2787C366.936 36.2787 363.708 36.2787 360.479 36.2787C360.096 36.2787 359.692 36.2787 359.329 36.319C358.764 36.3998 358.603 36.6419 358.683 37.1867C358.704 37.3481 358.744 37.5095 358.784 37.6508C359.269 39.5879 359.753 41.525 360.257 43.462C360.298 43.6235 360.338 43.7647 360.399 43.9261C360.641 44.5718 360.721 44.592 361.387 44.4911C362.8 44.249 363.93 44.6727 364.717 45.9036C365.019 46.3878 365.342 46.8721 365.625 47.3967C366.028 48.1635 366.21 48.9706 365.927 49.8181C365.847 50.0602 365.806 50.3225 365.746 50.5647C365.524 51.4323 365.06 52.1587 364.354 52.7237C363.829 53.1475 363.284 53.5712 362.679 53.8739C361.932 54.2572 361.71 54.7819 361.751 55.589C361.811 56.719 361.771 57.8489 361.791 58.9789C361.811 59.9878 361.69 60.9765 361.508 61.9652C361.347 62.9539 361.226 63.9427 361.085 64.9314C360.843 66.4649 360.439 67.9581 359.935 69.4109C359.753 69.9557 359.551 70.5005 359.41 71.0655C358.885 73.2044 357.957 75.202 356.928 77.1391C356.444 78.0672 355.717 78.8138 355.031 79.5806C353.155 81.6993 353.659 81.1948 351.379 82.1432C350.834 82.3651 350.289 82.5669 349.745 82.7687C348.958 83.0714 348.151 83.2933 347.323 83.3942C346.819 83.4548 346.314 83.5758 345.79 83.6565C345.184 83.7372 344.579 83.818 343.974 83.6162C343.833 83.5556 343.651 83.5355 343.49 83.5355C342.218 83.5556 340.987 83.2328 339.757 83.0512C338.485 82.8494 337.275 82.4055 336.165 81.6993C335.398 81.215 334.611 80.7711 333.824 80.3272C332.694 79.7017 331.806 78.8542 331.02 77.8453C329.95 76.4732 329.264 74.9397 328.901 73.2245C328.8 72.7806 328.679 72.3569 328.497 71.9331C328.215 71.2673 328.074 70.5812 328.114 69.8548C328.134 69.3705 328.114 68.8863 328.114 68.402C328.154 66.4044 327.973 64.4068 327.811 62.4091C327.71 61.0976 327.65 59.7658 327.65 58.4543C327.65 54.8828 327.67 51.2911 327.71 47.7196C327.731 46.6502 327.831 45.6009 327.892 44.5315C328.013 42.8567 327.993 41.1819 327.872 39.5072C327.771 37.9333 327.67 36.3594 327.529 34.7855C327.448 33.9582 327.287 33.1309 327.105 32.3036C327.004 31.8395 326.782 31.3956 326.601 30.9517C326.439 30.528 326.197 30.1446 326.056 29.7209C325.955 29.398 325.894 29.0348 325.915 28.6918C325.935 28.2075 326.177 28.0057 326.621 27.925C326.742 27.9048 326.883 27.8847 327.004 27.8847C328.013 27.8645 329.002 27.8443 330.011 27.8241C330.858 27.8039 331.685 27.7838 332.533 27.7838C333.824 27.7838 335.116 27.8039 336.407 27.8241C336.79 27.8241 337.174 27.9048 337.557 27.9855C338.041 28.1066 338.344 28.4295 338.405 28.9339C338.445 29.1962 338.445 29.4384 338.445 29.7007C338.445 32.0211 338.445 34.3416 338.445 36.6621C338.445 37.2472 338.405 37.8324 338.384 38.3974C338.324 39.9713 338.263 41.5451 338.223 43.1392C338.142 45.4597 338.062 47.7801 338.041 50.1006C338.001 53.8335 338.001 57.5866 338.041 61.3195C338.062 63.4382 338.284 65.5569 338.586 67.6756C339.03 70.8839 340.685 73.2851 343.106 75.2827C343.974 76.0091 344.983 76.5539 346.012 76.9978C346.456 77.1996 346.92 77.3005 347.424 77.3005C348.11 77.3207 348.776 77.3408 349.462 77.4014C349.987 77.4417 350.491 77.361 350.976 77.1592C351.641 76.8566 352.327 76.5539 353.013 76.2714C354.285 75.7266 355.193 74.7984 355.778 73.5474C356.706 71.5901 357.392 69.532 357.816 67.4133C358.098 66.021 358.32 64.6287 358.603 63.2364C358.905 61.6626 358.865 60.0887 358.683 58.5148C358.583 57.5261 358.34 56.5374 358.159 55.5688C358.139 55.4074 358.078 55.246 358.038 55.1047C357.937 54.7819 357.695 54.6406 357.372 54.6608C356.989 54.681 356.605 54.7213 356.222 54.7213C354.325 54.681 352.953 53.3089 352.913 51.4122C352.913 51.049 352.933 50.7059 352.953 50.3427C353.034 48.4662 353.982 47.1344 355.556 46.2062C356.726 45.5202 356.827 45.2982 356.504 44.027C355.818 41.3434 355.092 38.6597 354.406 35.976C353.982 34.2811 353.578 32.5861 352.953 30.9517C352.812 30.5683 352.65 30.1648 352.509 29.7814C352.428 29.5392 352.327 29.2971 352.247 29.055C351.924 27.8443 352.206 27.8039 353.175 27.7636C354.628 27.7031 356.081 27.7232 357.513 27.9048C358.058 27.9654 358.623 27.9654 359.148 27.9048C361.024 27.6829 362.881 27.6829 364.757 27.7838C367.663 27.925 370.568 27.9048 373.474 27.8241C375.149 27.7636 376.823 27.8645 378.498 27.8645C382.413 27.8847 386.307 27.8847 390.222 27.9048C391.674 27.9048 393.127 27.925 394.58 27.925C395.327 27.925 396.073 27.8847 396.8 27.925C397.466 27.9654 398.152 28.0663 398.797 28.1873C399.181 28.2479 399.342 28.49 399.302 28.8936C399.261 29.3173 399.221 29.741 399.1 30.1244C398.717 31.4763 398.636 32.8484 398.575 34.2407C398.374 39.5072 398.495 44.7534 398.515 50.0199C398.555 57.1427 398.676 64.2857 398.495 71.4085C398.454 73.1842 398.555 74.9598 398.596 76.7355C398.616 77.6031 398.939 78.3699 399.423 79.0761C400.048 80.0043 400.109 80.307 399.867 81.6589ZM389.152 62.8934C389.435 62.1468 389.697 61.4608 389.636 60.694C389.616 60.4317 389.636 60.1694 389.657 59.9273C389.697 59.1807 389.778 58.4543 389.798 57.7077C389.858 55.6697 389.919 53.6519 389.98 51.6139C390 51.2507 390 50.9077 390.04 50.5445C390.242 48.3048 390.302 46.0448 390.242 43.7849C390.181 41.5048 389.758 39.2247 389.919 36.9446C389.959 36.4805 389.717 36.1374 389.233 36.0164C388.829 35.8953 388.406 35.855 388.002 35.7944C387.558 35.7541 387.195 35.8953 386.872 36.2182C386.61 36.4603 386.347 36.7226 386.045 36.8639C385.197 37.3078 384.552 37.9736 384.047 38.7808C383.462 39.7089 382.796 40.5766 382.029 41.3837C381.525 41.9083 381.182 42.5137 380.879 43.1594C380.213 44.6929 379.527 46.2264 378.841 47.7599C378.498 48.5267 378.256 49.3338 378.075 50.1409C377.732 51.7754 377.388 53.43 376.945 55.0442C376.44 56.8602 376.218 58.7166 376.016 60.573C375.976 60.9563 375.976 61.3397 376.016 61.7231C376.057 62.1872 376.319 62.51 376.803 62.5907C377.308 62.6715 377.832 62.732 378.337 62.7522C380.597 62.8732 382.837 62.954 385.096 63.0952C386.448 63.1759 387.76 63.1154 389.152 62.8934Z" fill="#EB9B12"/>
<path d="M127.323 54.903C127.283 55.0846 127.202 55.3066 127.182 55.5083C127.101 56.9006 126.96 58.2727 127.121 59.665C127.202 60.3309 127.182 61.0169 127.182 61.703C127.182 66.8685 127.182 72.0341 127.182 77.1795C127.182 77.7243 127.121 78.2691 127.081 78.8139C127.061 79.4596 127.04 80.1053 127.04 80.751C127.04 80.9729 127.081 81.1949 127.081 81.4168C127.081 81.8406 126.919 82.0424 126.516 82.0625C125.81 82.1029 125.103 82.1634 124.417 81.9011C124.115 81.8002 123.792 81.7599 123.469 81.7397C121.915 81.7195 120.362 81.7195 118.828 81.7397C118.445 81.7397 118.061 81.8002 117.678 81.8204C117.052 81.8406 116.83 81.6792 116.81 81.0738C116.77 79.4999 116.73 77.9059 117.032 76.3522C117.133 75.7872 117.133 75.202 117.194 74.6169C117.617 71.1866 117.718 67.7362 117.597 64.2858C117.476 61.1985 117.557 58.0911 117.496 55.0039C117.476 54.1362 117.416 53.2686 117.355 52.4009C117.194 49.8182 116.992 47.2556 116.891 44.6728C116.81 42.7962 116.83 40.9399 116.81 39.0633C116.79 37.8728 116.79 36.6823 116.79 35.4918C116.79 33.9381 116.608 32.4046 116.447 30.8711C116.387 30.2657 116.346 29.6402 116.366 29.0349C116.366 28.5304 116.568 28.3488 117.073 28.3085C117.355 28.2883 117.658 28.2883 117.94 28.2883C119.131 28.2883 120.321 28.2883 121.532 28.2883C122.5 28.2883 123.469 28.2479 124.417 28.147C125.446 28.0461 126.475 28.1067 127.505 28.1067C127.868 28.1067 128.029 28.2883 128.009 28.6717C127.989 29.5393 127.948 30.407 127.888 31.2746C127.787 32.788 127.686 34.3013 127.585 35.8147C127.545 36.4603 127.464 37.106 127.363 37.7316C127.101 39.5678 127.162 41.4039 127.262 43.2401C127.383 45.3387 127.222 47.4372 127.081 49.5155C127 50.8674 126.98 50.8472 128.17 51.4324C129.421 52.0377 130.652 52.6431 131.903 53.2484C133.235 53.8739 134.345 54.7819 135.233 55.9724C136.786 58.0709 138.3 60.2098 139.389 62.5908C139.914 63.7006 140.681 64.6893 141.488 65.5973C141.75 65.8798 142.053 66.1219 142.396 66.3036C143.102 66.6869 143.869 66.9492 144.676 67.0703C144.918 67.1107 145.12 66.9492 145.14 66.7071C145.16 66.586 145.16 66.4448 145.16 66.3237C145.16 64.0234 145.1 61.7433 144.817 59.4632C144.636 58.0306 144.595 56.5778 144.656 55.125C144.777 52.2799 144.918 49.455 145.039 46.6099C145.08 45.7019 145.08 44.814 145.039 43.906C144.999 42.0295 144.898 40.1731 144.858 38.2965C144.837 37.7114 144.898 37.1464 144.918 36.5612C144.999 34.7452 144.959 32.9494 144.636 31.1535C144.535 30.5886 144.555 30.0034 144.555 29.4182C144.555 28.712 144.817 28.3488 145.523 28.1672C146.028 28.0461 146.532 27.9654 147.057 27.9251C147.602 27.8645 148.147 27.8444 148.691 27.8444C150.366 27.8444 152.041 27.8444 153.716 27.8444C153.938 27.8444 154.16 27.8444 154.402 27.8645C155.027 27.9251 155.31 28.2277 155.391 28.8533C155.411 29.0349 155.411 29.2366 155.411 29.4384C155.31 31.5571 155.189 33.696 155.088 35.8147C155.047 36.4603 155.007 37.106 154.967 37.7517C154.906 38.8212 154.866 39.8704 154.826 40.9399C154.785 41.747 154.725 42.5541 154.725 43.3612C154.704 46.6502 154.725 49.9392 154.725 53.2282C154.725 53.773 154.785 54.3178 154.805 54.8626C154.846 55.5689 154.886 56.2751 154.926 56.9813C154.967 57.6876 154.947 58.414 155.027 59.1C155.229 60.6739 155.189 62.2478 155.209 63.8418C155.29 67.8169 155.35 71.7718 155.451 75.7468C155.491 77.0382 155.653 78.3296 155.713 79.6008C155.754 80.2465 155.713 80.8922 155.653 81.5177C155.612 81.9415 155.451 82.0625 155.007 82.1029C154.785 82.1231 154.563 82.1231 154.321 82.1231C152.909 82.1634 151.476 82.1836 150.064 82.224C149.478 82.2441 148.913 82.3047 148.328 82.4056C147.703 82.5065 147.037 82.4863 146.411 82.4459C145.786 82.4056 145.443 82.0424 145.342 81.3765C145.241 80.6501 145.16 79.9035 145.16 79.1569C145.14 77.4418 145.16 75.7468 145.16 74.0317C145.16 73.2649 145.16 72.478 145.14 71.7112C145.14 71.4287 145.1 71.1261 145.059 70.8436C144.918 70.0163 144.777 69.875 143.929 69.8952C143.465 69.8952 143.042 69.8145 142.658 69.5522C142.416 69.3908 142.134 69.2899 141.851 69.2092C140.862 68.9267 140.055 68.3617 139.349 67.6151C138.905 67.151 138.461 66.6869 138.058 66.1825C137.795 65.8596 137.573 65.4964 137.392 65.1332C136.807 63.9831 136.262 62.8128 135.677 61.6626C135.414 61.1582 135.071 60.6739 134.728 60.2098C134.204 59.5238 133.618 58.8781 133.054 58.192C132.771 57.849 132.489 57.506 132.327 57.062C132.246 56.8401 132.065 56.5778 131.883 56.4567C130.834 55.7707 129.744 55.1048 128.493 54.8626C128.15 54.8021 127.767 54.7416 127.323 54.903Z" fill="#EB9B12"/>
<path d="M84.4245 27.3803C84.7675 27.34 85.3123 27.2593 85.8571 27.1785C86.0185 27.1584 86.18 27.1382 86.3414 27.1382C87.7337 27.1584 89.126 27.0777 90.4981 27.3198C90.9016 27.4005 91.3253 27.4409 91.7289 27.5821C92.9598 28.0462 94.2108 28.5103 95.4013 29.0753C96.6927 29.6806 97.9437 30.3465 99.1544 31.0729C100.789 32.0616 102.242 33.2925 103.412 34.826C104.017 35.6129 104.643 36.3999 105.248 37.207C105.41 37.4088 105.591 37.6105 105.692 37.8325C106.237 39.2853 107.004 40.6372 107.306 42.1708C107.609 43.6841 107.952 45.1975 108.275 46.7108C108.477 47.639 108.537 48.5672 108.517 49.4954C108.517 49.8787 108.517 50.2823 108.598 50.6455C108.678 51.0087 108.82 51.3719 108.981 51.7351C109.102 52.0176 109.364 52.179 109.647 52.2597C109.829 52.3001 110.03 52.3405 110.212 52.3606C110.979 52.4413 111.523 52.8651 111.927 53.4906C112.068 53.7126 112.21 53.9143 112.351 54.1363C112.835 54.8829 112.976 55.6698 112.835 56.5375C112.694 57.4051 112.452 58.2324 112.088 59.0194C111.766 59.7054 111.221 60.1291 110.474 60.2502C109.97 60.3309 109.445 60.3915 108.941 60.4318C108.356 60.4924 108.073 60.7748 108.053 61.36C108.053 61.5416 108.093 61.7434 108.134 61.925C108.234 62.3084 108.214 62.6917 108.154 63.0751C108.093 63.5594 108.013 64.0437 108.033 64.5078C108.073 66.6063 107.448 68.503 106.479 70.319C105.43 72.2965 104.058 74.0519 102.585 75.7267C101.596 76.8365 100.426 77.7647 99.336 78.7736C99.0535 79.0359 98.7105 79.2377 98.4683 79.5403C97.6209 80.5492 96.5111 81.2151 95.4215 81.881C94.8363 82.2442 94.2512 82.5872 93.6256 82.8293C92.5158 83.2733 91.3859 83.6365 90.2559 83.9997C89.7716 84.1611 89.247 84.2418 88.7627 84.3629C88.2785 84.4839 87.8144 84.5041 87.3301 84.4436C86.4019 84.3427 85.4737 84.262 84.5456 84.2015C83.5568 84.1207 82.6488 83.8786 81.7812 83.3943C81.3978 83.1724 80.9942 82.9504 80.5907 82.7486C80.3889 82.6478 80.1871 82.5469 79.9652 82.5267C79.3396 82.4258 78.815 82.1231 78.2904 81.8003C77.6245 81.3967 76.9586 81.0133 76.2928 80.6098C75.8287 80.3273 75.3646 80.0246 74.9408 79.6816C73.4073 78.4911 72.0554 77.0988 70.7438 75.6662C70.421 75.303 70.1587 74.8994 69.8762 74.516C69.5533 74.0721 69.2708 73.5878 68.948 73.1641C67.5154 71.2674 66.7486 69.0882 66.2643 66.8081C66.002 65.5368 65.8608 64.2656 65.8002 62.9742C65.7599 62.2075 65.6792 61.4205 65.5985 60.6538C65.4976 59.9072 65.2554 59.6247 64.4887 59.544C63.8228 59.4835 63.2376 59.2817 62.6525 58.979C62.2691 58.7772 61.9261 58.4947 61.805 58.0912C61.4216 56.82 61.0988 55.5488 61.3005 54.1968C61.4216 53.4099 61.8252 52.8247 62.5314 52.4615C63.278 52.058 63.9842 51.6342 64.7308 51.2508C64.9528 51.1298 65.2151 51.1096 65.4774 51.0491C65.8002 50.9684 65.9818 50.7868 66.002 50.4437C66.1231 48.7891 66.6679 47.2354 66.8898 45.601C66.9302 45.3791 66.9705 45.1571 67.0513 44.9553C67.3136 44.2289 67.5557 43.5025 67.5355 42.7156C67.5355 42.534 67.5961 42.3322 67.6566 42.1506C68.0803 40.8996 68.5243 39.6485 68.9682 38.4177C69.1498 37.893 69.4928 37.4491 69.856 37.0456C70.2192 36.642 70.6026 36.2384 70.9456 35.8147C71.4501 35.2295 71.894 34.5839 72.1765 33.8574C72.3984 33.2521 72.7818 32.788 73.2862 32.445C74.5171 31.5975 75.7278 30.7702 76.9788 29.9429C77.2613 29.7613 77.6245 29.6201 77.9474 29.5595C78.6738 29.3981 79.3598 29.1358 80.0257 28.7726C80.5301 28.5103 81.0749 28.2682 81.5794 27.9857C82.3663 27.4812 83.2542 27.2391 84.4245 27.3803ZM75.0417 60.0484C74.9812 60.1897 74.9005 60.3107 74.9005 60.4318C74.8803 61.6223 74.84 62.8128 74.9812 64.0033C75.2032 65.6983 75.7278 67.3327 75.7076 69.068C75.7076 69.4514 75.8489 69.8347 75.9296 70.1979C76.3129 71.9736 77.0595 73.6282 77.6043 75.3433C78.1088 76.9374 79.1379 78.1682 80.288 79.2982C80.4292 79.4395 80.5907 79.5403 80.7521 79.6412C81.196 79.9641 81.6399 80.2869 82.0838 80.5896C82.447 80.8317 82.8304 81.1142 83.234 81.2757C84.3841 81.7196 85.5544 82.0626 86.8055 82.0021C87.2292 81.9819 87.653 82.0021 88.0565 82.0222C89.5699 82.1433 90.8814 81.4774 92.2535 81.0335C92.8185 80.6098 93.4239 80.2264 93.9485 79.7623C94.2915 79.4798 94.574 79.0964 94.796 78.7332C95.2399 77.9866 95.6434 77.2199 96.047 76.4329C96.1882 76.1504 96.3295 75.8478 96.3698 75.5249C96.4707 74.8792 96.6927 74.2739 96.9752 73.6887C97.1568 73.3054 97.3384 72.9422 97.4998 72.5386C97.8226 71.792 97.9841 71.0252 97.9437 70.1979C97.9235 69.5926 97.9639 68.9671 98.0042 68.3618C98.1455 66.5659 98.3069 64.7701 98.4482 62.9541C98.4683 62.6716 98.4885 62.3689 98.4683 62.0864C98.3876 60.9363 97.9235 60.4318 96.7936 60.1897C96.6927 60.1695 96.612 60.1493 96.5111 60.1291C95.9865 59.9677 95.6031 59.6651 95.3004 59.2211C94.5538 58.071 94.2915 56.7998 94.231 55.4479C94.2108 54.9434 94.3924 54.4995 94.6547 54.0758C95.0179 53.531 95.4013 53.0265 95.7645 52.5019C96.0672 52.0378 96.4707 51.7755 97.0155 51.6746C97.6209 51.5535 98.206 51.4123 98.8114 51.2508C99.1746 51.15 99.2956 50.9885 99.2755 50.6253C99.2755 50.4639 99.2553 50.3025 99.2351 50.1411C99.0535 49.0716 99.0333 47.9618 98.6096 46.9328C98.5087 46.7108 98.4885 46.4283 98.4683 46.166C98.4078 45.0764 98.3876 43.9868 98.3473 42.877C98.3271 42.4533 98.3473 42.0295 98.2666 41.626C98.085 40.6776 97.8428 39.7292 97.641 38.801C97.4594 37.9737 97.177 37.1868 96.7734 36.4402C96.4304 35.8147 96.1479 35.169 96.0066 34.4628C95.9259 33.9987 95.6838 33.696 95.2601 33.5144C94.8363 33.3328 94.5336 33.01 94.231 32.6669C93.888 32.2836 93.5449 31.9002 93.1817 31.537C92.2737 30.6693 91.2245 30.064 89.9734 29.8622C89.5295 29.7815 89.0856 29.6806 88.6417 29.5797C88.0162 29.4183 87.3705 29.3578 86.7248 29.3779C86.1194 29.3981 85.4939 29.4183 84.8886 29.4385C84.2227 29.4587 83.6174 29.5999 83.0927 30.064C82.9515 30.1851 82.7699 30.2859 82.6085 30.3667C81.9628 30.6491 81.4987 31.1132 81.0346 31.6379C80.5301 32.223 80.0055 32.788 79.4809 33.353C79.3396 33.5144 79.1782 33.6758 79.037 33.8574C77.7658 35.6936 76.7569 37.6105 76.7165 39.9108C76.7165 40.3951 76.5753 40.8592 76.4138 41.3233C76.2121 41.9085 76.0506 42.4936 75.9497 43.099C75.8085 44.128 75.6874 45.1369 75.6471 46.166C75.5865 47.639 75.6269 49.1322 75.6067 50.6052C75.6067 51.0894 75.7681 51.3921 76.2121 51.5939C76.7367 51.8158 77.2411 52.1185 77.7859 52.3405C78.3509 52.5624 78.6738 52.9458 78.8352 53.5108C78.9764 54.0354 79.158 54.56 79.3195 55.0847C79.602 55.912 79.6423 56.7191 79.2993 57.5464C79.1984 57.7885 79.158 58.0508 79.0975 58.293C78.9966 58.8176 78.6738 59.1606 78.1895 59.322C77.342 59.6045 76.4744 59.887 75.5664 59.9274C75.4251 59.9879 75.2435 60.0283 75.0417 60.0484Z" fill="#EB9B12"/>
<path d="M180.976 49.5961C181.017 49.3742 181.057 49.1926 181.097 49.011C181.218 48.3855 181.319 47.7398 181.44 47.1143C181.561 46.4484 181.703 45.7825 181.844 45.1166C181.945 44.6727 182.025 44.2288 182.146 43.8051C182.368 43.0383 182.691 42.2917 182.631 41.4644C182.611 41.1819 182.732 40.8994 182.833 40.617C183.216 39.487 183.619 38.357 184.023 37.2472C184.225 36.6621 184.588 36.1576 185.012 35.7137C185.415 35.29 185.799 34.8662 186.162 34.4021C186.646 33.8372 187.05 33.2116 187.312 32.5054C187.514 31.9404 187.897 31.4965 188.381 31.1737C189.633 30.306 190.884 29.4585 192.135 28.6111C192.336 28.4698 192.599 28.3488 192.841 28.3084C193.85 28.1268 194.738 27.7031 195.625 27.2188C196.089 26.9767 196.554 26.7749 196.997 26.5126C197.562 26.1695 198.188 26.0283 198.834 26.0081C199.641 25.9879 200.448 26.0686 201.235 25.8063C203.555 25.7862 205.876 25.7862 208.095 26.674C210.396 27.6022 212.635 28.7321 214.734 30.0235C216.227 30.9517 217.579 32.1422 218.628 33.595C218.81 33.8573 219.012 34.1196 219.213 34.3618C220.162 35.5119 220.989 36.7024 221.514 38.1351C222.018 39.5072 222.462 40.8591 222.704 42.3119C222.765 42.6953 222.866 43.0585 222.966 43.4419C223.39 45.0763 223.713 46.7107 223.632 48.4056C223.612 49.0312 223.693 49.6163 223.975 50.2015C224.177 50.605 224.439 50.8875 224.904 50.9481C225.025 50.9682 225.146 51.0086 225.287 51.0288C226.155 51.0691 226.699 51.5938 227.143 52.2596C227.365 52.6027 227.587 52.9659 227.769 53.3492C227.971 53.7528 228.072 54.1967 228.031 54.6608C227.95 55.6899 227.708 56.6988 227.244 57.6472C226.921 58.3332 226.417 58.7973 225.65 58.8982C225.146 58.9789 224.621 59.0394 224.117 59.1C223.451 59.1807 223.209 59.443 223.188 60.0887C223.188 60.2098 223.209 60.351 223.229 60.4721C223.35 60.9563 223.289 61.4204 223.249 61.9047C223.188 62.51 223.148 63.1154 223.128 63.7409C223.047 65.1735 222.805 66.5456 222.159 67.8572C221.352 69.5118 220.404 71.0655 219.274 72.5385C217.761 74.4756 216.045 76.2311 214.108 77.7444C213.907 77.9058 213.705 78.0672 213.543 78.269C212.696 79.3183 211.526 79.964 210.396 80.65C209.871 80.9729 209.346 81.2957 208.781 81.5177C207.672 81.9414 206.542 82.3248 205.412 82.688C204.887 82.8494 204.342 82.9503 203.818 83.0916C203.354 83.2126 202.869 83.2328 202.385 83.1723C201.497 83.0512 200.589 82.9705 199.681 82.91C198.692 82.8494 197.784 82.6073 196.917 82.123C196.15 81.6993 195.424 81.2554 194.536 81.0939C194.193 81.0334 193.89 80.8114 193.587 80.6298C192.78 80.1658 191.973 79.6815 191.186 79.1972C190.742 78.9349 190.339 78.6121 189.915 78.3094C188.442 77.1592 187.13 75.8073 185.879 74.4352C185.557 74.072 185.274 73.6685 185.012 73.2851C184.709 72.8613 184.447 72.4174 184.144 72.0139C182.51 69.8548 181.642 67.3729 181.238 64.7296C181.057 63.5189 180.996 62.2881 180.855 61.0774C180.795 60.4922 180.754 59.9273 180.674 59.3421C180.573 58.6157 180.351 58.3736 179.624 58.313C178.979 58.2525 178.373 58.0305 177.788 57.7682C177.284 57.5261 176.961 57.1427 176.82 56.6383C176.517 55.5486 176.295 54.4389 176.376 53.3089C176.436 52.3202 176.88 51.6139 177.768 51.17C178.454 50.827 179.12 50.4234 179.806 50.0602C180.008 49.9593 180.23 49.919 180.431 49.8585C180.613 49.7172 180.774 49.6567 180.976 49.5961ZM190.117 58.7569C190.076 59.0394 190.016 59.3219 190.016 59.6044C189.915 61.5415 190.197 63.4584 190.601 65.3551C190.682 65.7587 190.762 66.1824 190.783 66.586C190.823 67.4335 190.904 68.2608 191.126 69.0679C191.65 71.0251 192.397 72.9219 193.083 74.8388C193.164 75.0406 193.285 75.2423 193.386 75.4441C194.435 77.3812 196.211 78.5717 197.966 79.8026C197.986 79.8227 198.027 79.8429 198.047 79.8429C198.955 80.1859 199.843 80.5895 200.811 80.65C202.002 80.7307 203.192 80.6904 204.383 80.6904C204.766 80.6904 207.268 79.8631 207.591 79.6411C208.075 79.3183 208.519 78.9551 208.983 78.5919C209.427 78.2488 209.77 77.8251 210.032 77.3408C210.416 76.6346 210.819 75.9284 211.183 75.202C211.344 74.8791 211.505 74.5563 211.546 74.2133C211.626 73.4869 211.929 72.8613 212.232 72.2156C212.434 71.7717 212.635 71.3278 212.817 70.8839C213.059 70.2786 213.16 69.653 213.16 68.9872C213.14 68.3415 213.16 67.6958 213.2 67.0501C213.301 65.7385 213.422 64.4068 213.523 63.0952C213.584 62.3486 213.644 61.6222 213.644 60.8756C213.624 59.6851 213.14 59.1201 211.97 58.878C211.203 58.7166 210.718 58.2928 210.335 57.6472C209.79 56.7391 209.589 55.7302 209.467 54.7012C209.367 53.9546 209.508 53.2887 209.932 52.6834C210.254 52.1991 210.618 51.7552 210.92 51.2507C211.243 50.7059 211.727 50.4436 212.333 50.3225C212.777 50.2418 213.221 50.1409 213.644 50.0199C214.492 49.7979 214.532 49.7576 214.431 48.9101C214.351 48.3048 214.29 47.6994 214.209 47.0941C214.189 46.9327 214.169 46.7712 214.108 46.63C213.685 45.6009 213.523 44.5113 213.564 43.4015C213.644 41.646 213.443 39.9309 212.978 38.236C212.918 38.014 212.878 37.792 212.817 37.5701C212.656 36.7428 212.373 35.9558 211.97 35.2093C211.626 34.5434 211.324 33.8775 211.162 33.1511C211.082 32.7475 210.88 32.4247 210.497 32.2633C210.012 32.0615 209.649 31.6781 209.326 31.2746C209.084 30.9719 208.822 30.6894 208.539 30.4271C207.551 29.4384 206.441 28.7321 205.028 28.5505C204.847 28.5304 204.645 28.49 204.463 28.4295C203.051 28.0057 201.598 28.0259 200.145 28.147C199.378 28.2075 198.692 28.3488 198.107 28.8936C198.006 28.9743 197.885 29.0348 197.764 29.0752C197.119 29.3577 196.634 29.8217 196.211 30.3464C195.888 30.7499 195.585 31.1737 195.202 31.5167C194.314 32.3036 193.749 33.3125 193.143 34.3013C192.336 35.6734 191.953 37.1463 191.892 38.7202C191.872 39.1036 191.812 39.487 191.67 39.8502C191.287 40.7582 191.085 41.6864 191.065 42.6751C191.065 42.8971 191.045 43.119 191.005 43.341C190.702 45.3386 190.823 47.3362 190.783 49.3338C190.783 49.8181 190.984 50.1208 191.428 50.3024C191.993 50.5445 192.538 50.8472 193.083 51.0893C193.527 51.2911 193.83 51.5938 193.971 52.0579C194.152 52.643 194.354 53.2282 194.536 53.8133C194.798 54.6406 194.859 55.4478 194.495 56.275C194.395 56.4768 194.374 56.6988 194.334 56.9207C194.213 57.5059 193.89 57.9095 193.305 58.0911C192.417 58.3736 191.529 58.6964 190.581 58.6561C190.419 58.6762 190.298 58.7166 190.117 58.7569Z" fill="#EB9B12"/>
<path d="M241.51 62.0864C241.49 62.3487 241.449 62.611 241.449 62.8532C241.449 66.8484 241.449 70.8436 241.47 74.8591C241.47 75.868 241.55 76.8567 241.57 77.8656C241.57 78.3498 241.55 78.8341 241.53 79.3184C241.51 79.8027 241.47 80.2869 241.873 80.6703C241.974 80.7712 242.014 80.9528 242.055 81.1142C242.176 81.8204 241.833 82.2644 241.106 82.2038C240.219 82.1433 239.371 82.3451 238.503 82.3653C237.757 82.3854 237.03 82.4661 236.284 82.4863C235.134 82.4863 233.963 82.446 232.813 82.4258C231.764 82.4056 231.401 81.9213 231.764 80.9326C231.946 80.4685 231.966 80.0044 231.986 79.5202C232.026 77.6436 232.087 75.7872 232.107 73.9107C232.127 73.043 232.067 72.1754 232.026 71.3077C231.885 69.0882 231.845 66.8686 231.986 64.6288C232.006 64.2858 232.006 63.9226 231.946 63.5594C231.744 62.2075 231.804 60.8555 231.845 59.5036C231.946 55.4479 232.087 51.3719 232.168 47.3161C232.208 44.4509 232.188 41.5654 232.147 38.7002C232.107 36.0165 231.925 33.353 231.441 30.7097C231.381 30.3868 231.381 30.064 231.381 29.7411C231.36 29.1762 231.441 28.6313 232.087 28.4094C232.49 27.8242 233.116 27.7637 233.721 27.7637C235.618 27.7435 237.535 27.7435 239.432 27.7233C239.815 27.7233 240.198 27.683 240.582 27.6426C241.248 27.5619 241.913 27.4207 242.6 27.3803C243.144 27.34 243.669 27.0978 244.214 27.2794C244.335 27.3198 244.516 27.2189 244.658 27.1584C245.041 26.9566 245.465 26.896 245.868 26.8759C247.927 26.8153 250.005 26.775 252.063 26.6943C253.132 26.6539 254.101 26.896 255.029 27.4207C255.594 27.7233 256.159 28.026 256.724 28.3489C258.722 29.499 260.356 31.0325 261.728 32.8485C262.152 33.4135 262.495 34.039 262.778 34.6847C263.363 36.077 263.988 37.4693 264.23 38.9826C264.432 40.2539 264.513 41.5452 264.594 42.8366C264.654 43.7648 264.614 44.7132 264.614 45.6414C264.614 46.4888 264.513 47.3161 264.271 48.1233C264.19 48.4057 264.129 48.6882 264.15 48.9707C264.21 50.1209 263.827 51.1298 263.201 52.058C262.717 52.7844 262.233 53.5108 261.748 54.2372C261.567 54.4995 261.405 54.782 261.244 55.0645C260.8 55.9119 260.134 56.5576 259.327 57.0621C258.903 57.3042 258.48 57.5464 258.096 57.8087C257.794 58.0105 257.531 58.2324 257.269 58.4746C257.107 58.6158 256.966 58.7974 256.805 59.0194C257.753 59.8466 258.258 60.9161 258.863 61.9452C259.832 63.5796 260.76 65.2342 261.93 66.7475C262.334 67.2721 262.636 67.8977 262.959 68.4828C263.282 69.068 263.544 69.6935 263.887 70.2787C264.896 72.014 265.865 73.7493 266.672 75.5855C266.773 75.7872 266.853 76.0092 266.975 76.1908C267.903 77.5024 268.73 78.8946 269.84 80.0851C270.324 80.5896 270.788 81.1142 271.252 81.7397C270.97 82.0021 270.707 82.1837 270.364 82.1635C268.387 82.0222 266.45 82.4661 264.493 82.6276C263.181 82.7486 261.849 82.7285 260.578 82.4863C260.094 82.1029 259.932 81.5783 259.69 81.094C259.186 80.0448 258.641 79.0157 258.217 77.9463C256.966 74.7783 255.291 71.8525 253.536 68.9469C252.991 68.0591 252.346 67.2721 251.559 66.5861C251.115 66.2027 250.731 65.779 250.308 65.3754C249.521 64.649 248.633 64.0638 247.604 63.7208C246.07 63.2365 244.537 62.7119 243.003 62.2276C242.499 62.0864 242.035 61.9048 241.51 62.0864ZM261.224 45.2378C261.204 45.2378 261.204 45.2378 261.224 45.2378C261.224 44.5518 261.204 43.8859 261.224 43.1998C261.244 42.6147 261.143 42.0295 260.941 41.5049C260.679 40.839 260.558 40.1328 260.457 39.4467C260.376 38.9019 260.255 38.3773 260.154 37.8325C259.953 36.9043 259.589 36.0568 259.024 35.2901C258.782 34.9471 258.56 34.604 258.338 34.2408C257.047 31.9607 254.928 30.8913 252.507 30.2859C251.074 29.9227 249.621 30.1245 248.169 30.2658C247.644 30.3061 247.16 30.3263 246.635 30.2658C246.252 30.2254 245.868 30.2254 245.485 30.2658C244.94 30.3263 244.416 30.4474 243.871 30.5281C243.205 30.6088 242.539 30.6693 241.873 30.75C241.389 30.8106 241.127 31.0325 241.086 31.4563C241.026 32.3239 240.864 33.1714 240.985 34.0592C241.026 34.3821 241.026 34.7049 241.046 35.0278C241.147 38.3773 241.248 41.7268 241.348 45.0764C241.409 46.9126 241.429 48.7488 241.47 50.585C241.47 50.9078 241.47 51.2307 241.389 51.5333C241.248 52.1185 241.49 52.5422 241.934 52.8853C242.378 53.2283 242.902 53.4099 243.447 53.5108C243.931 53.5915 244.375 53.7731 244.779 54.0354C245.505 54.4793 246.272 54.7618 247.14 54.8627C247.725 54.9434 248.29 55.0241 248.855 55.125C250.59 55.4479 252.325 55.4075 254.061 55.2057C255.291 55.0645 256.361 54.6004 257.208 53.6924C257.531 53.3493 257.915 53.0265 258.278 52.7238C258.762 52.3203 259.145 51.8764 259.468 51.3316C259.751 50.8675 260.053 50.4034 260.417 49.9998C260.679 49.6971 260.881 49.3743 260.961 48.9909C261.103 48.4259 261.204 47.8609 261.244 47.2758C261.244 46.5897 261.224 45.9037 261.224 45.2378Z" fill="#EB9B12"/>
<path d="M56.68 40.5565C56.7405 40.4153 56.8414 40.2337 56.8616 40.0722C57.0028 38.5993 56.8616 37.1868 56.115 35.8551C55.6509 35.0076 55.2272 34.1399 54.7833 33.2723C54.4806 32.6871 53.9963 32.2432 53.4515 31.9002C52.6646 31.3957 51.8575 30.9115 51.0705 30.407C50.6266 30.1245 50.1222 29.9833 49.6177 29.9026C48.8509 29.7815 48.0842 29.6604 47.3174 29.5797C46.8735 29.5393 46.4094 29.5393 45.9655 29.5797C45.5216 29.6201 45.0777 29.7613 44.6338 29.8017C43.8266 29.8824 43.1608 30.2052 42.5554 30.75C42.3335 30.9518 42.1115 31.1334 41.8896 31.2948C40.6183 32.2028 39.8919 33.4741 39.4682 34.9269C39.2059 35.7945 39.0243 36.6823 38.9234 37.5702C38.762 38.8616 38.4997 40.1126 38.197 41.3636C37.7127 43.3814 37.4302 45.4194 37.289 47.4776C37.0872 50.6051 37.1477 53.7327 37.1074 56.8603C37.0872 58.636 37.1074 60.4116 37.1074 62.1873C37.0872 64.5481 37.3899 66.8887 37.9548 69.189C38.2979 70.6217 38.6207 72.0745 38.9637 73.5273C39.0041 73.6887 39.0445 73.8501 39.0445 74.0116C39.1252 75.1617 39.5489 76.1908 40.1341 77.1795C40.2955 77.462 40.4367 77.7647 40.4973 78.0673C40.5578 78.4104 40.7394 78.6525 41.0017 78.8543C41.8088 79.4394 42.616 80.0448 43.4231 80.6299C44.1898 81.1949 45.0777 81.4976 46.026 81.5581C46.7928 81.6187 47.5797 81.6792 48.3465 81.7196C49.2142 81.7801 50.0011 81.5379 50.7477 81.1142C51.4337 80.751 52.1198 80.408 52.826 80.0851C53.3708 79.843 53.8147 79.4798 54.077 78.935C54.642 77.7445 55.2675 76.5742 55.7316 75.3231C56.0747 74.395 56.2361 73.3861 56.4379 72.4175C56.4984 72.1552 56.5387 71.8324 56.2159 71.5902C55.8729 71.5095 55.55 71.7113 55.2474 71.8727C54.0972 72.4982 52.8664 72.6395 51.5951 72.5991C50.1625 72.5588 49.1536 71.9131 48.5281 70.6217C48.1044 69.6935 47.8622 68.7451 47.8219 67.7362C47.8017 67.373 47.8219 67.03 47.8219 66.6668C47.8017 64.9718 48.5685 63.6401 49.759 62.5101C50.1222 62.1671 50.5257 61.9452 51.0503 61.9048C52.1803 61.8241 53.2901 61.6021 54.4201 61.7434C55.207 61.8443 55.9132 62.1066 56.5589 62.5908C56.8414 62.7926 57.1239 63.0348 57.4064 63.2365C57.9714 63.6603 58.3548 64.2051 58.5767 64.8508C58.7785 65.4359 58.9601 66.0211 59.2022 66.5659C59.6865 67.6959 59.8076 68.8662 59.7067 70.0769C59.5654 72.014 59.2022 73.9107 58.5969 75.7671C58.3346 76.5943 57.9108 77.3611 57.366 78.0673C56.6598 78.9753 55.9738 79.9237 55.2675 80.8519C55.1061 81.0537 54.9447 81.2555 54.7429 81.4169C53.4717 82.4661 52.1803 83.475 50.6468 84.1409C49.759 84.5243 48.8308 84.7866 47.8421 84.8471C47.0148 84.9077 46.1673 85.0086 45.34 85.1095C44.0486 85.2305 42.7572 85.2103 41.4658 85.0893C40.356 84.9884 39.3471 84.605 38.4593 83.8786C38.2373 83.697 37.975 83.5557 37.7127 83.4347C36.8451 83.0715 36.0178 82.6679 35.2308 82.1231C34.7264 81.7801 34.1614 81.5178 33.6166 81.2555C33.0112 80.973 32.5472 80.5694 32.184 80.0044C31.8611 79.5 31.4575 79.0359 31.054 78.5516C30.3276 77.684 29.6012 76.8365 28.8748 75.9487C28.3098 75.2424 27.886 74.4353 27.543 73.608C27.3009 72.9825 26.978 72.3772 26.7763 71.7315C26.3727 70.4401 25.949 69.1487 25.6463 67.8371C25.384 66.7071 25.2226 65.557 25.041 64.4069C24.8594 63.2365 24.6778 62.046 24.5163 60.8757C24.4558 60.3914 24.4154 59.9072 24.4154 59.4229C24.4154 57.3244 24.3953 55.2259 24.1329 53.1476C23.9715 51.8562 24.1733 50.5648 24.3146 49.2936C24.4356 48.0829 24.5163 46.852 24.6778 45.6414C24.7585 44.9755 24.8997 44.3096 25.0611 43.6437C25.2226 42.9779 25.384 42.3322 25.4647 41.6663C25.5252 41.1215 25.6665 40.5969 25.8481 40.0722C26.2718 38.8212 26.7763 37.5904 27.1596 36.3393C27.7448 34.4426 28.7739 32.9091 30.3478 31.7387C30.7917 31.4159 31.1751 31.0123 31.5786 30.6491C32.1638 30.1245 32.8095 29.721 33.5359 29.4385C34.1614 29.1963 34.7667 28.8735 35.3519 28.5506C35.7555 28.3287 36.159 28.1471 36.6029 28.0865C37.7934 27.9251 38.9436 27.6023 39.9928 26.9969C40.2148 26.8759 40.4771 26.775 40.7192 26.7548C42.4545 26.4925 44.1697 26.4521 45.9251 26.6135C48.7501 26.8759 51.3127 27.8848 53.8551 28.9744C55.2877 29.5797 56.4177 30.5684 57.2248 31.9203C57.6485 32.6468 58.0319 33.3933 58.4153 34.1197C58.5565 34.3821 58.6171 34.6645 58.718 34.9269C58.8794 35.4111 59.0206 35.9156 59.2022 36.3999C59.4847 37.1263 59.5654 37.9132 59.626 38.68C59.6865 39.2248 59.6865 39.7696 59.7269 40.3144C59.7672 41.3636 59.626 42.3725 59.3233 43.3612C58.9399 44.6123 58.3346 45.7422 57.7494 46.8924C57.6082 47.1547 57.4064 47.3565 57.1441 47.4977C56.7405 47.6995 56.3571 47.9416 55.9939 48.1838C55.2877 48.6479 54.4806 48.9102 53.6937 49.1927C53.4717 49.2734 53.169 49.2532 52.9471 49.1927C52.2408 48.9909 51.5346 48.7689 50.8284 48.4865C49.8397 48.1031 49.1738 47.3968 48.7904 46.4081C48.6693 46.1055 48.5886 45.7826 48.5281 45.4799C48.2658 44.128 48.6895 42.1304 49.4563 41.0408C50.3038 39.8099 51.4943 39.3055 52.9673 39.4265C53.9156 39.5073 54.8034 39.7696 55.6307 40.2538C56.0141 40.3749 56.2563 40.5969 56.68 40.5565Z" fill="#EB9B12"/>
<path d="M302.811 35.6734C303.275 35.4918 303.759 35.3102 304.223 35.1084C305.272 34.6645 306.261 34.9268 307.189 35.4313C307.512 35.6129 307.754 35.9559 307.996 36.2384C308.602 37.0052 308.662 38.8414 308.057 39.6283C307.532 40.3345 306.927 40.9197 306.201 41.4241C305.353 42.0093 304.425 42.1102 303.436 42.1102C303.113 42.1102 302.791 42.0698 302.468 42.0698C301.883 42.09 301.499 41.8277 301.237 41.3031C300.753 40.3345 300.228 39.366 299.744 38.3773C299.623 38.1553 299.582 37.893 299.542 37.6307C299.28 35.9963 298.694 34.4627 298.008 32.9494C297.766 32.4046 297.383 32.001 296.838 31.7185C296.334 31.4562 295.849 31.1132 295.365 30.7903C294.84 30.4473 294.296 30.2254 293.67 30.1446C293.065 30.0841 292.459 29.9429 291.854 29.8622C291.188 29.7613 290.502 29.7411 289.836 29.9025C289.392 30.0034 288.948 30.0841 288.505 30.1446C288.04 30.2254 287.657 30.4271 287.294 30.7096C286.991 30.9518 286.709 31.2141 286.386 31.436C285.094 32.3642 284.368 33.6758 283.944 35.169C283.743 35.8752 283.581 36.6218 283.5 37.3482C283.359 38.5992 283.117 39.8301 282.814 41.0609C282.29 43.1393 282.007 45.2378 281.906 47.3766C281.684 52.2395 281.725 57.1226 281.765 61.9855C281.785 63.9226 282.108 65.8395 282.552 67.716C282.875 69.0679 283.178 70.4199 283.5 71.7718C283.521 71.8727 283.541 71.9534 283.561 72.0543C283.682 73.3658 284.106 74.5563 284.832 75.6661C284.893 75.7468 284.953 75.8477 284.953 75.9284C284.953 76.6145 285.417 76.9373 285.902 77.2804C286.567 77.7445 287.193 78.2287 287.859 78.713C288.565 79.2174 289.352 79.4798 290.2 79.5605C290.906 79.621 291.612 79.6614 292.318 79.7219C293.246 79.8026 294.094 79.5807 294.901 79.0964C295.486 78.7534 296.091 78.4709 296.717 78.1884C297.302 77.9261 297.766 77.5629 298.029 76.9777C298.533 75.8881 299.118 74.8388 299.522 73.729C299.865 72.8008 300.006 71.792 300.248 70.8234C300.248 70.7831 300.268 70.7629 300.248 70.7225C300.067 70.0365 300.329 69.3908 300.49 68.7451C300.753 67.6757 300.732 66.5659 300.652 65.4763C300.611 64.9314 300.571 64.3866 300.531 63.8418C300.47 63.2365 300.41 62.6312 300.309 62.0258C300.208 61.3801 299.945 61.138 299.3 61.0371C298.634 60.9564 297.948 60.9766 297.282 61.0573C295.648 61.2389 294.013 61.4205 292.359 61.2591C291.794 61.1985 291.208 61.2389 290.623 61.2389C290.421 61.2389 290.24 61.2591 290.058 61.2187C289.816 61.1783 289.614 61.1985 289.413 61.3196C289.07 61.5012 288.686 61.5415 288.283 61.4407C287.859 61.3398 287.556 61.0775 287.556 60.6537C287.556 60.0887 287.415 59.5843 287.334 59.0395C287.052 56.7997 287.032 54.5398 287.032 52.2799C287.032 52.2193 287.072 52.1588 287.092 52.0377C287.233 51.9974 287.415 51.9368 287.597 51.9167C289.695 51.836 291.794 51.7754 293.892 51.6947C295.083 51.6544 296.273 51.614 297.464 51.4728C298.594 51.3517 299.723 51.3517 300.853 51.3719C301.439 51.392 301.963 51.4526 302.125 52.1386C302.932 52.9256 302.932 54.0152 303.033 55.0039C303.154 56.5172 303.174 58.0306 303.214 59.5439C303.234 60.2502 303.295 60.9564 303.477 61.6424C303.577 62.046 303.638 62.4697 303.658 62.8733C303.678 63.9629 303.658 65.0727 303.638 66.1623C303.638 66.2834 303.658 66.4448 303.618 66.5457C303.335 67.1914 303.477 67.8774 303.416 68.5433C303.255 70.6015 302.912 72.6394 302.145 74.5765C301.943 75.1011 301.62 75.6056 301.297 76.0899C300.611 77.0584 299.885 78.0068 299.159 78.9551C299.017 79.1367 298.876 79.3183 298.694 79.4596C297.403 80.529 296.071 81.5581 294.477 82.1836C293.791 82.4661 293.085 82.6477 292.318 82.7082C291.491 82.7688 290.643 82.9302 289.816 82.9706C288.565 83.0109 287.294 83.0513 286.043 82.9907C284.953 82.9302 283.985 82.5266 283.117 81.8406C282.855 81.6186 282.512 81.4572 282.209 81.316C281.503 80.9931 280.817 80.6703 280.171 80.2263C279.667 79.8833 279.102 79.621 278.557 79.3587C277.951 79.0762 277.487 78.6726 277.124 78.1077C276.801 77.6234 276.418 77.1795 276.055 76.7356C275.369 75.9083 274.683 75.1213 274.017 74.294C273.734 73.951 273.472 73.5676 273.27 73.1641C272.604 71.792 271.938 70.44 271.616 68.9469C271.555 68.7047 271.535 68.4424 271.434 68.2003C270.647 66.1623 270.465 64.0033 270.163 61.8644C270.062 61.1985 269.941 60.5327 269.84 59.8668C269.8 59.5439 269.759 59.2211 269.739 58.8982C269.719 58.6157 269.719 58.3131 269.739 58.0306C269.779 56.2146 269.699 54.4187 269.517 52.6229C269.436 51.8561 269.457 51.0692 269.517 50.3024C269.618 49.0716 269.779 47.8609 269.9 46.6502C269.921 46.3879 269.961 46.1458 269.961 45.8835C269.941 44.9754 270.163 44.0876 270.385 43.22C270.526 42.6348 270.627 42.0295 270.748 41.4241C270.849 40.9197 270.95 40.4152 271.131 39.931C271.555 38.6799 272.06 37.4491 272.443 36.198C272.968 34.5031 273.916 33.131 275.328 32.0616C275.752 31.7185 276.156 31.3553 276.559 30.9719C277.124 30.4271 277.79 30.0438 278.516 29.7613C279.102 29.5191 279.687 29.2165 280.252 28.9138C280.595 28.712 280.918 28.5506 281.321 28.4901C282.512 28.3085 283.662 28.026 284.711 27.4004C284.873 27.2996 285.074 27.2188 285.256 27.1987C286.89 26.9565 288.505 26.7749 290.159 27.0574C290.785 27.1583 291.451 27.1381 292.076 27.2996C293.267 27.6022 294.437 27.9654 295.587 28.3488C296.253 28.5708 296.919 28.8533 297.564 29.1358C299.138 29.7814 300.389 30.8105 301.257 32.2835C301.862 33.3126 302.468 34.3417 302.73 35.5322C302.669 35.5322 302.73 35.5927 302.811 35.6734Z" fill="#EB9B12"/>
<path d="M4.27773 61.2389C3.97506 61.1985 3.67239 61.1178 3.34954 61.0976C2.15904 61.0371 1.31157 60.3712 0.524627 59.5843C0.282492 59.3421 0.161423 59.0395 0.141245 58.7166C0.0807116 57.7884 0 56.8401 0 55.9119C0 55.5083 0.121068 55.0846 0.262313 54.7012C0.363203 54.3582 0.564983 54.0555 0.706229 53.7327C0.968542 53.087 1.41246 52.7036 2.15904 52.6229C2.52224 52.5825 2.90563 52.4009 3.2083 52.179C3.63203 51.8965 4.05577 51.7552 4.56022 51.7552C5.22609 51.7351 5.3068 51.6342 5.32698 50.9279C5.32698 50.827 5.32698 50.7262 5.32698 50.6454C5.34716 46.5897 5.36734 42.5137 5.38752 38.458C5.38752 37.106 5.3068 35.7541 5.02431 34.4224C4.72164 33.0301 4.74182 31.5974 4.64093 30.185C4.60057 29.5393 4.51986 28.8936 4.45933 28.2681C4.43915 28.0663 4.41897 27.8847 4.43915 27.6829C4.45933 27.3601 4.68129 27.1583 5.00413 27.1381C5.22609 27.1179 5.44805 27.1381 5.69018 27.1179C6.61837 27.0776 7.56673 27.0372 8.49492 27.0171C8.71688 27.0171 8.95901 26.9767 9.16079 27.0171C10.7952 27.239 12.4498 27.1179 14.0842 27.0978C14.4071 27.0978 14.7097 26.9969 15.0326 26.9565C15.3958 26.9162 15.7388 26.8758 16.0213 27.1785C16.0415 27.239 16.0818 27.2995 16.0617 27.3601C15.5774 28.8331 15.4967 30.4069 15.2142 31.9203C14.7501 34.4627 14.7097 37.0455 14.6492 39.6283C14.6088 41.1416 14.5281 42.655 14.508 44.1683C14.4878 45.8431 14.5281 47.5179 14.5281 49.1926C14.5281 49.5155 14.5483 49.8383 14.5483 50.1612C14.5483 50.6858 14.6492 51.1902 14.8712 51.6543C15.0528 52.0377 15.3353 52.2799 15.7792 52.2597C16.9697 52.1588 17.8575 52.8852 18.7655 53.4502C19.4516 53.8941 19.7744 54.6407 19.8349 55.4276C19.8955 56.0935 19.8753 56.7795 19.8148 57.4454C19.7946 57.7884 19.613 58.1113 19.4717 58.4543C19.3507 58.7166 19.1691 58.9588 19.0682 59.2211C18.8462 59.8466 18.3821 60.1089 17.7768 60.23C17.1109 60.351 16.445 60.4923 15.7792 60.6335C15.3353 60.7344 14.8913 60.8151 14.4676 60.9362C14.2255 60.9967 14.0842 61.1783 14.0842 61.4205C14.0842 61.6222 14.0842 61.8039 14.1044 62.0056C14.3667 63.862 14.3869 65.7386 14.5281 67.5949C14.6694 69.4917 14.9317 71.3682 15.1536 73.2649C15.3151 74.7783 15.4765 76.2714 15.6379 77.7848C15.7186 78.6121 15.8397 79.4596 15.9002 80.2869C15.9204 80.6097 15.9204 80.9326 15.8801 81.2554C15.8397 81.5581 15.6581 81.6993 15.3554 81.7195C15.0931 81.7397 14.8308 81.7397 14.5887 81.7397C13.0148 81.7397 11.4207 81.7397 9.84685 81.7397C9.05991 81.7397 8.31332 81.8204 7.54656 82.002C6.57802 82.2441 5.56912 82.3248 4.5804 82.345C4.25755 82.345 3.9347 82.3248 3.63203 82.2441C3.14776 82.1231 2.96616 81.78 3.06705 81.2756C3.10741 81.0536 3.2083 80.8317 3.32936 80.6501C4.03559 79.6614 4.17684 78.5112 4.21719 77.3409C4.27773 75.8275 4.23737 74.3142 4.25755 72.8008C4.31808 69.3101 4.3988 65.8394 4.45933 62.3487C4.41897 62.0056 4.47951 61.6424 4.27773 61.2389Z" fill="#EB9B12"/>
<path d="M3.95483 19.3091C4.03555 18.966 4.0759 18.7037 4.15661 18.4616C4.51982 17.4527 4.88302 16.464 5.24622 15.4753C5.32693 15.2331 5.46818 15.0112 5.54889 14.769C6.17441 12.8319 7.38509 11.2379 8.49487 9.56312C9.28181 8.39279 10.1091 7.22247 11.0171 6.13286C11.4207 5.62841 11.8242 5.12396 12.2883 4.68005C13.3578 3.65097 14.4877 2.64208 15.6177 1.63318C16.3441 0.967305 17.2118 0.563746 18.1803 0.341788C20.1376 -0.102127 22.0948 -0.0819489 24.0521 0.220721C24.3548 0.261076 24.6776 0.4225 24.9197 0.604102C26.0901 1.49193 27.0586 2.56136 27.5025 4.01418C27.5227 4.11507 27.563 4.19578 27.6034 4.27649C28.35 5.50735 28.2289 6.87945 28.2087 8.23137C28.2087 8.45333 28.1482 8.69546 28.0473 8.87706C27.6639 9.58329 27.2806 10.2895 26.8366 10.9554C26.4129 11.6011 25.8883 12.1863 25.404 12.7916C25.3031 12.9127 25.2224 13.0539 25.1013 13.175C24.5767 13.74 24.2337 13.7601 23.6082 13.2557C23.1844 12.9127 22.7607 12.5696 22.3168 12.2468C22.115 12.0854 21.9132 11.9239 21.6711 11.823C20.4604 11.2782 19.3506 10.5518 18.1198 10.0877C17.7162 9.9465 17.3126 9.84561 16.8889 9.86579C16.6669 9.86579 16.445 9.86579 16.2029 9.86579C15.3554 9.88596 14.5079 9.78507 13.7008 9.9465C12.8937 10.1079 12.1471 10.5518 11.3601 10.8747C10.6943 11.1572 10.1495 11.5809 9.74591 12.2064C9.32217 12.8521 8.87826 13.4776 8.45452 14.1435C8.25274 14.4664 8.03078 14.7892 7.86936 15.1524C7.40526 16.1411 6.94117 17.1299 6.33583 18.058C6.05334 18.4818 5.97263 19.0064 5.77085 19.4907C5.6296 19.8337 5.42782 19.8942 5.06462 19.8135C5.02427 19.8135 5.00409 19.7933 4.96373 19.7933C4.70142 19.6319 4.37857 19.4907 3.95483 19.3091Z" fill="#EB9B12"/>
<path d="M316.814 61.0775C316.148 60.9766 315.483 60.8959 314.817 60.7344C313.445 60.4116 312.153 59.9677 311.306 58.7166C311.245 58.6359 311.185 58.5552 311.124 58.4947C310.014 57.4252 310.014 56.1742 310.499 54.8425C310.64 54.4591 310.781 54.0555 310.882 53.652C310.983 53.2686 311.164 52.9457 311.306 52.5825C311.629 51.7351 312.294 51.1903 312.92 50.5849C313.102 50.4235 313.344 50.3024 313.586 50.2217C313.969 50.0805 314.373 49.9594 314.776 49.8585C315.018 49.798 315.281 49.7778 315.543 49.7374C315.967 49.6971 316.391 49.6769 316.794 49.6164C317.258 49.5357 317.702 49.6164 318.106 49.8182C318.57 50.0401 319.014 50.3428 319.337 50.7463C319.881 51.4324 320.406 52.1184 320.931 52.8045C321.112 53.0466 321.173 53.3089 321.173 53.6116C321.193 54.4389 321.233 55.2864 321.314 56.1137C321.375 56.7594 321.294 57.3244 320.971 57.8692C320.729 58.2526 320.547 58.6561 320.345 59.0798C320.204 59.3825 319.982 59.5843 319.659 59.7255C318.691 60.1896 317.742 60.6537 316.814 61.0775Z" fill="#EB9B12"/>
<path d="M166.286 50.7464C166.973 50.8069 167.739 50.8271 168.506 50.9482C169.636 51.1096 170.564 51.6544 171.21 52.6229C171.412 52.9256 171.533 53.2484 171.533 53.6116C171.533 54.3179 171.573 55.0241 171.27 55.7102C171.17 55.9119 171.129 56.1339 171.089 56.3559C171.008 56.7796 170.827 57.1226 170.544 57.4455C170.221 57.7885 169.959 58.2122 169.717 58.636C169.253 59.4431 168.567 59.7457 167.699 59.6247C166.448 59.4633 165.217 59.2413 163.986 59.0395C163.744 58.9992 163.502 58.8983 163.24 58.8176C162.634 58.6158 162.231 58.2122 161.928 57.6271C161.282 56.376 161.161 55.0443 161.081 53.6924C161.06 53.3897 161.121 53.1072 161.323 52.8852C161.605 52.5422 161.908 52.1992 162.231 51.8965C162.412 51.7149 162.654 51.614 162.856 51.4526C163.542 50.9078 164.329 50.6858 165.197 50.7464C165.54 50.7666 165.883 50.7464 166.286 50.7464Z" fill="#EB9B12"/>
</svg>
