<svg width="326" height="134" viewBox="0 0 326 134" fill="none" xmlns="http://www.w3.org/2000/svg">
<path d="M27.3557 0.01974C27.5404 0.01974 30.1503 0.27407 30.2926 0.304348C30.8981 0.431513 31.3251 0.831175 31.7671 1.21267C33.0055 2.25119 34.0046 3.46228 34.4921 5.04882C34.6768 5.65437 35.0007 6.19028 35.2218 6.77463C35.3267 7.06645 35.3849 7.37299 35.3943 7.68296C35.4216 8.48228 35.3943 9.2816 35.4155 10.0809C35.4346 10.5915 35.3098 11.0972 35.0552 11.5403C34.5617 12.3941 34.1923 13.3085 33.4899 14.0564C32.7875 14.8042 32.2243 15.6944 31.5915 16.5149C31.4752 16.6705 31.3388 16.81 31.1858 16.9297C31.1044 17.0124 31.0073 17.0782 30.9002 17.123C30.7931 17.1679 30.6782 17.191 30.5621 17.191C30.446 17.191 30.331 17.1679 30.2239 17.123C30.1169 17.0782 30.0198 17.0124 29.9384 16.9297C29.7264 16.7692 29.5508 16.5633 29.3328 16.3968C28.8998 16.0547 28.4548 15.7277 28.0157 15.3916C27.35 14.8742 26.5975 14.4794 25.7934 14.2259C25.631 14.174 25.4814 14.0883 25.3544 13.9746C24.8608 13.5204 24.225 13.3418 23.6316 13.0844C23.1895 12.8907 22.7475 12.6939 22.2903 12.5334C22.0639 12.4524 21.8252 12.4114 21.5848 12.4123C20.301 12.4123 19.0173 12.4123 17.7335 12.4123C17.3492 12.4238 16.9732 12.5276 16.6375 12.7151C15.9048 13.0723 15.1236 13.363 14.3758 13.6567C13.4621 13.9967 12.6912 14.6373 12.1897 15.4733C11.8476 16.0274 11.4722 16.5603 11.1088 17.0992C10.5407 17.8733 10.0527 18.7031 9.65248 19.5759C9.22504 20.6812 8.65613 21.7264 7.95997 22.6854C7.82655 22.9365 7.73067 23.2058 7.67536 23.4847C7.56333 23.8734 7.41953 24.2521 7.24542 24.6171C7.02743 25.0138 6.82154 25.0471 6.39463 24.8866C6.05552 24.7594 5.71641 24.6262 5.38639 24.4809C4.97159 24.2932 4.9292 24.1781 5.04425 23.7512C5.57851 21.9805 6.22887 20.2468 6.99109 18.5616C7.33323 17.7653 7.61481 16.9388 7.98419 16.1394C8.21221 15.7456 8.46608 15.3673 8.74416 15.0071C9.00454 14.6044 9.23162 14.1805 9.49504 13.7778C9.95525 13.1117 10.3882 12.4607 10.8424 11.8067C10.9665 11.6281 11.1663 11.504 11.2572 11.3041C11.9142 9.90532 13.0738 8.86378 13.9277 7.61029C14.6059 6.62628 15.5263 5.79365 16.3983 4.96102C17.4065 3.98911 18.4662 3.07473 19.5229 2.15733C20.6055 1.17893 21.9606 0.553688 23.4075 0.364902C23.7163 0.32857 25.5935 -0.0953143 27.3557 0.01974Z" fill="#EB9B12"/>
<path d="M205.408 124.708C200.2 124.708 194.993 124.708 189.785 124.708C187.605 124.708 185.428 124.648 183.248 124.645C182.745 124.645 182.243 124.787 181.734 124.811C180.965 124.848 179.56 124.969 178.822 124.811C177.895 124.638 176.949 124.588 176.009 124.663C175.334 124.705 174.655 124.778 173.98 124.787C173.677 124.787 173.375 124.639 173.072 124.627C172.345 124.602 171.619 124.593 170.895 124.627C170.392 124.651 170.244 124.908 170.289 125.492C170.335 126.168 170.38 126.843 170.404 127.518C170.415 127.857 170.356 128.195 170.231 128.511C170.106 128.826 169.918 129.113 169.678 129.353C169.201 129.866 168.775 130.425 168.406 131.021C167.993 131.651 167.399 132.141 166.701 132.426C166.21 132.679 165.705 132.903 165.188 133.098C164.589 133.35 163.956 133.513 163.31 133.58C162.402 133.607 158.696 133.561 158 133.237C156.898 132.732 156.486 132.102 155.72 131.118C155.59 130.945 155.453 130.779 155.317 130.606C154.797 129.99 154.509 129.211 154.503 128.405C154.503 127.703 154.485 127 154.472 126.286C154.472 126.092 154.472 125.898 154.448 125.707C154.348 124.702 154.145 124.566 153.149 124.651C151.993 124.754 150.228 124.86 149.068 124.884C148.319 124.889 147.571 124.826 146.833 124.696C145.776 124.572 144.709 124.551 143.648 124.636C142.513 124.678 141.374 124.669 140.239 124.636C139.565 124.617 138.89 124.673 138.229 124.805C137.186 125.019 136.126 125.137 135.062 125.159C133.1 125.208 131.126 125.178 129.176 125.159C123.023 125.103 116.873 125.038 110.725 124.966C109.707 124.966 108.69 124.902 107.676 124.869C107.574 124.878 107.472 124.87 107.373 124.845C106.319 124.442 105.22 124.602 104.139 124.599C100.99 124.599 97.8415 124.599 94.6927 124.633C91.014 124.687 87.3353 124.805 83.6566 124.887C81.5371 124.935 80.3503 124.92 78.246 125.02C67.7427 125.52 57.2335 125.235 46.7272 125.323C44.3777 125.341 42.0281 125.323 39.6786 125.338C38.3736 125.356 37.0687 125.45 35.7668 125.514C34.3861 125.583 33.0085 125.653 31.6369 125.399C31.3026 125.346 30.9638 125.327 30.6257 125.341C25.2242 125.414 19.8247 125.489 14.4272 125.568C14.2572 125.56 14.0868 125.57 13.9186 125.595C12.1473 125.986 10.3489 125.786 8.5625 125.871C7.95695 125.901 7.3514 126.001 6.76402 126.062C5.82844 126.156 4.88379 126.325 4.00574 125.804C3.7857 125.691 3.59821 125.523 3.461 125.317C3.32379 125.111 3.24138 124.873 3.22156 124.627C3.09483 123.722 3.10708 122.803 3.25789 121.902C3.27861 121.709 3.23381 121.515 3.13073 121.35C3.02335 121.162 2.95633 120.953 2.93391 120.737C2.9115 120.522 2.93419 120.304 3.00053 120.097C3.15495 119.313 3.26092 118.52 3.36386 117.729C3.36304 117.573 3.41582 117.422 3.51337 117.3C3.61092 117.178 3.74732 117.093 3.89977 117.06C4.76873 116.785 5.60742 116.418 6.47335 116.131C6.85864 115.999 7.26209 115.927 7.66931 115.919C11.6387 115.895 15.6111 115.901 19.5835 115.873C20.1364 115.839 20.6872 115.777 21.2336 115.686C21.5207 115.645 21.8098 115.62 22.0995 115.61C23.238 115.61 24.3764 115.64 25.5148 115.61C26.5503 115.574 27.5858 115.465 28.6213 115.38C31.3705 115.147 34.1257 114.886 36.887 115.056C39.1881 115.198 41.4801 115.15 43.7782 115.098C46.273 115.041 48.7679 115.08 51.2627 115.077C52.3527 115.077 53.4427 115.077 54.5327 115.077L63.5402 115.165C67.4864 115.207 71.4326 115.25 75.3787 115.292C77.0702 115.304 78.7627 115.304 80.4562 115.292C81.8369 115.292 82.3092 115.256 83.6868 115.21C86.1363 115.132 88.5766 115.262 91.017 115.419C91.5469 115.455 92.0828 115.462 92.6157 115.459C95.8099 115.431 99.0072 115.386 102.205 115.368C103.098 115.368 103.994 115.437 104.887 115.44C105.562 115.44 106.237 115.362 106.913 115.365C108.139 115.365 109.374 115.201 110.585 115.574C110.846 115.629 111.113 115.646 111.379 115.625C115.763 115.625 120.147 115.62 124.531 115.61C124.989 115.586 125.445 115.537 125.897 115.462C126.303 115.4 126.712 115.36 127.123 115.34C136.594 115.34 146.061 115.316 155.532 115.34C157.832 115.31 160.132 115.425 162.417 115.686C164.718 115.988 167.004 115.891 169.296 115.934C172.058 115.984 174.818 116.008 177.577 116.004C184.093 115.985 190.608 115.952 197.121 115.904C197.772 115.904 198.423 115.816 199.077 115.782C200.237 115.722 201.396 115.649 202.556 115.628C204.034 115.601 205.511 115.628 206.989 115.628C207.957 115.585 208.928 115.663 209.877 115.861C210.163 115.912 210.453 115.929 210.743 115.913C227.553 115.913 244.362 115.913 261.17 115.913C261.848 115.913 262.527 115.946 263.205 115.913C263.683 115.891 264.158 115.786 264.637 115.731C264.994 115.675 265.354 115.642 265.715 115.631C267.992 115.613 270.256 115.631 272.545 115.598C274.117 115.571 275.688 115.462 277.259 115.392C277.381 115.392 277.502 115.392 277.623 115.392C280.99 115.392 284.357 115.359 287.723 115.392C289.08 115.392 290.434 115.485 291.778 115.67C294.94 116.104 298.132 116.294 301.324 116.24C305.514 116.221 309.705 116.209 313.895 116.24C315.56 116.258 317.226 116.376 318.891 116.527C319.911 116.621 320.92 116.863 321.937 117.036C322.103 117.063 322.273 117.069 322.439 117.093C323.202 117.202 323.953 117.311 324.722 117.43C325.113 117.49 325.207 117.784 325.228 118.12C325.261 118.677 325.316 119.234 325.322 119.788C325.346 122.065 325.362 124.342 325.37 126.619C325.37 127.394 325.149 127.648 324.395 127.639C323.844 127.639 323.296 127.524 322.745 127.482C322.07 127.427 321.392 127.376 320.717 127.364C319.731 127.308 318.754 127.14 317.807 126.861C317.089 126.679 316.348 126.595 315.615 126.458C314.882 126.322 314.198 126.192 313.496 126.056C313.171 125.972 312.84 125.914 312.505 125.883C310.931 125.841 309.357 125.883 307.785 125.786C306.486 125.713 305.196 125.483 303.904 125.353C303.451 125.276 302.991 125.244 302.532 125.256C298.181 125.629 293.821 125.514 289.461 125.486C287.187 125.471 284.92 125.299 282.64 125.39C280.066 125.492 277.514 125.105 274.946 125.235C274.277 125.271 273.608 125.386 272.939 125.465C272.772 125.483 272.603 125.511 272.433 125.514C271.053 125.514 269.672 125.514 268.294 125.514C268.031 125.492 267.769 125.447 267.513 125.38C267.255 125.318 266.993 125.271 266.729 125.238C264.87 125.12 263.011 125.014 261.152 124.899C260.91 124.883 260.669 124.851 260.431 124.805C259.477 124.634 258.504 124.595 257.54 124.69C256.262 124.801 254.981 124.871 253.698 124.899C250.552 124.972 247.403 125.011 244.254 125.063C241.738 125.105 239.222 125.184 236.703 125.172C234.938 125.172 233.173 125.078 231.41 124.944C228.758 124.745 226.109 124.557 223.444 124.605C220.877 124.651 218.297 124.63 215.742 124.654C212.302 124.687 208.863 124.739 205.426 124.781L205.408 124.708ZM35.7092 118.011L35.5367 118.123C35.5033 118.193 35.4246 118.28 35.4428 118.329C35.4619 118.366 35.4898 118.398 35.5242 118.422C35.5585 118.445 35.5981 118.46 35.6396 118.465C35.6911 118.465 35.7698 118.35 35.7758 118.283C35.7692 118.189 35.7466 118.097 35.7092 118.011Z" fill="#EB9B12"/>
<path d="M304.022 89.108C302.157 89.108 300.292 89.108 298.429 89.108C297.997 89.0804 297.566 89.0258 297.14 88.9445C297.022 88.9263 296.904 88.8779 296.785 88.8718C295.314 88.7689 293.845 88.6326 292.374 88.5963C291.725 88.6252 291.081 88.7185 290.451 88.8749C290.383 88.8933 290.318 88.9253 290.262 88.9689C290.206 89.0126 290.159 89.0671 290.124 89.1292C289.922 89.5924 289.749 90.0648 289.579 90.5401C289.522 90.6976 289.579 90.9065 289.476 91.0276C288.798 91.9359 288.701 93.0622 288.468 94.1098C288 96.0183 287.193 97.8273 286.085 99.4508C285.534 100.305 284.977 101.155 284.429 102.009C283.966 102.733 283.327 102.851 282.661 102.33C282.507 102.209 282.358 102.097 282.192 101.985C281.532 101.507 281.392 100.956 281.804 100.232C282.161 99.6021 282.57 98.9996 282.949 98.3789C284.29 96.1287 285.253 93.674 285.801 91.1124C286.149 89.5773 286.597 88.0664 286.976 86.5374C287.278 85.3627 287.502 84.1758 287.79 83.001C288.078 81.8263 288.435 80.6697 288.698 79.4889C288.883 78.6411 288.938 77.763 289.083 76.9062C289.171 76.3884 289.322 75.8828 289.446 75.3711C289.57 74.8594 289.676 74.4355 289.788 73.9662C290.185 72.304 290.491 70.6115 290.999 68.9826C291.411 67.6625 291.605 66.303 291.971 64.9829C292.274 63.9111 292.619 62.8635 292.925 61.7887C293.097 61.214 293.239 60.6309 293.352 60.0417C293.797 57.5831 294.796 55.3365 295.944 53.1445C296.346 52.3724 296.77 51.6094 297.155 50.8313C297.551 50.1142 298.003 49.4288 298.505 48.7815C299.132 47.8944 299.677 46.9648 300.231 46.0141C300.482 45.5872 300.34 45.3087 299.84 45.2632C299.436 45.2486 299.03 45.2709 298.629 45.3299C298.229 45.41 297.825 45.4696 297.418 45.5085C295.701 45.5297 293.979 45.5267 292.271 45.5085C291.912 45.4942 291.556 45.4311 291.214 45.3208C290.046 44.9817 288.895 44.8303 287.745 45.3965C287.522 45.4864 287.282 45.5267 287.042 45.5146C283.142 45.5146 279.243 45.5146 275.343 45.5146C274.594 45.5146 273.846 45.5206 273.099 45.5327C272.93 45.5327 272.762 45.551 272.597 45.5872C271.919 45.7447 271.755 46.0141 271.922 46.6833L272.975 50.8948C273.308 52.2271 273.642 53.5593 273.977 54.8915C274.017 55.0308 274.065 55.1673 274.123 55.3002C274.404 55.9966 274.51 56.0723 275.204 55.8725C276.609 55.4698 278.534 56.036 279.352 57.3863C279.797 58.1312 280.342 58.8275 280.699 59.6117C281.051 60.2797 281.213 61.0319 281.165 61.7856C281.095 62.2355 281 62.6813 280.881 63.1209C280.64 64.3656 279.95 65.4786 278.943 66.2485C278.177 66.8725 277.358 67.4268 276.493 67.9047C276.258 68.0008 276.061 68.1711 275.931 68.3897C275.802 68.6083 275.747 68.8633 275.776 69.1158C275.812 70.7387 275.815 72.3615 275.806 73.9844C275.837 75.1949 275.735 76.4051 275.503 77.5935C275.343 78.3232 275.291 79.0801 275.201 79.8219C274.906 82.0763 274.406 84.2989 273.705 86.4617C273.402 87.3701 273.036 88.2784 272.818 89.214C272.291 91.4666 271.352 93.5557 270.338 95.6176C269.82 96.6773 269.294 97.7371 268.409 98.5818C268.107 98.8603 267.925 99.2479 267.649 99.5507C266.974 100.305 266.296 101.065 265.578 101.77C265.313 102.012 265.005 102.202 264.67 102.33C263.459 102.823 262.248 103.299 261.037 103.759C260.166 104.11 259.265 104.379 258.345 104.565C257.631 104.695 256.889 104.68 256.226 104.867C255.6 105.035 254.954 105.112 254.306 105.094C254.162 105.114 254.015 105.101 253.876 105.055C253.237 104.728 252.55 104.852 251.878 104.801C251.499 104.754 251.123 104.687 250.752 104.601C250.682 104.601 250.615 104.553 250.543 104.543C249.686 104.431 248.826 104.331 247.969 104.204C247.659 104.147 247.355 104.062 247.061 103.95C246.318 103.739 245.588 103.485 244.875 103.187C244.181 102.86 243.561 102.385 242.895 101.997C241.959 101.449 241.002 100.943 240.076 100.383C239.141 99.8131 238.32 99.075 237.654 98.2063C237.269 97.7128 236.918 97.189 236.524 96.6925C236 96.0415 235.716 95.2785 235.374 94.5276C234.904 93.4982 234.717 92.4082 234.465 91.3303C234.349 90.9139 234.196 90.5086 234.008 90.1193C233.709 89.4533 233.56 88.7297 233.572 87.9998C233.572 87.0915 233.572 86.2044 233.572 85.3112C233.636 82.6649 233.315 80.0429 233.121 77.4118C232.979 75.5074 232.985 73.5878 232.979 71.6773C232.961 68.1409 232.93 64.6014 233.009 61.0802C233.064 58.6126 233.312 56.151 233.427 53.6834C233.45 52.7907 233.428 51.8973 233.36 51.0069C233.236 48.7088 233.136 46.4077 232.939 44.1188C232.829 42.8425 232.617 41.5769 232.307 40.3341C232.083 39.456 231.613 38.6416 231.247 37.8029C231.005 37.2488 230.726 36.7099 230.79 36.071C230.859 35.3444 231.214 34.978 231.949 34.9568C232.603 34.9386 233.257 34.9568 233.911 34.9568C234.441 34.9417 234.974 34.8387 235.501 34.872C236.946 34.922 238.394 34.8796 239.834 34.7449C240.994 34.7086 242.155 34.7359 243.312 34.8266C243.989 34.8584 244.663 34.9251 245.332 35.0265C245.668 35.095 245.971 35.2759 246.192 35.5395C246.412 35.803 246.536 36.1335 246.543 36.4767C246.561 36.6947 246.543 36.9127 246.543 37.1307C246.543 40.1827 246.561 43.2377 246.543 46.2897C246.543 47.3524 246.41 48.4091 246.343 49.4748C246.31 49.9835 246.28 50.4891 246.274 50.9887C246.234 53.2171 246.274 55.4486 246.159 57.6709C245.856 63.9202 245.995 70.1695 246.004 76.4157C246.004 78.302 246.134 80.1913 246.286 82.0745C246.38 83.219 246.643 84.3514 246.806 85.4898C246.891 86.0954 246.861 86.7009 247.143 87.258C247.306 87.579 247.424 87.9241 247.569 88.2542C247.662 88.3955 247.744 88.5444 247.812 88.6992C248.154 89.9769 249.041 90.9065 249.798 91.9389C250.589 92.9754 251.525 93.893 252.577 94.6639C253.816 95.5867 255.178 96.3326 256.622 96.8802C256.926 96.9646 257.24 97.0013 257.555 96.9892C258.566 97.0528 259.581 97.0831 260.583 97.1739C261.141 97.2011 261.697 97.0865 262.2 96.8408C263.156 96.4371 264.107 96.0163 265.052 95.5783C266.395 94.9569 267.48 93.8861 268.119 92.5505C269.185 90.4886 269.863 88.3117 270.486 86.0954C270.813 84.9388 270.962 83.7337 271.192 82.5499C271.349 81.7445 271.528 80.9452 271.667 80.1277C271.807 79.3102 271.97 78.4624 272.031 77.6207C272.14 75.8065 272.039 73.9857 271.728 72.195C271.582 71.1959 271.349 70.2058 271.14 69.2127C271.016 68.6253 270.677 68.4103 269.996 68.5314C269.257 68.6591 268.5 68.6489 267.765 68.5012C265.915 68.15 264.706 66.191 264.628 64.7498C264.581 63.3878 264.773 62.0281 265.194 60.732C265.209 60.661 265.237 60.5933 265.276 60.5322C265.996 59.6632 266.62 58.7004 267.643 58.11C268.074 57.8923 268.486 57.6402 268.876 57.3561C269.387 56.9503 269.445 56.366 269.303 55.7665C269.103 54.9187 268.891 54.0709 268.673 53.2292C268.285 51.7335 267.889 50.2378 267.495 48.7452C267.035 46.9921 266.535 45.2511 266.127 43.489C265.629 41.4188 264.98 39.3878 264.186 37.4123C263.945 36.8627 263.772 36.2864 263.668 35.6956C263.574 34.9992 263.762 34.7873 264.458 34.7873C265.972 34.7873 267.486 34.5935 269.024 34.8115C270.677 35.0704 272.361 35.0704 274.014 34.8115C274.114 34.7943 274.215 34.7852 274.317 34.7842C276.254 34.7842 278.201 34.6783 280.127 34.8266C282.719 35.0234 285.304 34.9538 287.896 34.9386C289.685 34.9386 291.478 34.7206 293.261 34.8024C301.369 35.1748 309.484 34.8629 317.592 34.981C318.319 35.0118 319.046 35.0048 319.772 34.9598C320.638 34.8841 321.446 35.1385 322.273 35.2838C322.782 35.3716 322.957 35.632 322.915 36.1709C322.878 36.6058 322.812 37.0377 322.718 37.4638C322.561 38.2177 322.373 38.9777 322.206 39.7225C322.171 39.888 322.15 40.0561 322.143 40.2251C321.755 46.8861 321.891 53.5865 321.916 60.2718C321.94 66.957 322.022 73.6877 322.034 80.3972C322.034 83.5914 321.919 86.7827 321.901 89.9769C321.901 91.9843 321.955 93.9948 322.01 96.0022C322.038 97.2746 322.497 98.4999 323.311 99.478C323.528 99.7214 323.69 100.008 323.787 100.318C323.885 100.629 323.916 100.956 323.878 101.28C323.856 101.47 323.878 101.667 323.878 101.861C323.878 102.615 323.826 102.654 323.051 102.73C322.785 102.757 322.518 102.769 322.252 102.772L312.018 102.921C311.873 102.921 311.727 102.921 311.582 102.921C310.758 102.857 310.589 102.672 310.592 101.837C310.592 100.868 310.592 99.8989 310.616 98.93C310.635 98.5448 310.686 98.1618 310.771 97.7855C310.878 97.4366 310.862 97.0612 310.725 96.7228C310.65 96.5716 310.612 96.4042 310.616 96.2353C310.64 95.2694 310.677 94.3006 310.719 93.3347C310.771 92.1993 310.852 91.0669 310.883 89.9315C310.883 89.2382 310.777 89.1322 310.077 89.1262C308.942 89.1262 307.8 89.1262 306.662 89.1262H304.046L304.022 89.108ZM307.025 79.3163C307.906 79.2497 308.872 79.1921 309.835 79.1043C310.359 79.0559 310.483 78.8984 310.577 78.3837C310.62 78.1229 310.687 77.8665 310.777 77.6177C310.953 77.1654 311.009 76.6752 310.94 76.1947C310.912 75.9074 310.917 75.6178 310.955 75.3318C311.004 74.8049 311.113 74.2811 311.128 73.7543C311.204 71.2171 311.249 68.6768 311.322 66.1365C311.346 65.2282 311.373 64.2956 311.464 63.3813C311.784 59.8577 311.826 56.3143 311.588 52.7842C311.54 51.9879 311.464 51.1916 311.406 50.3953C311.34 49.4869 311.27 48.5786 311.222 47.6461C311.196 47.3363 311.214 47.0246 311.273 46.7196C311.425 46.002 311.134 45.3844 310.428 45.1906C309.89 45.0533 309.341 44.9641 308.787 44.9241C308.52 44.9136 308.255 44.9659 308.012 45.0769C307.769 45.1878 307.555 45.3544 307.389 45.563C307.103 45.8853 306.762 46.1531 306.38 46.3532C305.521 46.7606 304.788 47.3937 304.261 48.185C303.861 48.7603 303.495 49.3628 303.071 49.9229C302.597 50.5919 302.077 51.2273 301.515 51.8244C300.911 52.4198 300.424 53.1233 300.08 53.8984C299.171 55.9542 298.263 58.01 297.355 60.0598C296.924 61.0288 296.608 62.045 296.413 63.0876C296.274 63.8233 296.15 64.5651 295.974 65.2948C295.565 67.0115 295.153 68.7313 294.699 70.442C294.163 72.4372 294.094 74.4991 293.791 76.5217C293.758 76.811 293.766 77.1035 293.815 77.3906C293.924 78.199 294.257 78.5533 295.057 78.6744C295.558 78.7463 296.064 78.7898 296.57 78.8046C298.357 78.8772 300.146 78.9196 301.933 79.0044C303.604 79.1164 305.269 79.2224 307.025 79.3284V79.3163Z" fill="#EB9B12"/>
<path d="M147.469 78.747C147.469 75.2833 147.499 71.8196 147.454 68.3558C147.433 66.842 147.251 65.3281 147.151 63.793C147.063 62.3427 147.063 60.8864 146.912 59.4422C146.355 54.0316 146.77 48.5998 146.561 43.1832C146.497 41.5421 146.258 39.9102 146.101 38.2752C146.043 37.625 146.022 36.9719 146.04 36.3193C146.058 35.8076 146.31 35.5926 146.824 35.5502C147.112 35.5169 147.415 35.5169 147.717 35.5169C150.067 35.5169 152.417 35.5169 154.766 35.5169C155.173 35.4815 155.577 35.4239 155.977 35.3444C156.431 35.2783 156.888 35.2379 157.346 35.2232C158.145 35.2232 158.944 35.2596 159.744 35.2717C160.631 35.2868 160.728 35.3807 160.679 36.2981C160.646 36.9763 160.591 37.6515 160.552 38.3297C160.47 39.7285 160.41 41.1334 160.31 42.5322C160.201 44.0279 160.143 45.5327 159.904 47.0072C159.547 49.2296 159.698 51.4519 159.701 53.6683C159.701 54.9036 159.801 56.1389 159.78 57.3712C159.759 58.6035 159.644 59.7934 159.568 61.0045C159.523 61.7523 159.471 62.5002 159.426 63.2511C159.398 63.7506 159.644 64.0292 160.101 64.2411C161.918 65.0909 163.723 65.9629 165.518 66.8571C166.239 67.2002 166.929 67.6054 167.579 68.0682C168.186 68.51 168.729 69.0314 169.196 69.6184C170.226 70.9324 171.234 72.2707 172.148 73.6665C173.113 75.0566 173.964 76.5228 174.692 78.0507C175.409 79.6796 176.448 81.036 177.574 82.3622C178.295 83.213 179.297 83.5733 180.317 83.9124C180.732 84.0456 181.15 84.1728 181.574 84.2636C181.998 84.3544 182.179 84.2273 182.246 83.761C182.255 83.64 182.255 83.5186 182.246 83.3977C182.21 81.6779 182.206 79.9581 182.125 78.2505C182.061 76.9244 181.937 75.5952 181.774 74.2781C181.501 72.0527 181.619 69.8243 181.64 67.5989C181.658 65.8337 181.789 64.0686 181.883 62.3034C182.004 60.081 182.21 57.8587 182.125 55.6423C182.031 53.1747 181.916 50.7071 181.864 48.2395C181.84 47.1041 181.946 45.9687 181.988 44.8333C182.007 44.3761 182.037 43.925 182.016 43.4587C181.97 42.4414 181.904 41.4271 181.825 40.431C181.798 40.0737 181.698 39.7225 181.637 39.3682C181.59 39.1332 181.557 38.8956 181.537 38.6567C181.552 38.1245 181.538 37.5918 181.495 37.0611C181.331 35.9741 182.061 35.4836 182.948 35.3444C184.21 35.1072 185.491 34.9835 186.775 34.975C189.004 35.0234 191.232 34.975 193.461 34.975C194.62 34.975 195.099 35.4049 195.087 36.5857C195.087 38.1602 195.008 39.7316 194.953 41.306C194.929 41.9812 194.896 42.6594 194.841 43.3346C194.775 44.1763 194.672 45.015 194.596 45.8537C194.554 46.3139 194.52 46.762 194.511 47.2313C194.511 48.079 194.526 48.9268 194.493 49.7746C194.469 50.3983 194.372 51.022 194.311 51.6427C194.275 52.0302 194.227 52.4148 194.227 52.8023C194.227 57.8647 194.227 62.9271 194.227 67.9895C194.258 68.5194 194.32 69.047 194.411 69.57C194.445 69.8727 194.487 70.1967 194.493 70.5086C194.493 71.4169 194.472 72.3525 194.517 73.2699C194.557 74.1116 194.672 74.9503 194.75 75.792C194.775 76.0312 194.793 76.2734 194.796 76.5156C194.823 79.2042 194.823 81.8929 194.875 84.5815C194.944 88.0907 195.023 91.6028 195.153 95.112C195.223 96.9952 195.423 98.8725 195.526 100.756C195.529 101.336 195.491 101.916 195.414 102.491C195.407 102.639 195.347 102.78 195.243 102.886C195.14 102.993 195.001 103.058 194.853 103.069C194.589 103.103 194.323 103.12 194.057 103.12C191.904 103.166 189.749 103.202 187.593 103.251C187.351 103.233 187.108 103.258 186.875 103.323C185.967 103.684 185.01 103.556 184.072 103.544C183.066 103.544 182.558 102.99 182.464 101.979C182.26 100.197 182.201 98.4019 182.288 96.6107C182.328 96.093 182.158 95.5571 182.182 95.0333C182.279 92.9562 182.415 90.8792 182.116 88.8022C181.992 87.9423 181.764 87.7243 180.905 87.7213C180.638 87.7213 180.372 87.7667 180.108 87.7455C179.894 87.7524 179.683 87.6944 179.503 87.579C179.111 87.2529 178.647 87.0255 178.149 86.9159C176.66 86.5132 175.527 85.6019 174.552 84.4513C174.177 84.0093 173.786 83.5763 173.372 83.1706C173.007 82.7829 172.718 82.3312 172.518 81.8384C171.706 80.1368 170.889 78.4352 170.02 76.7639C169.711 76.2713 169.353 75.8117 168.951 75.3923C168.185 74.4567 167.404 73.5333 166.644 72.5916C166.453 72.3731 166.307 72.1189 166.214 71.8438C166.147 71.5976 166.029 71.3679 165.869 71.1689C165.709 70.9699 165.51 70.806 165.284 70.6872C164.353 70.1262 163.39 69.6207 162.399 69.1733C161.713 68.9515 161 68.8261 160.28 68.8009C159.804 68.7525 159.674 68.9039 159.647 69.3822C159.568 70.445 159.498 71.5017 159.432 72.5674C159.432 72.6885 159.432 72.8096 159.432 72.9308C159.498 74.3084 159.617 75.686 159.62 77.0636C159.638 83.9427 159.638 90.8217 159.62 97.7007C159.62 98.276 159.471 98.8513 159.456 99.4265C159.412 100.27 159.421 101.115 159.483 101.958C159.565 102.842 159.456 103.06 158.548 103.075C157.639 103.09 156.807 103.196 155.986 102.754C155.758 102.672 155.513 102.644 155.272 102.672C153.092 102.672 150.912 102.672 148.732 102.672C148.444 102.672 148.156 102.733 147.869 102.751C147.653 102.769 147.437 102.769 147.221 102.751C147.135 102.752 147.051 102.734 146.973 102.699C146.895 102.665 146.825 102.614 146.767 102.551C146.71 102.487 146.667 102.412 146.641 102.331C146.615 102.25 146.606 102.164 146.615 102.079C146.615 101.861 146.597 101.643 146.594 101.425C146.594 100.553 146.57 99.6809 146.594 98.8089C146.594 97.8676 146.687 96.9285 146.87 96.0052C147.106 94.9546 147.039 93.8373 147.172 92.7594C147.705 88.563 147.627 84.3514 147.593 80.1398C147.593 79.6796 147.545 79.2315 147.521 78.7592L147.469 78.747Z" fill="#EB9B12"/>
<path d="M105.632 34.3392C106.328 34.3634 107.085 34.4664 107.791 34.1061C109.196 34.1061 110.597 34.1061 111.999 34.1606C112.65 34.1818 113.298 34.3059 113.946 34.3816C114.066 34.3857 114.186 34.4009 114.303 34.427C116.222 34.9944 118.087 35.7279 119.877 36.6191C121.391 37.4184 122.92 38.1996 124.419 39.0413C125.119 39.4256 125.774 39.8866 126.372 40.4159C127.416 41.3787 128.603 42.1932 129.46 43.3619C130.417 44.6668 131.434 45.9294 132.418 47.2132C132.531 47.3403 132.621 47.4857 132.685 47.6431C133.154 49.157 134.002 50.5195 134.392 52.0757C134.648 53.0039 134.851 53.9461 134.998 54.8976C135.113 55.7514 135.44 56.575 135.603 57.4227C135.823 58.4075 135.992 59.4029 136.109 60.4051C136.197 61.2468 136.145 62.1006 136.151 62.9484C136.163 63.6536 136.348 64.3451 136.69 64.9618C136.777 65.1496 136.91 65.3122 137.077 65.4341C137.244 65.556 137.439 65.6332 137.644 65.6582C138.166 65.7332 138.682 65.8435 139.188 65.9882C139.416 66.0642 139.62 66.199 139.779 66.3788C140.504 67.1314 141.079 68.015 141.474 68.9826C141.637 69.4624 141.689 69.9725 141.629 70.4753C141.545 71.6886 141.229 72.8746 140.699 73.9693C140.537 74.4131 140.256 74.8043 139.888 75.1008C139.52 75.3974 139.078 75.5882 138.61 75.6528C137.876 75.7899 137.134 75.8729 136.388 75.901C135.664 75.901 135.428 76.9456 135.625 77.6299C135.762 78.0126 135.805 78.423 135.749 78.8258C135.552 79.7998 135.477 80.7946 135.528 81.787C135.549 82.8406 135.225 83.8277 135.046 84.845C134.84 86.0016 134.205 86.9462 133.766 87.9848C133.607 88.2842 133.433 88.5752 133.245 88.8568C133.072 89.1595 132.942 89.5047 132.751 89.8014C132.349 90.4312 131.943 91.064 131.489 91.6544C130.58 92.8231 129.672 93.9646 128.737 95.1181C128.707 95.1563 128.675 95.1917 128.64 95.2241C127.201 96.5835 125.854 98.0429 124.24 99.2147C123.821 99.5356 123.439 99.9033 123.102 100.311C122.589 100.892 121.987 101.389 121.319 101.782C120.574 102.233 119.877 102.775 119.096 103.148C118.018 103.659 117.049 104.456 115.787 104.528C115.713 104.533 115.642 104.554 115.578 104.592C114.476 105.294 113.219 105.5 111.966 105.73C111.733 105.773 111.518 105.909 111.288 105.973C110.678 106.145 110.037 106.169 109.417 106.042C108.096 105.794 106.728 105.806 105.384 105.679C104.33 105.538 103.317 105.176 102.413 104.616C101.887 104.313 101.351 104.044 100.821 103.759C100.763 103.716 100.697 103.683 100.627 103.662C99.0011 103.566 97.902 102.388 96.5819 101.679C95.9014 101.368 95.2507 100.995 94.6381 100.565C93.3078 99.5567 92.0502 98.4559 90.8746 97.2708C89.7907 96.1142 88.5766 95.0576 87.7197 93.6921C87.2837 92.9957 86.8114 92.3326 86.3421 91.6514C85.9206 91.0931 85.5382 90.5063 85.1976 89.8953C84.4322 88.3618 83.8236 86.755 83.381 85.0993C82.9024 83.0734 82.6215 81.0059 82.5423 78.9258C82.4878 78.0386 82.3546 76.5459 82.2062 75.6679C82.1387 75.4217 81.9864 75.2073 81.7763 75.0623C81.5421 74.8899 81.2615 74.7918 80.9709 74.7808C80.1625 74.808 79.4722 74.5022 78.7606 74.1752C78.4283 74.0515 78.1307 73.8492 77.8935 73.5856C77.6562 73.322 77.4863 73.0049 77.3982 72.6614C76.9864 70.9628 76.6745 69.8516 76.8986 68.0895C76.9454 67.6302 77.1091 67.1907 77.3742 66.8128C77.6392 66.4348 77.9967 66.1312 78.4125 65.9307C79.3783 65.4311 80.3956 65.0224 81.2585 64.3411C81.4915 64.2222 81.751 64.1648 82.0124 64.1746C82.5726 64.111 82.7694 63.9838 82.7875 63.4177C82.836 61.9038 83.3658 60.4807 83.602 59.0032C83.8139 57.6892 84.0501 56.3812 84.6223 55.164C84.6792 55.0283 84.699 54.88 84.6799 54.7341C84.5406 53.5533 85.0281 52.5057 85.3793 51.4339C85.6821 50.4953 86.0848 49.5839 86.3663 48.6392C86.6535 47.7901 87.1381 47.0211 87.7803 46.3957C88.9702 45.121 90.1056 43.8372 90.7172 42.1387C90.9201 41.5785 91.4953 41.085 92.0131 40.7126C93.5269 39.6105 95.1135 38.575 96.6879 37.5395C97.0161 37.3335 97.3829 37.1965 97.7658 37.1369C98.5756 36.9898 99.3566 36.7138 100.079 36.3194C101.136 35.7865 102.198 35.2657 103.24 34.6995C103.997 34.3059 104.799 34.3967 105.632 34.3392ZM93.9872 78.0871H93.9508C93.9872 78.7411 93.9841 79.3981 94.0719 80.043C94.2294 81.1905 94.4353 82.332 94.6321 83.4734C94.6624 83.6611 94.7411 83.8398 94.7895 84.0275C94.8585 84.2316 94.9043 84.4429 94.9258 84.6573C94.947 85.72 94.9258 86.7767 95.2134 87.8243C95.501 88.8719 95.6766 90.0315 96.1823 91.064C96.3926 91.5744 96.5686 92.0984 96.7091 92.6323C96.8938 93.1773 97.0785 93.7223 97.2692 94.2613C97.3782 94.5792 97.4993 94.891 97.6235 95.2029C97.7219 95.4987 97.8413 95.787 97.9808 96.0658C98.7229 97.3429 99.6401 98.5098 100.706 99.5326C100.886 99.7269 101.096 99.8923 101.326 100.023C102.102 100.402 102.713 100.986 103.37 101.519C103.673 101.75 104.009 101.936 104.366 102.07C104.814 102.245 105.29 102.339 105.741 102.506C106.386 102.779 107.073 102.938 107.772 102.975C109.223 102.999 110.67 103.069 112.117 102.975C112.427 102.945 112.733 102.876 113.026 102.769C113.631 102.572 114.194 102.264 114.806 102.164C115.538 101.999 116.219 101.657 116.789 101.168C117.213 100.847 117.634 100.517 118.03 100.159C118.332 99.917 118.593 99.6289 118.806 99.3055C119.487 98.1126 120.138 96.9045 120.774 95.6722C120.926 95.3695 121.015 95.0387 121.034 94.7003C121.093 94.1231 121.26 93.5622 121.528 93.0471C121.724 92.6051 121.964 92.1842 122.151 91.7422C122.41 91.1688 122.636 90.5815 122.829 89.9831C122.969 89.4717 123.019 88.9401 122.978 88.4117C122.957 87.4467 122.99 86.4814 123.078 85.5202C123.162 84.2394 123.281 82.9617 123.38 81.684C123.468 80.6001 123.586 79.5162 123.632 78.4292C123.674 77.4422 123.244 75.9101 121.979 75.7042C121.833 75.68 121.691 75.6588 121.549 75.6316C121.103 75.5773 120.679 75.4096 120.317 75.1445C119.955 74.8794 119.667 74.5259 119.481 74.1177C119.308 73.7453 119.069 73.4001 118.915 73.0217C118.758 72.647 118.643 72.256 118.572 71.856C118.469 71.1868 118.46 71.1112 118.354 70.442C118.197 69.6478 118.337 68.8233 118.748 68.1258C119.311 67.2175 119.959 66.3758 120.595 65.531C120.762 65.3222 120.989 65.1699 121.246 65.095C122.154 64.8558 123.063 64.659 123.971 64.4562C124.513 64.3381 124.719 64.1716 124.655 63.6175C124.534 62.6153 124.301 61.6283 124.325 60.5897C124.325 60.4596 124.213 60.3294 124.156 60.1961C123.77 59.2029 123.556 58.1515 123.523 57.0866C123.423 55.8392 123.493 54.5766 123.483 53.3232C123.489 53.1294 123.475 52.9357 123.441 52.7449C123.178 51.5338 122.878 50.3227 122.63 49.0874C122.368 47.8147 121.914 46.5894 121.282 45.4541C120.918 44.7509 120.655 43.9996 120.501 43.2226C120.47 42.9972 120.378 42.7847 120.235 42.6084C120.091 42.4321 119.901 42.2989 119.687 42.2235C119.216 42.0294 118.804 41.7164 118.491 41.3151C118.079 40.8071 117.642 40.3209 117.18 39.8588C116.068 38.793 114.824 37.9331 113.265 37.6485C112.72 37.5486 112.175 37.4608 111.645 37.3125C110.573 37.0279 109.464 36.9114 108.357 36.9673C107.633 36.9915 106.91 37.0793 106.183 37.0914C105.551 37.0931 104.939 37.3183 104.457 37.7273C104.224 37.9382 103.959 38.1118 103.673 38.242C102.622 38.6507 101.98 39.5015 101.314 40.3341C101.045 40.6702 100.76 40.9942 100.47 41.3121C100.327 41.4726 100.167 41.6149 99.9972 41.7602C98.9284 42.7473 98.341 44.0643 97.6235 45.2875C97.3842 45.7052 97.1816 46.1428 97.0179 46.5955C96.5835 47.8537 96.3436 49.1708 96.3064 50.5013C96.3193 50.81 96.2731 51.1183 96.1702 51.4096C95.5728 52.7084 95.2581 54.1191 95.2467 55.5486C95.2467 55.812 95.2073 56.0784 95.1771 56.3418C95.1105 56.9171 94.9954 57.4863 94.9742 58.0616C94.9348 59.1273 94.947 60.181 94.9439 61.2589C94.9439 62.1309 94.9439 63.0029 94.9439 63.8748C94.9178 64.0661 94.9579 64.2605 95.0576 64.4258C95.1573 64.591 95.3106 64.7172 95.492 64.7832C96.1338 65.0526 96.7575 65.3706 97.3782 65.6915C97.9051 65.964 98.5591 66.1002 98.7861 66.7512C99.1572 67.7214 99.4755 68.7109 99.7399 69.7154C99.9609 70.657 100.021 71.0264 99.7035 71.9831C99.5435 72.3882 99.4239 72.8081 99.3463 73.2366C99.2403 74.0723 98.6529 74.4689 97.9808 74.6627C96.8999 74.9655 95.8371 75.4015 94.6502 75.2955C94.1446 75.247 94.0114 75.4227 93.9872 75.9404C93.9629 76.4581 93.9872 77.5784 93.9872 78.0871Z" fill="#EB9B12"/>
<path d="M46.8027 70C46.8027 72.301 46.8027 74.6021 46.8027 76.9032C46.8035 79.7387 47.1626 82.5628 47.8715 85.3082C48.0532 86.0076 48.1531 86.7282 48.3105 87.4276C48.4498 88.0635 48.6133 88.6932 48.7707 89.326C48.9557 89.9192 49.0904 90.5269 49.1734 91.1427C49.2491 92.2872 49.6912 93.2863 50.1938 94.2764C50.3452 94.5792 50.5722 94.8426 50.7236 95.1423C50.8429 95.3428 50.9047 95.5722 50.9023 95.8054C50.8821 95.9356 50.8999 96.0689 50.9536 96.1892C51.0073 96.3095 51.0946 96.4117 51.205 96.4836C52.4161 97.3768 53.5788 98.3245 54.8383 99.1359C55.4775 99.5241 56.1896 99.7766 56.9305 99.8777C58.1204 100.056 59.3345 100.09 60.5396 100.153C61.495 100.174 62.4353 99.9126 63.2433 99.4024C63.9506 98.9378 64.7071 98.5529 65.499 98.2548C65.8627 98.1497 66.2005 97.97 66.4909 97.727C66.7812 97.4841 67.0178 97.1833 67.1855 96.8439C67.9091 95.3694 68.5903 93.8737 69.2655 92.378C69.358 92.0813 69.4259 91.7775 69.4684 91.4697C69.6228 90.8399 69.8075 90.2162 69.9377 89.5804C70.0198 89.2037 70.0524 88.8179 70.0346 88.4328C70.0103 87.9272 69.7863 87.8061 69.2988 87.9968C68.8931 88.1543 68.5025 88.3511 68.112 88.5418C66.807 89.1837 65.4082 89.208 63.9973 89.1656C63.3647 89.1623 62.7434 88.998 62.192 88.6881C61.6405 88.3782 61.1771 87.9329 60.8454 87.3943C60.4987 86.8126 60.228 86.1889 60.04 85.5383C59.5223 83.9336 59.713 82.2775 59.7554 80.6334C60.0692 79.8526 60.4354 79.094 60.8514 78.3626C61.2729 77.8059 61.7553 77.2981 62.2896 76.8487C62.6361 76.5402 63.0822 76.3671 63.5461 76.3612C64.4847 76.2916 65.4203 76.1402 66.3619 76.1099C67.6094 76.0736 68.8326 76.2674 69.8953 76.988C70.5008 77.3967 71.0549 77.86 71.612 78.3262C72.0671 78.7671 72.3991 79.3192 72.5749 79.9279C72.9594 80.9695 73.356 82.011 73.7193 83.0616C73.8391 83.4026 73.9055 83.7601 73.9161 84.1213C73.9788 85.0875 73.9717 86.0568 73.8949 87.0219C73.7284 88.4117 73.4529 89.7923 73.1562 91.1608C72.9632 91.9846 72.7133 92.7939 72.4083 93.583C72.2248 94.1062 71.9733 94.6029 71.6605 95.0606C70.9853 96.0022 70.2405 96.8954 69.5259 97.8128C69.3212 98.0512 69.1368 98.3064 68.9749 98.5758C68.5086 99.469 67.7638 100.071 66.9675 100.635C66.1653 101.259 65.3305 101.84 64.4666 102.376C63.6227 102.839 62.7391 103.226 61.8264 103.532C60.9362 103.835 59.9734 103.835 59.0469 103.968C56.7064 104.328 54.369 104.295 52.0225 104.201C51.6132 104.183 51.2099 104.096 50.8296 103.944C49.9606 103.599 49.013 103.363 48.3832 102.591C48.2796 102.489 48.1544 102.412 48.0168 102.367C47.2962 102.049 46.5575 101.761 45.852 101.416C45.4251 101.201 45.0648 100.856 44.6409 100.616C43.9352 100.2 43.2086 99.8201 42.4639 99.4781C41.8849 99.222 41.4025 98.7883 41.0863 98.2397C40.7644 97.7013 40.3923 97.1944 39.9751 96.7258C38.9168 95.6015 37.9173 94.4231 36.9807 93.1955C36.2458 92.2386 35.6749 91.1663 35.2912 90.0224C35.1641 89.6137 34.8734 89.2564 34.7372 88.8507C34.4063 87.9951 34.145 87.1142 33.956 86.2165C33.7895 85.2507 33.3262 84.3999 33.1234 83.4522C33.0779 83.2403 33.0113 83.0314 32.975 82.8194C32.7853 81.6749 32.5996 80.5314 32.4179 79.389C32.3816 79.1498 32.3937 78.9045 32.3634 78.6654C32.2847 78.0598 32.1878 77.4724 32.103 76.876C32.0667 76.6156 32.0485 76.3491 32.0031 76.0857C31.9486 75.7557 31.8638 75.4287 31.8093 75.0987C31.7344 74.7212 31.6879 74.3386 31.67 73.9542C31.6519 72.4766 31.67 70.9991 31.6519 69.5216C31.6504 68.893 31.611 68.2651 31.5338 67.6413C31.2454 65.5306 31.2607 63.3895 31.5792 61.2831C31.6277 60.9803 31.6337 60.6563 31.67 60.3445C31.7457 59.6723 31.8305 59.0002 31.9062 58.328C31.9519 58.0415 31.9782 57.7522 31.9849 57.4621C31.9577 56.2116 32.2877 55.0399 32.6359 53.8469C32.7989 53.2895 32.9004 52.7158 32.9387 52.1363C33.0399 51.2001 33.3021 50.2885 33.7138 49.4416C34.1377 48.4757 34.3708 47.4281 34.7432 46.4381C35.1398 45.3874 35.4033 44.3005 35.9785 43.2953C36.6468 42.1444 37.5383 41.1387 38.6006 40.3372C39.2077 39.8556 39.7898 39.3433 40.3445 38.8021C40.9932 38.1809 41.7661 37.7041 42.6123 37.4033C43.5363 37.1076 44.4056 36.6627 45.1859 36.0862C45.3213 35.9854 45.4775 35.9161 45.6431 35.8833C46.182 35.7683 46.724 35.6684 47.269 35.5806C48.2673 35.411 49.229 35.071 50.112 34.5754C50.6752 34.2726 51.2262 34.0031 51.8893 34.0667C52.0586 34.0882 52.2305 34.0758 52.3949 34.0304C53.6727 33.6095 54.9897 33.8487 56.2886 33.7972C56.4809 33.8085 56.6716 33.8389 56.8578 33.8881C57.2065 33.9755 57.5621 34.0322 57.9206 34.0576C59.3164 34.0425 60.6092 34.4603 61.9263 34.8418C63.4401 35.2808 64.8753 35.8985 66.3286 36.4738C67.9955 37.0846 69.4621 38.1426 70.5675 39.5318C71.235 40.4776 71.8176 41.4807 72.3084 42.5292C72.6828 43.183 72.9285 43.9024 73.032 44.6487C73.0552 44.8172 73.1107 44.9796 73.1955 45.127C73.9888 46.6137 73.9313 48.2608 74.0796 49.8655C74.3037 52.3119 73.6134 54.5615 72.5294 56.7172C72.2569 57.2562 71.9996 57.8042 71.718 58.3401C71.633 58.5263 71.5072 58.691 71.35 58.822C71.1928 58.953 71.0081 59.047 70.8097 59.097C70.51 59.1869 70.2339 59.342 70.0013 59.5512C69.0263 60.3687 67.8122 60.6654 66.6708 61.1408C66.5089 61.1854 66.3369 61.1769 66.1803 61.1166C65.3971 60.8784 64.6159 60.6281 63.8368 60.3657C63.102 60.1523 62.4365 59.7488 61.9075 59.1959C61.3785 58.643 61.0048 57.9604 60.8242 57.2168C60.5115 56.1628 60.5105 55.0408 60.8212 53.9862C60.8401 53.9411 60.8504 53.8928 60.8514 53.8439C60.7788 52.7751 61.3238 51.9183 61.9051 51.1189C62.2546 50.607 62.7164 50.1816 63.2553 49.8752C63.7942 49.5687 64.3959 49.3894 65.0146 49.3507C66.5987 49.2454 68.1735 49.6646 69.4956 50.5437C69.5562 50.583 69.6198 50.6163 69.6834 50.6496C70.2617 50.9524 70.5099 50.8586 70.522 50.2197C70.5432 48.9874 70.6946 47.7279 70.2586 46.5471C69.859 45.4631 69.3352 44.4276 68.8416 43.38C68.6479 42.9652 68.3481 42.5989 68.1604 42.1689C67.6487 41.0396 66.701 40.4038 65.6655 39.8376C65.0903 39.5309 64.5369 39.1849 64.0094 38.8021C63.3953 38.3246 62.6624 38.0241 61.8899 37.9331C61.0755 37.8453 60.264 37.703 59.4526 37.5698C58.6655 37.4229 57.8575 37.4291 57.0728 37.588C56.4673 37.7212 55.8405 37.812 55.2198 37.9119C54.6252 38.0394 54.0761 38.325 53.6303 38.7385C53.0247 39.2441 52.3828 39.7377 51.7833 40.2524C51.4951 40.5088 51.2371 40.7973 51.0143 41.1123C50.3422 42.0827 49.8386 43.1595 49.5246 44.2974C49.2113 45.4828 48.9956 46.6919 48.8797 47.9126C48.7405 49.0328 48.471 50.141 48.2227 51.2431C47.8527 52.6946 47.5566 54.1639 47.3356 55.6454C47.0018 58.5073 46.8461 61.3872 46.8693 64.2684C46.8693 66.182 46.8057 68.0955 46.7664 70.006L46.8027 70Z" fill="#EB9B12"/>
<path d="M20.3101 34.2363C19.7045 35.5715 19.6137 36.9612 19.4018 38.354C19.1596 40.0011 18.9113 41.6482 18.6781 43.2983C18.6211 43.7058 18.5867 44.1162 18.5752 44.5276C18.4571 48.397 18.3875 52.2695 18.2119 56.139C18.1271 58.0313 18.1755 59.9115 18.2724 61.7978C18.3027 62.1848 18.3027 62.5735 18.2724 62.9605C18.2481 63.6155 18.3853 64.2664 18.6721 64.8558C18.7428 65.1176 18.9086 65.3436 19.137 65.4898C19.3654 65.6359 19.6401 65.6916 19.9074 65.6461C20.233 65.5954 20.5656 65.6116 20.8847 65.6939C21.2039 65.7761 21.5029 65.9227 21.7634 66.1245C22.0082 66.2802 22.2691 66.4091 22.5415 66.509C24.0796 67.169 24.8457 68.3801 24.9637 70.006C24.9955 70.6026 24.9833 71.2007 24.9274 71.7954C24.9113 72.4526 24.7121 73.0923 24.3521 73.6423C24.1426 73.9679 23.971 74.3164 23.8404 74.6809C23.6285 75.2592 23.1804 75.4711 22.6293 75.5892C21.4939 75.8163 20.3616 76.0524 19.2292 76.2825C18.8992 76.3522 18.5691 76.4339 18.2361 76.4854C18.1568 76.4858 18.0784 76.5028 18.006 76.5354C17.9336 76.5679 17.8689 76.6151 17.8158 76.6742C17.7628 76.7332 17.7227 76.8026 17.6981 76.878C17.6735 76.9535 17.6649 77.0332 17.6729 77.1121C17.6729 77.3756 17.7002 77.642 17.7274 77.9054C17.7971 78.511 17.9 79.1468 17.9485 79.7675C18.0453 81.0936 18.118 82.4228 18.1998 83.7489C18.221 84.1123 18.23 85.0812 18.2603 85.4415C18.3421 86.3498 18.4299 87.2581 18.5177 88.1816C18.5177 88.3481 18.5449 88.5176 18.5691 88.6872C18.8356 90.7218 19.1232 92.7535 19.3654 94.7942C19.5229 96.1385 19.6077 97.4919 19.7379 98.8392C19.7863 99.3661 19.8832 99.8898 19.9316 100.417C19.9895 100.872 20.0097 101.332 19.9922 101.791C19.9468 102.448 19.6894 102.66 19.0021 102.66C16.8827 102.66 14.7875 102.645 12.6802 102.66C11.675 102.66 10.6819 102.627 9.67061 102.918C8.58971 103.22 7.42705 103.266 6.2977 103.396C5.93595 103.425 5.57249 103.425 5.21075 103.396C5.04243 103.38 4.87549 103.351 4.71117 103.311C3.77862 103.133 3.52732 102.548 3.97543 101.564C4.20251 101.068 4.70814 100.719 4.78686 100.132C4.91705 99.1844 5.32277 98.2942 5.29552 97.3072C5.25717 95.8296 5.25717 94.3521 5.29552 92.8746C5.36213 89.9467 5.48021 86.4164 5.5438 83.4886C5.58618 81.5538 5.5771 79.6161 5.58013 77.6783C5.58013 76.8911 5.50141 76.8275 4.70511 76.77C4.40234 76.7549 4.07837 76.7337 3.76651 76.6913C2.46761 76.5126 1.55323 75.6588 0.650964 74.8262C0.389931 74.5379 0.234132 74.1697 0.208914 73.7816C0.0938596 72.3374 0.0151387 71.4926 0 70.0424C0.0327897 69.5633 0.156075 69.0948 0.363329 68.6617C0.56316 68.144 0.841712 67.6595 1.08999 67.1478C1.19839 66.8775 1.37981 66.6426 1.61399 66.4693C1.84817 66.2961 2.12589 66.1914 2.41614 66.1668C3.09932 66.1173 3.75061 65.8582 4.28123 65.4251C4.433 65.2869 4.61254 65.1827 4.80783 65.1195C5.00312 65.0563 5.20965 65.0356 5.4136 65.0587C5.51442 65.0653 5.61556 65.0653 5.71638 65.0587C6.6247 65.0587 6.70645 64.9618 6.71553 64.0505C6.71553 62.9605 6.71553 61.8705 6.71553 60.7835C6.74581 56.8111 6.79123 52.8418 6.80939 48.8694C6.80939 47.7582 6.80939 46.6379 6.70039 45.5388C6.61562 44.6033 6.39762 43.6828 6.24926 42.7533C6.14329 42.06 6.0464 41.3636 6.00401 40.6672C5.92226 39.338 5.88593 38.0058 5.81932 36.6766C5.80418 36.389 5.72243 36.1044 5.6861 35.8168C5.63372 35.5076 5.60537 35.1948 5.60132 34.8812C5.60132 34.3211 5.84354 34.097 6.40973 34.0849C7.15758 34.0849 7.9236 34.0849 8.65934 34.0849C9.39509 34.0849 10.155 33.9941 10.9029 33.9517C11.0952 33.9335 11.2889 33.9335 11.4812 33.9517C13.6521 34.2272 15.8321 34.0607 18.009 34.0546C18.317 34.0276 18.6214 33.9688 18.9173 33.879C19.1599 33.8049 19.4182 33.799 19.6639 33.862C19.9096 33.9251 20.1332 34.0545 20.3101 34.2363Z" fill="#EB9B12"/>
<path d="M219.53 61.7131C219.59 62.5699 219.651 63.3662 219.705 64.1625C219.701 64.2354 219.712 64.3083 219.737 64.3768C219.763 64.4452 219.802 64.5077 219.852 64.5603C219.903 64.6128 219.964 64.6544 220.031 64.6824C220.099 64.7103 220.171 64.724 220.244 64.7227C220.268 64.7242 220.293 64.7242 220.317 64.7227C221.325 64.5985 222.203 65.0254 223.102 65.3615C223.283 65.4306 223.452 65.5255 223.605 65.6431C224.008 65.9459 224.392 66.2698 224.792 66.5787C224.911 66.6612 225.01 66.7704 225.08 66.8975C225.149 67.0247 225.189 67.1664 225.194 67.3114C225.246 68.6405 225.34 69.9697 225.355 71.3019C225.369 71.6979 225.301 72.0926 225.155 72.461C225.009 72.8294 224.789 73.1636 224.507 73.4426C223.869 74.0645 223.144 74.5907 222.354 75.0049C221.847 75.3001 221.273 75.4645 220.686 75.4832C220.231 75.5336 219.78 75.6196 219.339 75.7406C219.196 75.7645 219.067 75.8387 218.974 75.9497C218.881 76.0608 218.831 76.2015 218.833 76.3462C218.806 76.6644 218.818 76.9847 218.869 77.2999C219.224 78.9046 217.991 80.0733 216.786 80.5335C215.85 80.9209 214.888 81.2436 213.907 81.4994C213.171 81.672 212.393 81.7386 211.645 81.3389C211.243 81.1239 210.795 80.9968 210.377 80.809C209.967 80.6441 209.633 80.332 209.441 79.934C209.11 79.2917 208.813 78.6316 208.554 77.9569C208.427 77.493 208.383 77.0102 208.424 76.5308C208.46 75.7769 208.203 75.4469 207.431 75.4681C206.61 75.4923 205.79 75.5408 204.969 75.6044C204.57 75.6595 204.163 75.5859 203.808 75.3943C203.453 75.2026 203.168 74.9029 202.995 74.5386C202.822 74.2207 202.635 73.9088 202.438 73.606C202.116 73.1478 201.951 72.5975 201.969 72.0377C201.962 71.7953 201.932 71.5541 201.881 71.3171C201.695 69.9714 201.854 68.6005 202.341 67.3326C202.485 66.9765 202.719 66.6636 203.019 66.4242C203.653 65.9039 204.387 65.5195 205.175 65.2949C205.804 65.1424 206.448 65.0562 207.095 65.0375C207.7 65.0103 207.803 64.8801 207.8 64.2776C207.797 63.6751 207.764 63.0665 207.776 62.4609C207.812 60.6655 208.72 59.736 210.253 59.1667C211.038 58.9271 211.853 58.7957 212.675 58.7762C213.545 58.7292 214.417 58.7292 215.288 58.7762C216.473 58.8352 217.621 59.2048 218.618 59.848C219.342 60.281 219.729 60.8895 219.53 61.7131Z" fill="#EB9B12"/>
</svg>
